<?xml version="1.0" standalone="no"?>
<!DOCTYPE svg PUBLIC "-//W3C//DTD SVG 20010904//EN"
 "http://www.w3.org/TR/2001/REC-SVG-20010904/DTD/svg10.dtd">
<svg version="1.0" xmlns="http://www.w3.org/2000/svg"
 width="800.000000pt" height="800.000000pt" viewBox="0 0 800.000000 800.000000"
 preserveAspectRatio="xMidYMid meet">
<metadata>
Created by potrace 1.11, written by Peter Selinger 2001-2013
</metadata>
<g transform="translate(0.000000,800.000000) scale(0.100000,-0.100000)"
fill="#000000" stroke="none">
<path d="M3986 5524 c-8 -11 -83 -111 -165 -224 -82 -113 -159 -215 -170 -227
-12 -12 -21 -25 -21 -28 0 -8 -173 -239 -182 -243 -5 -2 -8 -8 -8 -12 0 -8
-75 -112 -196 -273 -24 -31 -44 -60 -44 -63 0 -3 -6 -11 -12 -18 -7 -7 -22
-25 -33 -41 -11 -15 -29 -39 -41 -54 -11 -14 -36 -48 -54 -76 -19 -27 -40 -54
-47 -58 -7 -4 -13 -14 -13 -22 0 -7 -3 -15 -8 -17 -4 -1 -25 -28 -47 -58 -22
-30 -48 -64 -57 -74 -18 -20 -25 -56 -10 -56 4 0 12 -9 17 -19 6 -11 102 -144
215 -296 113 -153 218 -296 234 -319 16 -22 31 -43 35 -46 3 -3 22 -27 41 -55
19 -27 40 -57 47 -65 6 -8 73 -98 147 -200 74 -102 142 -194 151 -205 15 -20
79 -107 113 -153 9 -13 28 -39 42 -58 14 -18 36 -49 50 -68 14 -20 27 -36 30
-36 3 0 13 12 22 28 10 15 27 39 40 54 13 15 43 55 68 90 25 34 68 93 95 130
79 106 140 190 274 373 69 93 129 175 133 180 4 6 19 24 33 41 14 18 25 35 25
38 0 4 5 12 10 19 43 51 54 65 69 87 9 14 21 32 28 40 44 55 143 193 143 200
0 5 4 10 8 12 5 2 39 46 77 98 38 52 77 104 87 116 28 32 24 42 -49 134 -7 8
-90 121 -185 250 -95 129 -176 237 -180 238 -4 2 -8 9 -8 15 0 7 -10 24 -23
39 -13 15 -31 37 -40 50 -334 455 -345 471 -364 493 -7 7 -13 18 -13 24 0 6
-3 11 -7 11 -5 0 -19 16 -32 35 -13 19 -32 44 -42 56 -11 12 -19 26 -19 30 0
4 -6 14 -13 21 -7 7 -41 51 -74 97 -58 78 -62 82 -77 65z"/>
</g>
</svg>
