<svg version="1.0" xmlns="http://www.w3.org/2000/svg" width="933.33" height="933.33" viewBox="0 0 700 700" preserveAspectRatio="xMidYMid meet"><g transform="matrix(.1 0 0 -.1 0 700)" fill="#000000" stroke="none"><path d="M2735 4706c-145-34-257-96-360-201-190-193-253-491-163-765 26-82 98-226 151-305 121-179 409-484 737-780 91-82 217-200 280-262l116-113 94 96c52 53 185 175 295 272 445 392 689 659 819 896 76 140 107 236 117 371 18 246-43 424-204 592-67 69-94 89-180 133-115 57-204 80-320 80-157 0-282-70-489-276l-128-128-83 89c-118 127-215 207-320 262-91 47-93 47-197 50-63 1-129-3-165-11z"/></g></svg>