<svg version="1.0" xmlns="http://www.w3.org/2000/svg" width="1066.67" height="1066.67" viewBox="0 0 800 800" preserveAspectRatio="xMidYMid meet"><g transform="matrix(.1 0 0 -.1 0 800)" fill="#000000" stroke="none"><path d="M3986 5524c-8-11-83-111-165-224s-159-215-170-227c-12-12-21-25-21-28 0-8-173-239-182-243-5-2-8-8-8-12 0-8-75-112-196-273-24-31-44-59-44-62 0-5-22-33-50-65-8-9-19-24-25-32-45-69-101-144-112-151-7-4-13-14-13-22 0-7-3-15-8-17-4-1-25-28-47-58s-48-64-57-74c-18-20-25-56-10-56 4 0 12-9 17-19 6-11 102-144 215-296 113-153 218-296 234-319 16-22 31-43 35-46 3-3 22-27 41-55 19-27 40-57 47-65 6-8 73-98 147-200s142-194 151-205c15-20 79-107 113-153 9-13 28-39 42-58 14-18 36-49 50-68 14-20 27-36 30-36s13 12 22 28c10 15 27 39 40 54s41 52 63 83 47 65 55 76c8 10 33 43 55 74 22 30 63 85 90 122 28 38 107 145 175 238 68 94 128 175 132 180 4 6 19 24 33 41 14 18 25 35 25 38 0 4 5 12 10 19 43 51 54 65 69 87 9 14 21 32 28 40 44 55 143 193 143 200 0 5 4 10 8 12 5 2 39 46 77 98s77 104 87 116c10 11 18 26 18 33 0 6-51 80-113 164s-158 213-212 287c-55 74-103 137-107 138-5 2-8 9-8 15 0 7-10 24-23 39s-31 37-40 50c-203 277-321 437-333 453-8 11-33 45-55 75s-46 63-54 72c-7 9-22 29-32 45-9 15-20 30-24 33-3 3-33 43-66 89-58 78-62 82-77 65z"/></g></svg>