<?xml version="1.0" standalone="no"?>
<!DOCTYPE svg PUBLIC "-//W3C//DTD SVG 20010904//EN"
 "http://www.w3.org/TR/2001/REC-SVG-20010904/DTD/svg10.dtd">
<svg version="1.0" xmlns="http://www.w3.org/2000/svg"
 width="800.000000pt" height="800.000000pt" viewBox="0 0 800.000000 800.000000"
 preserveAspectRatio="xMidYMid meet">
<metadata>
Created by potrace 1.14, written by Peter Selinger 2001-2017
</metadata>
<g transform="translate(0.000000,800.000000) scale(0.100000,-0.100000)"
fill="#000000" stroke="none">
<path d="M3986 5524 c-8 -11 -83 -111 -165 -224 -82 -113 -159 -215 -170 -227
-12 -12 -21 -25 -21 -28 0 -8 -173 -239 -182 -243 -5 -2 -8 -8 -8 -12 0 -8
-75 -112 -196 -273 -24 -31 -44 -59 -44 -62 0 -5 -22 -33 -50 -65 -8 -9 -19
-24 -25 -32 -45 -69 -101 -144 -112 -151 -7 -4 -13 -14 -13 -22 0 -7 -3 -15
-8 -17 -4 -1 -25 -28 -47 -58 -22 -30 -48 -64 -57 -74 -18 -20 -25 -56 -10
-56 4 0 12 -9 17 -19 6 -11 102 -144 215 -296 113 -153 218 -296 234 -319 16
-22 31 -43 35 -46 3 -3 22 -27 41 -55 19 -27 40 -57 47 -65 6 -8 73 -98 147
-200 74 -102 142 -194 151 -205 15 -20 79 -107 113 -153 9 -13 28 -39 42 -58
14 -18 36 -49 50 -68 14 -20 27 -36 30 -36 3 0 13 12 22 28 10 15 27 39 40 54
13 15 41 52 63 83 22 31 47 65 55 76 8 10 33 43 55 74 22 30 63 85 90 122 28
38 107 145 175 238 68 94 128 175 132 180 4 6 19 24 33 41 14 18 25 35 25 38
0 4 5 12 10 19 43 51 54 65 69 87 9 14 21 32 28 40 44 55 143 193 143 200 0 5
4 10 8 12 5 2 39 46 77 98 38 52 77 104 87 116 10 11 18 26 18 33 0 6 -51 80
-113 164 -62 84 -158 213 -212 287 -55 74 -103 137 -107 138 -5 2 -8 9 -8 15
0 7 -10 24 -23 39 -13 15 -31 37 -40 50 -203 277 -321 437 -333 453 -8 11 -33
45 -55 75 -22 30 -46 63 -54 72 -7 9 -22 29 -32 45 -9 15 -20 30 -24 33 -3 3
-33 43 -66 89 -58 78 -62 82 -77 65z"/>
</g>
</svg>
