<svg version="1.0" xmlns="http://www.w3.org/2000/svg" width="1066.67" height="1066.67" viewBox="0 0 800 800" preserveAspectRatio="xMidYMid meet"><g transform="matrix(.1 0 0 -.1 0 800)" fill="#000000" stroke="none"><path d="M3130 5380c-47-10-107-28-135-41-27-12-53-23-56-23-16-2-159-98-159-107 0-5-5-9-10-9-10 0-29-18-91-86-68-75-138-205-164-304 0-3-4-14-7-25-20-62-33-222-24-295 13-110 17-134 31-177 8-26 20-64 26-83 20-61 104-224 156-301 151-223 416-506 784-839 87-79 130-118 237-215 36-33 113-107 170-164l105-103 126 124c69 68 146 142 171 164 25 21 77 67 115 101 39 34 81 71 95 83 315 270 622 589 781 810 58 82 179 311 179 341 0 10 4 20 9 23 4 3 14 34 21 68 7 35 15 70 17 78 8 26 11 285 4 295-4 6-8 24-10 40-4 41-47 167-72 213-60 107-67 117-149 201-70 71-120 115-120 104 0-3-10 3-22 14-33 29-140 78-228 103-47 13-114 23-180 25-92 3-114 1-180-21-41-14-82-31-90-38s-34-24-57-36c-24-13-43-27-43-32 0-4-5-8-11-8-23 0-219-184-321-301l-27-31-42 49c-36 43-226 231-261 259-67 53-147 99-253 144-48 20-218 20-315 0z"/></g></svg>