<svg viewBox="0 0 75 100"><rect fill="none" width="75" height="100"/><path d="M48.9 43.6c-.3 0-2.5.5-3.2-.2-1-1 .4-1.7.5-3.8.2-5.2-3.4-8-7.4-8.5-.2 0-.7-.1-1.4-.1h-.1c-.4 0-1.3.1-1.3.1-4 .5-7.6 3.3-7.4 8.5.1 2.2 1.5 2.9.5 3.8-.7.7-2.9.2-3.2.2-4.6-.3-8.1 4.5-8.1 8.9 0 1.1.2 2.2.5 3.1 1.5 4.1 5.9 6.2 10.3 5.6 2.8-.4 4.8-2.1 6.5-4.2 1.6-1.9 1.9-.7 1.7.6-1 5.8-3.6 9.1-8.6 10.7-.5.2-2.6.6-.7.6h19.7c1.9 0-.2-.5-.7-.6-4.9-1.5-7.6-4.9-8.6-10.7-.2-1.3.2-2.5 1.7-.6 1.6 2 3.7 3.7 6.4 4.2 5.4.8 10.8-2.6 10.8-8.7.3-4.4-3.2-9.2-7.9-8.9z"/></svg>