<svg viewBox="0 0 75 100"><rect fill="none" width="75" height="100"/><path d="M26.2 23c-.1 0-1 .2-1.2-.1-.4-.4.1-.6.2-1.5.1-2-1.3-3.1-2.8-3.3h-1c-1.5.2-2.9 1.3-2.8 3.3 0 .8.6 1.1.2 1.5-.3.3-1.1.1-1.2.1-1.8-.1-3.1 1.7-3.1 3.4 0 2.3 2.1 3.7 4.2 3.3 1.1-.2 1.8-.8 2.5-1.6.6-.7.7-.3.7.2-.4 2.2-1.4 3.5-3.3 4.1-.2.1-1 .2-.3.2h7.6c.7 0-.1-.2-.3-.2-1.9-.6-2.9-1.9-3.3-4.1-.1-.5.1-1 .7-.2s1.4 1.4 2.5 1.6c2.1.3 4.2-1 4.2-3.3-.4-1.6-1.8-3.5-3.5-3.4z"/><path d="M57.6 23c-.1 0-1 .2-1.2-.1-.4-.4.1-.6.2-1.5.1-2-1.3-3.1-2.8-3.3h-1c-1.5.2-2.9 1.3-2.8 3.3 0 .8.6 1.1.2 1.5-.4.3-1.2.1-1.4.1-1.8-.1-3.1 1.7-3.1 3.4 0 2.3 2.1 3.7 4.2 3.3 1.1-.2 1.8-.8 2.5-1.6.6-.7.7-.3.7.2-.4 2.2-1.4 3.5-3.3 4.1-.2.1-1 .2-.3.2H57c.7 0-.1-.2-.3-.2-1.9-.6-2.9-1.9-3.3-4.1-.1-.5.1-1 .7-.2s1.4 1.4 2.5 1.6c2.1.3 4.2-1 4.2-3.3-.1-1.6-1.4-3.5-3.2-3.4z"/><path d="M26.2 47.5c-.1 0-1 .2-1.2-.1-.4-.4.1-.6.2-1.5.1-2-1.3-3.1-2.8-3.3h-1c-1.5.2-2.9 1.3-2.8 3.3 0 .8.6 1.1.2 1.5-.3.3-1.1.1-1.2.1-1.8-.1-3.1 1.7-3.1 3.4 0 2.3 2.1 3.7 4.2 3.3 1.1-.2 1.8-.8 2.5-1.6.6-.7.7-.3.7.2-.4 2.2-1.4 3.5-3.3 4.1-.2.1-1 .2-.3.2h7.6c.7 0-.1-.2-.3-.2-1.9-.6-2.9-1.9-3.3-4.1-.1-.5.1-1 .7-.2s1.4 1.4 2.5 1.6c2.1.3 4.2-1 4.2-3.3-.4-1.6-1.8-3.5-3.5-3.4z"/><path d="M57.6 47.5c-.1 0-1 .2-1.2-.1-.4-.4.1-.6.2-1.5.1-2-1.3-3.1-2.8-3.3h-1c-1.5.2-2.9 1.3-2.8 3.3 0 .8.6 1.1.2 1.5-.3.3-1.1.1-1.2.1-1.8-.1-3.1 1.7-3.1 3.4 0 2.3 2.1 3.7 4.2 3.3 1.1-.2 1.8-.8 2.5-1.6.6-.7.7-.3.7.2-.4 2.2-1.4 3.5-3.3 4.1-.2.1-1 .2-.3.2H57c.7 0-.1-.2-.3-.2-1.9-.6-2.9-1.9-3.3-4.1-.1-.5.1-1 .7-.2s1.4 1.4 2.5 1.6c2.1.3 4.2-1 4.2-3.3-.1-1.6-1.4-3.5-3.2-3.4z"/><path d="M26.2 72.1c-.1 0-1 .2-1.2-.1-.4-.4.1-.6.2-1.5.1-2-1.3-3.1-2.8-3.3h-1c-1.5.2-2.9 1.3-2.8 3.3 0 .8.6 1.1.2 1.5-.3.3-1.1.1-1.2.1-1.8-.1-3.1 1.7-3.1 3.4 0 2.3 2.1 3.7 4.2 3.3 1.1-.2 1.8-.8 2.5-1.6.6-.7.7-.3.7.2-.4 2.2-1.4 3.5-3.3 4.1-.2.1-1 .2-.3.2h7.6c.7 0-.1-.2-.3-.2-1.9-.6-2.9-1.9-3.3-4.1-.1-.5.1-1 .7-.2s1.4 1.4 2.5 1.6c2.1.3 4.2-1 4.2-3.3-.4-1.7-1.8-3.6-3.5-3.4z"/><path d="M57.6 72.1c-.1 0-1 .2-1.2-.1-.4-.4.1-.6.2-1.5.1-2-1.3-3.1-2.8-3.3h-1c-1.5.2-2.9 1.3-2.8 3.3 0 .8.6 1.1.2 1.5-.3.3-1.1.1-1.2.1-1.8-.1-3.1 1.7-3.1 3.4 0 2.3 2.1 3.7 4.2 3.3 1.1-.2 1.8-.8 2.5-1.6.6-.7.7-.3.7.2-.4 2.2-1.4 3.5-3.3 4.1-.2.1-1 .2-.3.2H57c.7 0-.1-.2-.3-.2-1.9-.6-2.9-1.9-3.3-4.1-.1-.5.1-1 .7-.2s1.4 1.4 2.5 1.6c2.1.3 4.2-1 4.2-3.3-.1-1.7-1.4-3.6-3.2-3.4z"/><path d="M41.9 34.1c-.1 0-1 .2-1.2-.1-.4-.4.1-.6.2-1.5.1-2-1.3-3.1-2.8-3.3h-1c-1.5.2-2.9 1.3-2.8 3.3 0 .8.6 1.1.2 1.5-.3.3-1.1.1-1.2.1-1.9-.1-3.3 1.8-3.3 3.4 0 2.3 2.1 3.7 4.2 3.3 1.1-.2 1.8-.8 2.5-1.6.6-.7.7-.3.7.2-.4 2.2-1.4 3.5-3.3 4.1-.2.1-1 .2-.3.2h7.6c.7 0-.1-.2-.3-.2-1.9-.6-2.9-1.9-3.3-4.1-.1-.5.1-1 .7-.2s1.4 1.4 2.5 1.6c2.1.3 4.2-1 4.2-3.3-.1-1.6-1.5-3.5-3.3-3.4z"/></svg>