<svg viewBox="0 0 75 100"><rect fill="none" width="75" height="100"/><rect x="38.1" y="42.6" fill="#1F2D6C" width="4.1" height="1.4"/><rect x="37.7" y="41.3" fill="#AA292E" width="4.1" height="1.4"/><rect x="37.1" y="39.9" fill="#1F2D6C" width="4.1" height="1.4"/><rect x="36.8" y="38.5" fill="#AA292E" width="4.1" height="1.4"/><rect x="36.2" y="37.1" fill="#1F2D6C" width="4.1" height="1.4"/><rect x="35.8" y="35.8" fill="#AA292E" width="4.1" height="1.4"/><rect x="35.2" y="34.4" fill="#1F2D6C" width="4.1" height="1.4"/><polygon fill="#AA292E" points="37.7 44.1 34.8 36.4 27 35.8 31.5 44.6"/><polygon fill="#AA292E" points="47.3 43.6 48.4 35.1 40.5 35.4 40.4 38.6 43.1 44.1"/><path fill="#0B050F" d="m38.4 34.9 3.5 9 2.6-.3s-3.6-4.7-3-6.5c.6-1.8 4.7-.7 4.7-.7l1.8-3.2-9.6 1.7z"/><path fill="#0B050F" d="M38.9 44.1 35.5 35l-8.7-.7 1.1 2.6s4.7-.9 6.1.2c1.4 1.1 2.7 6.8 2.7 6.8l2.2.2z"/><path fill="#0B050F" d="M30.5 47.4c7.1.3 17.3-.6 17.3-.6v-3.2s-10.2.9-17.3.6"/><path fill="none" stroke="#AA7941" stroke-width=".77" stroke-miterlimit="10" d="M47.9 43.6s-10.2.9-17.3.6"/><path fill="none" stroke="#AA7941" stroke-width=".77" stroke-miterlimit="10" d="M47.9 46.8s-10.2.9-17.3.6"/><path fill="#DCE3F2" d="m53.5 37.2-4.9-4.5s-3.9 2-3.4 6 2.6 5.4 2.6 5.4l5.7-6.9z"/><path fill="#0B050F" d="m53.5 37.2-4.4-4s-3.4 1.8-3 5.3c.4 3.5 2.3 4.8 2.3 4.8l5.1-6.1z"/><path fill="#1F2D6C" d="m53.5 37.2-3.6-3.3s-2.9 1.5-2.5 4.4c.3 2.9 1.9 4 1.9 4l4.2-5.1z"/><rect x="32.9" y="56" fill="#1F2D6C" width="4.1" height="1.4"/><rect x="33.2" y="57.4" fill="#AA292E" width="4.1" height="1.4"/><rect x="33.8" y="58.7" fill="#1F2D6C" width="4.1" height="1.4"/><rect x="34.2" y="60.1" fill="#AA292E" width="4.1" height="1.4"/><rect x="34.8" y="61.5" fill="#1F2D6C" width="4.1" height="1.4"/><rect x="35.1" y="62.9" fill="#AA292E" width="4.1" height="1.4"/><rect x="35.7" y="64.2" fill="#1F2D6C" width="4.1" height="1.4"/><polygon fill="#AA292E" points="37.3 55.9 40.2 63.6 48 64.2 43.5 55.4"/><polygon fill="#AA292E" points="27.7 56.4 26.6 64.9 34.5 64.6 34.6 61.4 31.9 55.9"/><path fill="#0B050F" d="m36.6 65.1-3.5-9-2.6.3s3.6 4.7 3 6.5c-.6 1.8-4.7.7-4.7.7L27 66.8l9.6-1.7z"/><path fill="#0B050F" d="m36.1 55.9 3.4 9.1 8.7.7-1.2-2.6s-4.7.9-6.1-.2c-1.4-1.1-2.7-6.8-2.7-6.8l-2.1-.2z"/><path fill="#0B050F" d="M44.5 52.6c-7.1-.3-17.3.6-17.3.6v3.2s10.2-.9 17.3-.6"/><path fill="none" stroke="#AA7941" stroke-width=".77" stroke-miterlimit="10" d="M27.1 56.4s10.2-.9 17.3-.6"/><path fill="none" stroke="#AA7941" stroke-width=".77" stroke-miterlimit="10" d="M27.1 53.2s10.2-.9 17.3-.6"/><path fill="#E8EFFF" d="M62.8 69.3c-1.4.5-2.9.7-4.4.7-8.6 0-15.6-7.7-15.6-17.1 0-9.4 7-17.1 15.6-17.1 1.5 0 3 .2 4.4.7v32.8z"/><path fill="#DCE3F2" d="M62.8 68.6c-1.4.5-2.9.7-4.4.7-8.3 0-15-7.3-15-16.4 0-9 6.7-16.4 15-16.4 1.5 0 3 .3 4.4.7v31.4z"/><path fill="#AA7941" d="M62.8 65c-1.4.6-2.9.9-4.4.9-6.6 0-11.9-5.8-11.9-13s5.3-13 11.9-13c1.6 0 3.1.3 4.4.9V65z"/><path fill="#BF9B4D" d="M62.8 63.6c-1.4.7-2.8 1-4.4 1-5.9 0-10.8-5.3-10.8-11.8 0-6.5 4.8-11.8 10.8-11.8 1.6 0 3.1.4 4.4 1v21.6z"/><path fill="#E8EFFF" d="M62.8 59.6c-1.2 1-2.8 1.6-4.4 1.6-4.2 0-7.6-3.7-7.6-8.3 0-4.6 3.4-8.3 7.6-8.3 1.7 0 3.2.6 4.4 1.6v13.4z"/><path fill="#AA292E" d="M62.8 59.1c-1.2 1-2.8 1.7-4.4 1.7-4 0-7.2-3.5-7.2-7.9s3.2-7.9 7.2-7.9c1.7 0 3.2.6 4.4 1.7v12.4z"/><path fill="#AA7941" d="M62.8 54.1c-.3.2-.5.3-.7.5-.2.2-.5.4-.7.6-.2.2-.5.4-.7.6l-.6.6c0-.2-.1-.4-.1-.7v-.1c0-.2-.1-.4-.1-.5v-.2c0-.1-.1-.3-.1-.4v-.1c0-.1 0-.1-.1-.2 0-.1-.1-.3-.1-.4v-.1c0-.1 0-.1-.1-.2 0-.1-.1-.3-.1-.4 0-.1-.1-.2-.1-.2 0-.1-.1-.2-.1-.4 0-.1-.1-.2-.1-.3 0-.1-.1-.2-.2-.3 0-.1-.1-.2-.1-.3-.1-.1-.1-.2-.2-.3 0-.1-.1-.2-.1-.2 0-.1-.1-.2-.2-.3v-.1c0-.1-.1-.2-.1-.2 0-.1-.1-.2-.1-.2l-.1-.1c0-.1-.1-.1-.1-.2-.1-.1-.1-.2-.2-.3 0-.1-.1-.1-.1-.2 0 0 0-.1-.1-.1-.1-.1-.1-.2-.2-.3-.3 0-.3-.1-.4-.2-.1-.1-.1-.2-.2-.3l-.1-.1-.2-.2c0-.1-.1-.1-.1-.2s-.1-.1-.1-.2c-.1-.1-.2-.2-.2-.3l-.2-.2-.3-.3-.2-.2-.1-.1-.3-.3-.1-.1-.2-.2-.3-.3c-.2.2-.3.1-.4.1-.1-.1-.2-.1-.2-.2-.1-.1-.2-.1-.3-.2-.1-.1-.2-.1-.2-.2-.1-.1-.2-.1-.3-.2-.1-.1-.2-.1-.2-.2-.1-.1-.2-.1-.3-.2-.1 0-.2-.1-.2-.1-.1-.1-.2-.1-.3-.2-.1 0-.2-.1-.2-.1-.1-.1-.2-.1-.3-.2-.1 0-.2-.1-.2-.1-.1-.1-.2-.1-.4-.2-.1 0-.2-.1-.2-.1-.1-.1-.3-.1-.4-.2-.1 0-.1-.1-.2-.1-.2-.1-.4-.1-.5-.2h-.1c-.2-.1-.4-.1-.6-.2h-.1c-.2 0-.4-.1-.5-.1H48c-.2 0-.3-.1-.5-.1h-.2c-.4-.1-.8-.1-1.1-.1 2.8-4.3 7.4-7 12.6-7 1.5 0 3 .2 4.4.7v17.6z"/><path fill="#BF9B4D" d="M62.8 52.9c-.2.5-.4.9-.7 1.1-.6.6-1.3 1.1-1.9 1.7-.8-6.6-6.5-13-13.2-13.5 3.7-5.6 15.3-9.9 15.7-.8v11.5z"/><path fill="#0B050F" d="M34.1 84.3s-5.2-11.4-4.4-15.1c.8-3.7 8.2 6.8 8.2 6.8l-3.8 8.3z"/><path fill="#AA292E" d="M38.6 94.8s-8.2-2-12-13.4c-3.8-11.4-2-15.8-2-15.8l5.7 4s-.5 5.4 3.4 14.7c3.9 9.3 4.9 8.5 4.9 8.5v2z"/><path fill="#BF9B4D" d="M43.3 93.8s-8.2-2-12-13.4c-3.8-11.4-2-13.4-2-13.4l1.7.4s-2.1 3.7 1.8 13c3.9 9.3 10.5 11.5 10.5 11.5v1.9z"/><polygon fill="#1F2D6C" points="62.8 53.4 62.8 64.6 57 69.9 51.2 66.6"/><path fill="#0B050F" d="M49.9 66.3s12.5-14.4 12.8-14.6v2.2L52.3 66.6l-2.4-.3z"/><path fill="#AA7941" d="m30.7 70.6-5.1-3.9s14.8-5.4 32.2 1.2L53.7 73l-23-2.4z"/><path fill="#BF9B4D" d="m31.7 71.4-5.1-3.9s13.8-5.1 31.2 1.5l-4.1 5.1-22-2.7z"/><path fill="#DCE3F2" d="M35.3 75.9c0-.1-.9-2.8-3.6-4.4 0 0 13.5-2.4 21.9 1.7 0 0-1.3 8.3-5.3 6.6-4.1-1.8-13-3.9-13-3.9z"/><path fill="#E8EFFF" d="M33.8 86.5s-.3-3 0-3.5c.3-.4.4-.8.3-1.5-.1-.7-.1-4.3.4-5.1.6-.8 3-5.4 4.7-5.4 1.7 0 8.7 2.9 8.8 6.6 0 0 .5-.7 1.2-.3.7.4.8 3.2.8 3.2s-5.7 12.5-11.4 12c0-.1-4.8-3.5-4.8-6z"/><path fill="#0B050F" d="M38.6 94.8s6 1.6 10.6-3.3 9.7-16.8 13.6-18.1v-4.9s-9.4 4.8-11.7 12.3c-2.3 7.4-12.5 14-12.5 14z"/><path fill="#D28537" d="M38.6 92.2s1.5-6.7 8.1-6.9c1.8 1.8-4.2 6.9-4.2 6.9s-1.2 1-3.9.7v-.7z"/><path fill="#AA292E" d="M38.6 92.8s6.3-1.6 11.6-14.5c8.9-14.4 12.6-13.7 12.6-13.7v3.8s-6.5 5.2-10.4 12.4c-4 7.2-6.6 14-13.8 14v-2z"/><path fill="#BF9B4D" d="M38.6 94.8s-8.2-2-12-13.4c-3.8-11.4-2-15.8-2-15.8l1.5.9s-1.9 5.5 2.1 14.8c3.9 9.3 10.5 11.5 10.5 11.5v2z"/><path fill="#BD7831" d="M38.6 92.2s-1-4.3-4.9-5.8c0 0-1.2 7 4.9 6.4v-.6z"/><path fill="#DCE3F2" d="m21.5 62.8 4.9 4.5s3.9-2 3.4-6-2.6-5.4-2.6-5.4l-5.7 6.9z"/><path fill="#0B050F" d="m21.5 62.8 4.4 4s3.4-1.8 3-5.3c-.4-3.5-2.3-4.8-2.3-4.8l-5.1 6.1z"/><path fill="#1F2D6C" d="m21.5 62.8 3.6 3.3s2.9-1.5 2.5-4.4c-.3-2.9-1.9-4-1.9-4l-4.2 5.1z"/><g><path fill="#D28537" d="M33.8 83.4s.8.2 1.5.2h1.6s-.2.1-.5.2-.7.1-1.1.1c-.4 0-.8-.1-1.1-.3-.3 0-.4-.1-.4-.2z"/></g><g><path fill="#D28537" d="M43.3 83.6s-.2.1-.6.2c-.4.1-.9.2-1.4.3-.3 0-.5.1-.8 0-.2 0-.5 0-.7-.1-.4-.1-.6-.3-.6-.3s.3-.1.6-.1h.6c.2 0 .5 0 .7.1 1.2.1 2.2-.1 2.2-.1z"/></g><g><path fill="#2A3757" d="M39.8 82.5s.2-.1.5-.2c.1 0 .3-.1.5-.1s.4-.1.6 0a3.6 3.6 0 0 1 1.6.4s-.2 0-.5-.1c-.1 0-.3 0-.5-.1h-.6c-.4 0-.8 0-1.1.1-.3-.1-.5 0-.5 0z"/></g><g><path fill="#2A3757" d="M36.5 82.5s-.2 0-.4-.1c-.2 0-.5-.1-.8-.1h-.4c-.1 0-.3 0-.4.1-.2 0-.4.1-.4.1s.1-.1.4-.2c.2-.1.5-.2.9-.2h.5c.1 0 .3.1.4.1.1.2.2.3.2.3z"/></g><g><path fill="#E8EFFF" d="M38.3 74.9s.7-.4 1.6 0"/><path fill="#2A3757" d="m38.3 74.9.2-.2c.1 0 .2-.1.3-.1h.3c.2 0 .4.1.6.1.1.1.2.1.2.1h-.3c-.2 0-.4-.1-.6 0h-.5c-.1.1-.2.1-.2.1z"/></g><g><path fill="#2A3757" d="M37.2 76.1s1-.1 1.9-.1c1 0 1.9.1 1.9.1s-1 .1-1.9.1c-.9 0-1.9-.1-1.9-.1z"/></g><g><path fill="#2A3757" d="M37.7 78.3s0-.1 0 0c.1-.2.1-.2.2-.3.1-.1.2-.2.3-.2.1-.1.3-.1.4-.1h.8c.2 0 .4.1.4.1H39c-.1 0-.3 0-.4.1-.1 0-.3 0-.4.1-.1 0-.2.1-.3.2-.2-.1-.2.1-.2.1z"/></g><path fill="#E8EFFF" d="M12.2 30.7c1.4-.5 2.9-.7 4.4-.7 8.6 0 15.6 7.7 15.6 17.1 0 9.4-7 17.1-15.6 17.1-1.5 0-3-.2-4.4-.7V30.7z"/><path fill="#DCE3F2" d="M12.2 31.4c1.4-.5 2.9-.7 4.4-.7 8.3 0 15 7.3 15 16.4 0 9-6.7 16.4-15 16.4-1.5 0-3-.3-4.4-.7V31.4z"/><path fill="#AA7941" d="M12.2 35c1.4-.6 2.9-.9 4.4-.9 6.6 0 11.9 5.8 11.9 13s-5.3 13-11.9 13c-1.6 0-3.1-.3-4.4-.9V35z"/><path fill="#BF9B4D" d="M12.2 36.4c1.4-.7 2.8-1 4.4-1 5.9 0 10.8 5.3 10.8 11.8 0 6.5-4.8 11.8-10.8 11.8-1.6 0-3.1-.4-4.4-1V36.4z"/><path fill="#E8EFFF" d="M12.2 40.4c1.2-1 2.8-1.6 4.4-1.6 4.2 0 7.6 3.7 7.6 8.3 0 4.6-3.4 8.3-7.6 8.3-1.7 0-3.2-.6-4.4-1.6V40.4z"/><path fill="#AA292E" d="M12.2 40.9c1.2-1 2.8-1.7 4.4-1.7 4 0 7.2 3.5 7.2 7.9 0 4.3-3.2 7.9-7.2 7.9-1.7 0-3.2-.6-4.4-1.7V40.9z"/><path fill="#AA7941" d="M12.2 45.9c.3-.2.5-.3.7-.5.2-.2.5-.4.7-.6.2-.2.5-.4.7-.6l.6-.6c0 .2.1.4.1.7v.1c0 .2.1.4.1.5v.2c0 .1.1.3.1.4v.1c0 .1 0 .1.1.2 0 .1.1.3.1.4v.1c0 .1 0 .1.1.2 0 .1.1.3.1.4 0 .1.1.2.1.2 0 .1.1.2.1.4 0 .1.1.2.1.3 0 .1.1.2.2.3 0 .1.1.2.1.3.1.1.1.2.2.3 0 .1.1.2.1.2 0 .1.1.2.2.3v.1c0 .1.1.2.1.2 0 .1.1.2.1.2l.1.1c0 .1.1.1.1.2.1.1.1.2.2.3 0 .1.1.1.1.2 0 0 0 .1.1.1.1.1.1.2.2.3.1.1.1.2.2.3.1.1.1.2.2.3l.1.1.2.2c0 .1.1.1.1.2s.1.1.1.2c.1.1.2.2.2.3l.2.2.3.3.2.2.1.1.3.3.1.1.2.2.3.3c.1.1.2.1.2.2.1.1.2.1.2.2.1.1.2.1.3.2.1.1.2.1.2.2.1.1.2.1.3.2.1.1.2.1.2.2.1.1.2.1.3.2.1 0 .2.1.2.1.1.1.2.1.3.2.1 0 .2.1.2.1.1.1.2.1.3.2.1 0 .2.1.2.1.1.1.2.1.4.2.1 0 .2.1.2.1.1.1.3.1.4.2.1 0 .1.1.2.1.2.1.4.1.5.2h.1c.2.1.4.1.6.2h.1c.2 0 .4.1.5.1h.2c.2 0 .3.1.5.1h.2c.4.1.8.1 1.1.1-2.8 4.3-7.4 7-12.6 7-1.5 0-3-.2-4.4-.7v-18z"/><path fill="#BF9B4D" d="M12.2 47.1c.2-.5.4-.9.7-1.1.6-.6 1.3-1.1 1.9-1.7.8 6.6 6.5 13 13.2 13.5-3.7 5.6-15.3 9.9-15.7.8V47.1z"/><polygon fill="#1F2D6C" points="12.2 46.6 12.2 35.4 18 30.1 23.8 33.4"/><path fill="#0B050F" d="M25.1 33.7S12.6 48.1 12.3 48.3v-2.2l10.5-12.6 2.3.2z"/><path fill="#0B050F" d="M40.9 15.7s5.2 11.4 4.4 15.1c-.8 3.7-8.2-6.7-8.2-6.7l3.8-8.4z"/><path fill="#AA292E" d="M36.4 5.2s8.2 2 12 13.4c3.8 11.4 2 15.8 2 15.8l-5.7-4s.5-5.4-3.4-14.7c-3.9-9.3-4.9-8.5-4.9-8.5v-2z"/><path fill="#BF9B4D" d="M31.7 6.2s8.2 2 12 13.4c3.8 11.4 2 13.4 2 13.4l-1.7-.3s2.1-3.7-1.8-13C38.3 10.3 31.7 8.2 31.7 8.2v-2z"/><path fill="#AA7941" d="m44.3 29.4 5.1 3.9s-14.8 5.4-32.2-1.2l4.1-5.1 23 2.4z"/><path fill="#BF9B4D" d="m43.3 28.6 5.1 3.9S34.6 37.6 17.2 31l4.1-5.1 22 2.7z"/><path fill="#DCE3F2" d="M39.7 24.1c0 .1.9 2.8 3.6 4.4 0 0-13.5 2.4-21.9-1.7 0 0 1.3-8.3 5.3-6.6 4.1 1.8 13 3.9 13 3.9z"/><path fill="#E8EFFF" d="M41.2 13.5s.3 3 0 3.5c-.3.4-.4.8-.3 1.5.1.7.1 4.3-.4 5.1-.6.8-3 5.4-4.7 5.4-1.7 0-8.7-2.9-8.8-6.6 0 0-.5.7-1.2.3-.7-.4-.8-3.2-.8-3.2S30.7 7 36.4 7.5c0 .1 4.8 3.5 4.8 6z"/><path fill="#0B050F" d="M36.4 5.2s-6-1.6-10.6 3.3-9.7 16.8-13.6 18.1v4.9s9.4-4.8 11.7-12.3c2.3-7.4 12.5-14 12.5-14z"/><path fill="#D28537" d="M36.4 7.8s-1.5 6.7-8.1 6.9c-1.8-1.8 4.2-6.9 4.2-6.9s1.2-1 3.9-.7v.7z"/><path fill="#AA292E" d="M36.4 7.2s-6.3 1.6-11.6 14.5c-8.9 14.4-12.6 13.7-12.6 13.7v-3.8s6.5-5.2 10.4-12.4c4-7.2 6.6-14 13.8-14v2z"/><path fill="#BF9B4D" d="M36.4 5.2s8.2 2 12 13.4c3.8 11.4 2 15.8 2 15.8l-1.4-1s1.9-5.5-2.1-14.8S36.4 7.2 36.4 7.2v-2z"/><path fill="#BD7831" d="M36.4 7.8s1 4.3 4.9 5.8c0 0 1.2-7-4.9-6.4v.6z"/><g><path fill="#D28537" d="M41.2 16.6s-.8-.2-1.5-.2h-1.6s.2-.1.5-.2.7-.1 1.1-.1c.4 0 .8.1 1.1.3.3 0 .4.1.4.2z"/></g><g><path fill="#D28537" d="M31.7 16.4s.2-.1.6-.2c.4-.1.9-.2 1.4-.3.3 0 .5-.1.8 0 .2 0 .5 0 .7.1.4.1.6.3.6.3s-.3.1-.6.1h-.6c-.2 0-.5 0-.7-.1-1.2-.1-2.2.1-2.2.1z"/></g><g><path fill="#2A3757" d="M35.2 17.5s-.2.1-.5.2c-.1 0-.3.1-.5.1s-.4.1-.6 0c-.4 0-.8-.1-1.1-.2-.3-.1-.5-.2-.5-.2s.2 0 .5.1c.1 0 .3 0 .5.1h.6c.4 0 .8 0 1.1-.1.3.1.5 0 .5 0z"/></g><g><path fill="#2A3757" d="M38.5 17.5s.2 0 .4.1c.2 0 .5.1.8.1h.4c.1 0 .3 0 .4-.1.2 0 .4-.1.4-.1s-.1.1-.4.2a2 2 0 0 1-.9.2h-.5c-.1 0-.3-.1-.4-.1-.1-.2-.2-.3-.2-.3z"/></g><g><path fill="#E8EFFF" d="M36.7 25.1s-.7.4-1.6 0"/><path fill="#2A3757" d="m36.7 25.1-.2.2c-.1 0-.2.1-.3.1h-.3c-.2 0-.4-.1-.6-.1-.1-.1-.2-.1-.2-.1h.3c.2 0 .4.1.6 0h.5c.1-.1.2-.1.2-.1z"/></g><g><path fill="#2A3757" d="M37.8 23.9s-1 .1-1.9.1c-1 0-1.9-.1-1.9-.1s1-.1 1.9-.1c.9 0 1.9.1 1.9.1z"/></g><g><path fill="#2A3757" d="M37.3 21.7s0 .1 0 0c-.1.2-.1.2-.2.3-.1.1-.2.2-.3.2-.1.1-.3.1-.4.1h-.8c-.2 0-.4-.1-.4-.1h.8c.1 0 .3 0 .4-.1.1 0 .3 0 .4-.1.1 0 .2-.1.3-.2.2.1.2-.1.2-.1z"/></g></svg>