<svg viewBox="0 0 75 100"><rect fill="none" width="75" height="100"/><polygon fill="#c42b16" points="27 25.5 21.8 18.3 21.8 18.3 21.8 18.3 16.5 25.5 21.8 32.6 21.8 32.6 21.8 32.6"/><polygon fill="#c42b16" points="58.5 25.5 53.2 18.3 53.2 18.3 53.2 18.3 48 25.5 53.2 32.6 53.2 32.6 53.2 32.6"/><polygon fill="#c42b16" points="27 50 21.8 42.8 21.8 42.9 21.8 42.9 16.5 50 21.8 57.1 21.8 57.1 21.8 57.2"/><polygon fill="#c42b16" points="58.5 50 53.2 42.8 53.2 42.9 53.2 42.9 48 50 53.2 57.1 53.2 57.1 53.2 57.2"/><polygon fill="#c42b16" points="27 74.5 21.8 67.4 16.5 74.5 21.8 81.7 21.8 81.7 21.8 81.7"/><polygon fill="#c42b16" points="58.5 74.5 53.2 67.4 48 74.5 53.2 81.7 53.2 81.7 53.2 81.7"/><polygon fill="#c42b16" points="37.5 29.4 32.2 36.6 37.5 43.7 42.8 36.6"/></svg>