<svg viewBox="0 0 75 100"><rect fill="none" width="75" height="100"/><path fill="#AA292E" d="M53 71.7s3.7-1.3 7.2-5.1V62H53v9.7z"/><path fill="#AA292E" d="m50.1 14.8 3.9-5s-7.5-5-9-5.1c-1.6 0-18.8 5.3-18.8 5.3l3.9 6.2 20-1.4z"/><path fill="#1F2D6C" d="M30.1 8.8s2.1 6.8 2.7 7.3c.6.5 3.3-.8 3.3-.8s-2.2-2.1-3.2-7.3l-2.8.8z"/><path fill="#AA292E" d="M60.2 59.7V33.8s-3.3-4.1-9.8-4.8c.1 0-.1 26.2 9.8 30.7z"/><rect x="37.8" y="30.4" fill="#0B050F" width="3.3" height="6.1"/><rect x="44.5" y="28.3" fill="#0B050F" width="3.3" height="6.1"/><rect x="34.5" y="28" fill="#AA292E" width="3.3" height="6.1"/><rect x="41.1" y="30" fill="#AA292E" width="3.3" height="6.1"/><rect x="31.2" y="26.2" fill="#0B050F" width="3.3" height="6.1"/><rect x="27.9" y="26.1" fill="#AA292E" width="3.3" height="3.8"/><polygon fill="#AD6E2D" points="47.8 26.2 47 28.9 49.6 29"/><path fill="#0B050F" d="M51.3 29.1s-1.2 17.1 8.9 30.5v1.8s-5.9-2.8-9.3-14.5c-3.4-11.7-1.8-17.8-1.8-17.8h2.2z"/><path fill="#1F2D6C" d="M49.8 29.5s-.3 11.3 2.5 18c2.8 6.7 4.7 11.3 8 13.9v5.2s-9.1-8.8-12.1-18.8c-3-9.9-2.4-18.6-2.4-18.6l4 .3z"/><ellipse fill="#AA292E" cx="48.1" cy="29.2" rx="1.9" ry=".8"/><ellipse transform="rotate(-3.03 48.04 30.94)" fill="#AA292E" cx="48" cy="31" rx="1.9" ry=".8"/><ellipse transform="rotate(-6.15 47.97 33.02)" fill="#AA292E" cx="48" cy="33" rx="1.8" ry=".7"/><ellipse transform="rotate(-9.39 48.1 35.26)" fill="#AA292E" cx="48.1" cy="35.3" rx="1.8" ry=".7"/><ellipse transform="rotate(-12.74 48.36 37.7)" fill="#AA292E" cx="48.4" cy="37.7" rx="1.8" ry=".7"/><ellipse transform="rotate(-16.14 48.74 40.24)" fill="#AA292E" cx="48.7" cy="40.2" rx="1.8" ry=".7"/><ellipse transform="rotate(-19.59 49.26 42.9)" fill="#AA292E" cx="49.3" cy="42.9" rx="1.8" ry=".7"/><ellipse transform="rotate(-23.09 49.9 45.59)" fill="#AA292E" cx="49.9" cy="45.6" rx="1.8" ry=".7"/><ellipse transform="rotate(-26.54 50.7 48.3)" fill="#AA292E" cx="50.7" cy="48.3" rx="1.8" ry=".7"/><ellipse transform="rotate(-29.99 51.65 51)" fill="#AA292E" cx="51.6" cy="51" rx="1.8" ry=".7"/><ellipse transform="rotate(-33.43 52.75 53.61)" fill="#AA292E" cx="52.7" cy="53.6" rx="1.8" ry=".7"/><ellipse transform="rotate(-36.76 54 56.13)" fill="#AA292E" cx="54" cy="56.1" rx="1.8" ry=".7"/><ellipse transform="rotate(-40.01 55.43 58.5)" fill="#AA292E" cx="55.4" cy="58.5" rx="1.8" ry=".7"/><ellipse transform="rotate(-43.12 57.03 60.7)" fill="#AA292E" cx="57" cy="60.7" rx="1.9" ry=".7"/><ellipse transform="rotate(-46.14 58.8 62.65)" fill="#AA292E" cx="58.8" cy="62.6" rx="1.9" ry=".8"/><rect x="35.6" y="38.2" fill="#3856C8" width="5.3" height="5.9"/><polygon fill="#BF9B4D" points="35.9 43.9 40.9 43.9 40.9 49.2"/><rect x="35.7" y="39.1" fill="#BF9B4D" width="5.3" height="4.3"/><polygon fill="#BF9B4D" points="35.7 38.7 40.9 38.7 40.9 37.3 35.7 34.1"/><path fill="#AA292E" d="m41.9 49.7-.2-12.3 4.3-2.5s.9 10.2 1.9 12c1.1 1.9-6 2.8-6 2.8z"/><polygon fill="#E8EFFF" points="42 49.7 40.7 49.1 40.7 36.5 42 36.5"/><polygon fill="#0B050F" points="42.4 50.2 41.1 49.5 41.1 36.9 42.4 36.9"/><path fill="#0B050F" d="M50.9 54.5c-.4-1.1-1.2-2.1-1.7-3.2-.9-1.7-1.5-3.5-1.8-5.4h-.1c-2.7 0-4.9 1.7-5.9 4 .2.2.4.5.6.7.4.4 1 .7 1.4 1 1.1.9 2 2 3.2 2.7.9.5 2 .9 3 1.2.4.2.9.3 1.3.4.1 0 .3 0 .4-.1-.1-.4-.3-.9-.4-1.3z"/><path fill="#BF9B4D" d="M50.9 54.5c-.4-1.1-1.2-2.1-1.7-3.2-.8-1.6-1.4-3.2-1.7-4.9h-.2c-2.5 0-4.7 1.6-5.5 3.9.1.1.2.2.3.2.4.4 1 .7 1.4 1 1.1.9 2 2 3.2 2.7.9.5 2 .9 3 1.2.4.2.9.3 1.3.4.1 0 .3 0 .4-.1-.2-.3-.4-.8-.5-1.2z"/><path fill="#3856C8" d="M49.1 51.3c-.4-.7-.7-1.4-.9-2.1-.3-.1-.6-.1-1-.1-1.7 0-3.1 1.4-3.2 3.1.8.8 1.6 1.6 2.6 2.2.6.3 1.2.6 1.9.8.8-.4 1.4-1 1.7-1.9-.3-.8-.7-1.4-1.1-2z"/><polygon fill="#AA292E" points="29.4 39.7 34.6 42.7 34.8 33.1 29.4 30.1"/><rect x="34.6" y="33.5" fill="#E8EFFF" width="1.3" height="9.8"/><path fill="#C9D8F7" d="M24.5 27.1s2.2-1.3 4.5-1.6l.3 14s-3.5-1.3-5.1-1.2l.3-11.2z"/><polygon fill="#715C57" points="24.5 27.1 23.7 27.4 23.7 38.2 24.5 38.2"/><path fill="#0B050F" d="M23.7 27.4s-1.2.5-1.7.9V38h1.7V27.4z"/><path fill="#AA292E" d="M22 28.3s-3.7 1.3-7.2 5.1V38H22v-9.7z"/><rect x="34.1" y="33.1" fill="#0B050F" width="1.3" height="9.8"/><rect x="29" y="25.6" fill="#715C57" width=".8" height="13.7"/><path fill="#AA7941" d="M50.3 56.1c-.5 0-1.1-.1-1.9-.4-2.6-1-5.8-3.7-9.5-8.1-4.5-5.3-8.8-7.4-11.7-8.2-3.1-.9-6.7-.7-6.7-.7l-.2-.9c.1 0 3.7-.2 7 .7 3 .9 7.6 3 12.2 8.5 8.3 9.9 11.5 8.1 11.5 8l.5.7c0 .1-.4.4-1.2.4z"/><path fill="#E8EFFF" d="M29.8 29.5s10.7 7 11.7 7 4-2.1 4-2.1v1.2S41.8 38 41.4 38c-.5 0-11.6-7.2-11.6-7.2v-1.3z"/><path fill="#BF9B4D" d="M31 26.2s9.1 6.7 10.3 6.7c1.3 0 5-3.3 5-3.3L31 26.2z"/><path fill="#BF9B4D" d="M29.8 28.7s10.7 7.1 11.7 7.1 4-2.4 4-2.4v1.2S41.8 37 41.4 37c-.5 0-11.6-7-11.6-7v-1.3z"/><path fill="#AA7941" d="M45.3 30s0 11.3 2.6 18.8 9.3 17.9 11.3 18.9l1.1-1.1s-4.7-3.9-11.4-18.4c-1.7-7.2-1.8-4.1-2.6-18.7-.9-14.6-1 .5-1 .5z"/><path fill="#DCE3F2" d="M36.9 28.7s3.7 2.7 4.5 2.7c.8 0 2.5-1.5 2.5-1.5s-5.1-3.4-6.5-2.9c-1.4.4-.5 1.7-.5 1.7z"/><path fill="#D28537" d="M47.3 15.3s1.7 1.7 1.3 6.3c-.4 4.5-.8 9.1 2.5 7.7 3.3-1.4.4-4.9-1.5-3.1 0 0 0-2.2.3-5.2.2-2.9 0-5.7-2.6-5.7z"/><path fill="#E8EFFF" d="M49 16s.5 2.7 0 3.3c-.5.6 0 1.4 0 2.1 0 .7.7 6.3-3.1 8.3-3.8 2-3.5-.8-8.2-2.5 0 0-.7-10.9 2.5-11.8 0-.1 6.3-.6 8.8.6z"/><path fill="#A86B2C" d="M33.4 16.7s-1.2 1-1.2 4-1.5 6-3.6 4.9c-2.1-1.1 0-3.2 1.2-1.9 0 0 .1-1.4.1-3.4 0-1.8 1.1-4 3.5-3.6z"/><path fill="#AD6E2D" d="M34.6 16.1s-1.4 1.2-1.4 4.6c0 3.4-.8 7-3.1 5.7-2.4-1.3 0-3.7 1.4-2.2 0 0 .2-1.7.2-3.9-.2-2.2.9-4.5 2.9-4.2z"/><path fill="#B3712E" d="M36.1 15.7s-1.4 2.4-1.4 6.1c0 3.7-1 6.4-3.6 5s0-4 1.5-2.3c0 0 .2-1.8.2-4.2 0-2.4 1.2-4.8 3.3-4.6z"/><path fill="#B87530" d="M37.4 15.5s-1 1.6-1 5.7-.8 8-3.7 6.4c-2.8-1.5 0-4.4 1.7-2.6 0 0 .2-2 .2-4.7 0-2.5.4-5 2.8-4.8z"/><path fill="#BD7831" d="M39 15.3s-1.8 1.5-1.8 5.9-.1 8.8-3.1 7.1c-3-1.6 0-4.7 1.8-2.8 0 0 .2-2.1.2-5-.1-2.8.4-5.4 2.9-5.2z"/><path fill="#D28537" d="M40.2 15.3s-1.9 1.6-1.9 6.1c0 4.6-.1 9.1-3.2 7.4a1.8 1.8 0 0 1 1.8-2.9s.2-2.2.2-5.2c0-2.9.5-5.7 3.1-5.4z"/><path fill="#333333" d="M30.6 18s7.2-4 18.8-1.4l.7-1.7s-9-3.5-20 1.3l.5 1.8z"/><g><path fill="#D28537" d="M46.1 18.9s.7-.3 1.5-.3h.6c.2.1.3.2.5.2.2.2.3.4.3.4l-.4-.2c-.1 0-.3-.1-.4-.1-.2 0-.3-.1-.5-.1h-1c-.4.1-.6.2-.6.1z"/></g><g><path fill="#D28537" d="M42.9 19s-.2 0-.5-.1h-1c-.2 0-.4.1-.5.1-.2.1-.3.1-.4.1l-.4.2s.1-.2.3-.4c.1-.1.3-.2.5-.2s.4-.1.6 0c.7-.1 1.4.2 1.4.3z"/></g><g><path fill="#2A3757" d="M43.9 20.3s-.2.2-.5.4l-.6.3c-.2.1-.5.1-.7.1h-.8c-.2 0-.5-.1-.6-.2-.3-.2-.5-.3-.5-.3s.3 0 .6.1c.2.1.4.1.6.1.2.1.4.1.7.1.2 0 .5 0 .7-.1.1 0 .2-.1.3-.1.1 0 .2-.1.3-.1.3-.2.5-.4.5-.3z"/></g><g><path fill="#2A3757" d="M46.2 20.2s.1.1.4.2c.1.1.3.1.4.1.2 0 .3.1.5.1s.3 0 .5-.1h.9s-.1.1-.4.3c-.1.1-.3.1-.5.1h-.6c-.2 0-.4-.1-.5-.1-.2-.1-.3-.1-.4-.2-.2-.2-.3-.3-.3-.4z"/></g><g><path fill="#2A3757" d="M45.6 19.7V21c0 .4.1.8.2 1.3.1.2.2.5.2.7.1.2.2.4.4.7.1.1.1.3.1.4l-.1.2c0 .1-.1.1-.1.2-.2.2-.5.3-.7.4-.3 0-.5.1-.7 0-.2 0-.5-.1-.6-.2-.2-.1-.3-.2-.4-.4-.1-.1-.1-.3-.2-.4v-.4s0 .1.1.3c.1.1.1.2.2.3.1.1.2.2.4.3.2.1.3.1.5.1h.6c.2 0 .4-.1.6-.3.1-.2.2-.3.1-.5s-.2-.5-.3-.7c-.1-.3-.2-.5-.2-.7-.1-.5-.1-.9-.1-1.3-.2-.8-.1-1.3 0-1.3z"/></g><g><path fill="#2A3757" d="M42.6 26.2s1-.1 2.1-.1c.5 0 1-.1 1.4 0 .4 0 .7.1.7.1s-.3.1-.7.1c-.4.1-.9 0-1.4 0-1 0-2.1-.1-2.1-.1z"/></g><g><path fill="#2A3757" d="M44.2 27.1s.4-.1.7-.1c.2 0 .4-.1.5 0 .1 0 .2.1.2.1s-.1.1-.2.1c-.1.1-.3 0-.5 0-.3 0-.7 0-.7-.1z"/></g><path fill="#AA292E" d="m24.9 85.2-3.9 5s7.5 5 9 5.1c1.5.1 18.7-5.2 18.7-5.2l-3.9-6.2-19.9 1.3z"/><path fill="#1F2D6C" d="M44.9 91.2s-2.1-6.8-2.7-7.3c-.6-.5-3.3.8-3.3.8s2.2 2.1 3.2 7.3l2.8-.8z"/><path fill="#AA292E" d="M14.8 40.3v25.9s3.3 4.1 9.8 4.8c-.1 0 .1-26.2-9.8-30.7z"/><rect x="33.9" y="63.4" fill="#0B050F" width="3.3" height="6.1"/><rect x="27.2" y="65.6" fill="#0B050F" width="3.3" height="6.1"/><rect x="37.2" y="65.9" fill="#AA292E" width="3.3" height="6.1"/><rect x="30.5" y="63.9" fill="#AA292E" width="3.3" height="6.1"/><rect x="40.4" y="67.7" fill="#0B050F" width="3.3" height="6.1"/><rect x="43.8" y="70.1" fill="#AA292E" width="3.3" height="3.8"/><polygon fill="#AD6E2D" points="27.2 73.8 28 71.1 25.4 71"/><path fill="#0B050F" d="M23.7 70.9s1.2-17.1-8.9-30.5v-1.8s5.9 2.8 9.3 14.5c3.4 11.7 1.8 17.8 1.8 17.8h-2.2z"/><path fill="#1F2D6C" d="M25.2 70.5s.3-11.3-2.5-18c-2.8-6.7-4.7-11.3-8-13.9v-5.1s5 1 12.1 18.8c3 9.9 2.4 18.6 2.4 18.6l-4-.4z"/><ellipse fill="#AA292E" cx="26.9" cy="70.8" rx="1.9" ry=".8"/><ellipse transform="rotate(176.97 27.03 69)" fill="#AA292E" cx="27" cy="69" rx="1.9" ry=".7"/><ellipse transform="rotate(173.85 27.03 67)" fill="#AA292E" cx="27" cy="67" rx="1.8" ry=".7"/><ellipse transform="rotate(170.61 26.9 64.73)" fill="#AA292E" cx="26.9" cy="64.7" rx="1.8" ry=".7"/><ellipse transform="rotate(167.26 26.64 62.31)" fill="#AA292E" cx="26.6" cy="62.3" rx="1.8" ry=".7"/><ellipse transform="rotate(163.86 26.26 59.76)" fill="#AA292E" cx="26.3" cy="59.8" rx="1.8" ry=".7"/><ellipse transform="rotate(160.4 25.74 57.1)" fill="#AA292E" cx="25.7" cy="57.1" rx="1.8" ry=".7"/><ellipse transform="rotate(156.91 25.1 54.4)" fill="#AA292E" cx="25.1" cy="54.4" rx="1.8" ry=".7"/><ellipse transform="rotate(153.43 24.3 51.7)" fill="#AA292E" cx="24.3" cy="51.7" rx="1.8" ry=".7"/><ellipse transform="rotate(149.97 23.35 49)" fill="#AA292E" cx="23.4" cy="49" rx="1.8" ry=".7"/><ellipse transform="rotate(146.57 22.25 46.38)" fill="#AA292E" cx="22.3" cy="46.4" rx="1.8" ry=".7"/><ellipse transform="rotate(143.26 21 43.87)" fill="#AA292E" cx="21" cy="43.9" rx="1.8" ry=".7"/><ellipse transform="rotate(139.99 19.57 41.5)" fill="#AA292E" cx="19.6" cy="41.5" rx="1.8" ry=".7"/><ellipse transform="rotate(136.86 17.97 39.31)" fill="#AA292E" cx="18" cy="39.3" rx="1.9" ry=".7"/><ellipse transform="rotate(133.87 16.2 37.35)" fill="#AA292E" cx="16.2" cy="37.4" rx="1.9" ry=".8"/><rect x="34.1" y="55.9" fill="#3856C8" width="5.3" height="5.9"/><polygon fill="#BF9B4D" points="39.1 56.1 34.1 56.1 34.1 50.8"/><rect x="34" y="56.6" fill="#BF9B4D" width="5.3" height="4.3"/><polygon fill="#BF9B4D" points="39.3 61.3 34.1 61.3 34.1 62.7 39.3 65.9"/><path fill="#AA292E" d="m33.1 50.3.2 12.3-4.3 2.5s-.9-10.2-1.9-12c-1.1-1.9 6-2.8 6-2.8z"/><polygon fill="#E8EFFF" points="33 50.3 34.3 50.9 34.3 63.5 33 63.5"/><polygon fill="#0B050F" points="32.6 49.8 33.9 50.5 33.9 63.1 32.6 63.1"/><path fill="#0B050F" d="M24.1 45.5c.4 1.1 1.2 2.1 1.7 3.2.9 1.7 1.5 3.5 1.8 5.4h.1c2.7 0 4.9-1.7 5.9-4-.2-.2-.4-.5-.6-.7-.4-.4-1-.7-1.4-1-1.1-.9-2-2-3.2-2.7-.9-.5-2-.9-3-1.2-.4-.2-.9-.3-1.3-.4-.1 0-.3 0-.4.1.1.4.3.9.4 1.3z"/><path fill="#BF9B4D" d="M24.1 45.5c.4 1.1 1.2 2.1 1.7 3.2.8 1.6 1.4 3.2 1.7 4.9h.2c2.5 0 4.7-1.6 5.5-3.9-.1-.1-.2-.2-.3-.2-.4-.4-1-.7-1.4-1-1.1-.9-2-2-3.2-2.7-.9-.5-2-.9-3-1.2-.4-.2-.9-.3-1.3-.4-.1 0-.3 0-.4.1.2.3.4.8.5 1.2z"/><path fill="#3856C8" d="M25.9 48.7c.4.7.7 1.4.9 2.1.3.1.6.1 1 .1 1.7 0 3.1-1.4 3.2-3.1-.8-.8-1.6-1.6-2.6-2.2-.6-.3-1.2-.6-1.9-.8-.8.4-1.4 1-1.7 1.9.3.8.7 1.4 1.1 2z"/><polygon fill="#AA292E" points="45.6 60.3 40.4 57.3 40.2 66.9 45.6 69.9"/><rect x="39.1" y="56.7" fill="#E8EFFF" width="1.3" height="9.8"/><path fill="#C9D8F7" d="M50.5 72.9s-2.2 1.3-4.5 1.6l-.3-14s3.5 1.3 5.1 1.2l-.3 11.2z"/><polygon fill="#715C57" points="50.5 72.9 51.3 72.6 51.3 61.8 50.5 61.8"/><path fill="#0B050F" d="M51.3 72.6s1.2-.5 1.7-.9V62h-1.7v10.6z"/><rect x="39.6" y="57.2" fill="#0B050F" width="1.3" height="9.8"/><rect x="45.2" y="60.7" fill="#715C57" width=".8" height="13.7"/><path fill="#AA7941" d="M24.7 43.9c.5 0 1.1.1 1.9.4 2.6 1 5.8 3.7 9.5 8.1 4.5 5.3 8.8 7.4 11.7 8.2 3.1.9 6.5.5 6.5.5l.2.9c-.1 0-3.6.5-6.9-.5-3-.9-7.6-3-12.2-8.5-8.2-9.9-11.4-8.1-11.4-8l-.5-.7c0-.1.4-.4 1.2-.4z"/><path fill="#E8EFFF" d="M45.2 70.5s-10.7-7-11.7-7-4 2.1-4 2.1v-1.2s3.7-2.4 4.1-2.4c.5 0 11.6 7.2 11.6 7.2v1.3z"/><path fill="#BF9B4D" d="M44 73.8s-9.1-6.7-10.3-6.7c-1.3 0-5 3.3-5 3.3L44 73.8z"/><path fill="#BF9B4D" d="M45.2 71.3s-10.7-7.1-11.7-7.1-4 2.4-4 2.4v-1.2s3.7-2.4 4.1-2.4c.5 0 11.6 7 11.6 7v1.3z"/><path fill="#AA7941" d="M29.7 70s0-11.3-2.6-18.8-8.7-17.8-11.4-18.8l-.9 1c2.3 1.2 10 12.7 11.4 18.4 1.7 7.2 1.8 4.1 2.6 18.7s.9-.5.9-.5z"/><path fill="#DCE3F2" d="M38.1 71.3s-3.7-2.7-4.5-2.7c-.8 0-2.5 1.5-2.5 1.5s5.1 3.4 6.5 2.9c1.4-.4.5-1.7.5-1.7z"/><path fill="#D28537" d="M27.7 84.7S26 83 26.4 78.4c.4-4.5.8-9.1-2.5-7.7-3.3 1.4-.4 4.9 1.5 3.1 0 0 0 2.2-.3 5.2-.2 2.9 0 5.7 2.6 5.7z"/><path fill="#E8EFFF" d="M26 84s-.5-2.7 0-3.3c.5-.6 0-1.4 0-2.1 0-.7-.7-6.3 3.1-8.3 3.8-2 3.5.8 8.2 2.5 0 0 .7 10.9-2.5 11.8 0 .1-6.3.6-8.8-.6z"/><path fill="#A86B2C" d="M41.6 83.3s1.2-1 1.2-4 1.5-6 3.6-4.9c2.1 1.1 0 3.2-1.2 1.9 0 0-.1 1.4-.1 3.4 0 1.8-1.1 4-3.5 3.6z"/><path fill="#AD6E2D" d="M40.4 83.9s1.4-1.2 1.4-4.6c0-3.4.8-7 3.1-5.7 2.4 1.3 0 3.7-1.4 2.2 0 0-.2 1.7-.2 3.9.2 2.2-.9 4.5-2.9 4.2z"/><path fill="#B3712E" d="M38.9 84.3s1.4-2.4 1.4-6.1c0-3.7 1-6.4 3.6-5 2.6 1.4 0 4-1.5 2.3 0 0-.2 1.8-.2 4.2 0 2.4-1.2 4.8-3.3 4.6z"/><path fill="#B87530" d="M37.6 84.5s1-1.6 1-5.7.8-8 3.7-6.4c2.8 1.5 0 4.4-1.7 2.6 0 0-.2 2-.2 4.7 0 2.5-.4 5.1-2.8 4.8z"/><path fill="#BD7831" d="M36 84.7s1.8-1.5 1.8-5.9.1-8.8 3.1-7.1c3 1.6 0 4.7-1.8 2.8 0 0-.2 2.1-.2 5 .1 2.8-.4 5.4-2.9 5.2z"/><path fill="#D28537" d="M34.8 84.7s1.9-1.6 1.9-6.1c0-4.6.1-9.1 3.2-7.4 3.2 1.7 0 4.9-1.8 2.9 0 0-.2 2.2-.2 5.2s-.5 5.7-3.1 5.4z"/><path fill="#333333" d="M44.4 82s-7.2 4-18.8 1.4l-.7 1.7s9 3.5 20-1.3l-.5-1.8z"/><g><path fill="#D28537" d="M28.9 81.1s-.7.3-1.5.3h-.6c-.2-.1-.3-.2-.5-.2-.2-.2-.3-.4-.3-.4l.4.2c.1 0 .3.1.4.1.2 0 .3.1.5.1h1c.4-.1.6-.2.6-.1z"/></g><g><path fill="#D28537" d="M32.1 81s.2 0 .5.1h1c.2 0 .4-.1.5-.1.2-.1.3-.1.4-.1l.4-.2s-.1.2-.3.4c-.1.1-.3.2-.5.2s-.4.1-.6 0c-.7.1-1.4-.2-1.4-.3z"/></g><g><path fill="#2A3757" d="M31.1 79.7s.2-.2.5-.4l.6-.3c.2-.1.5-.1.7-.1h.8c.2 0 .5.1.6.2.3.2.5.3.5.3s-.3 0-.6-.1c-.2-.1-.4-.1-.6-.1-.2-.1-.4-.1-.7-.1-.2 0-.5 0-.7.1-.1 0-.2.1-.3.1-.1 0-.2.1-.3.1-.3.2-.5.4-.5.3z"/></g><g><path fill="#2A3757" d="M28.8 79.8s-.1-.1-.4-.2c-.1-.1-.3-.1-.4-.1-.2 0-.3-.1-.5-.1s-.3 0-.5.1h-.9s.1-.1.4-.3c.1-.1.3-.1.5-.1h.6c.2 0 .4.1.5.1.2.1.3.1.4.2.2.2.3.3.3.4z"/></g><g><path fill="#2A3757" d="M29.4 80.3V79c0-.4-.1-.8-.2-1.3-.1-.2-.2-.5-.2-.7-.1-.2-.2-.4-.4-.7-.1-.1-.1-.3-.1-.4l.1-.2c0-.1.1-.1.1-.2.2-.2.5-.3.7-.4.3 0 .5-.1.7 0 .2 0 .5.1.6.2.2.1.3.2.4.4.1.1.1.3.2.4v.4s0-.1-.1-.3c-.1-.1-.1-.2-.2-.3-.1-.1-.2-.2-.4-.3-.2-.1-.3-.1-.5-.1h-.6c-.2 0-.4.1-.6.3-.1.2-.2.3-.1.5s.2.5.3.7c.1.3.2.5.2.7.1.5.1.9.1 1.3.2.8.1 1.3 0 1.3z"/></g><g><path fill="#2A3757" d="M32.4 73.9s-1 .1-2.1.1c-.5 0-1 .1-1.4 0-.4 0-.7-.1-.7-.1s.3-.1.7-.1c.4-.1.9 0 1.4 0 1-.1 2.1 0 2.1.1z"/></g><g><path fill="#2A3757" d="M30.8 72.9s-.4.1-.7.1c-.2 0-.4.1-.5 0-.1 0-.2-.1-.2-.1s.1-.1.2-.1c.1-.1.3 0 .5 0 .3 0 .7 0 .7.1z"/></g></svg>