<svg viewBox="0 0 75 100"><rect fill="none" width="75" height="100"/><path fill="#AA292E" d="M20.6 73.6s-4.1-1.5-7.8-5.6v-5h7.8v10.6z"/><path fill="#AA292E" d="M12.8 60.5V32.3s3.5-4.5 10.6-5.2c0 .1.1 28.6-10.6 33.4z"/><rect x="33.5" y="28.7" fill="#0B050F" width="3.6" height="6.6"/><rect x="26.3" y="26.4" fill="#0B050F" width="3.6" height="6.6"/><rect x="37.2" y="26.1" fill="#AA292E" width="3.6" height="6.6"/><rect x="29.9" y="28.2" fill="#AA292E" width="3.6" height="6.6"/><rect x="40.7" y="24.1" fill="#0B050F" width="3.6" height="6.6"/><rect x="44.3" y="23.9" fill="#AA292E" width="3.6" height="4.1"/><path fill="#0B050F" d="M22.4 27.3s1.3 18.6-9.7 33.2v1.9s6.4-3 10.1-15.8c3.7-12.8 2-19.4 2-19.4h-2.4z"/><path fill="#F2F2F2" d="M24.1 27.7s.3 12.3-2.7 19.6c-3 7.3-5.1 12.4-8.7 15.1V68s9.9-9.6 13.2-20.4 2.6-20.3 2.6-20.3l-4.4.4z"/><ellipse fill="#AA292E" cx="26" cy="27.4" rx="2.1" ry=".8"/><ellipse transform="rotate(-176.98 26.1 29.3) scale(.99999)" fill="#AA292E" cx="26.1" cy="29.3" rx="2" ry=".8"/><ellipse transform="rotate(-173.88 26.1 31.5)" fill="#AA292E" cx="26.1" cy="31.5" rx="2" ry=".8"/><ellipse transform="rotate(-170.62 25.97 33.97)" fill="#AA292E" cx="26" cy="34" rx="2" ry=".8"/><ellipse transform="rotate(-167.26 25.68 36.59)" fill="#AA292E" cx="25.7" cy="36.6" rx="1.9" ry=".8"/><ellipse transform="rotate(-163.88 25.26 39.36)" fill="#AA292E" cx="25.3" cy="39.4" rx="1.9" ry=".8"/><ellipse transform="rotate(-160.41 24.71 42.26)" fill="#AA292E" cx="24.7" cy="42.2" rx="1.9" ry=".8"/><ellipse transform="rotate(-156.93 24 45.2)" fill="#AA292E" cx="24" cy="45.2" rx="1.9" ry=".8"/><ellipse transform="rotate(-153.44 23.13 48.14)" fill="#AA292E" cx="23.1" cy="48.1" rx="1.9" ry=".8"/><ellipse transform="rotate(-149.99 22.1 51.07)" fill="#AA292E" cx="22.1" cy="51.1" rx="1.9" ry=".8"/><ellipse transform="rotate(-146.57 20.9 53.92)" fill="#AA292E" cx="20.9" cy="53.9" rx="1.9" ry=".8"/><ellipse transform="rotate(-143.24 19.53 56.65)" fill="#AA292E" cx="19.5" cy="56.7" rx="2" ry=".8"/><ellipse transform="rotate(-140 17.98 59.24)" fill="#AA292E" cx="18" cy="59.2" rx="2" ry=".8"/><ellipse transform="rotate(-136.88 16.25 61.62)" fill="#AA292E" cx="16.2" cy="61.6" rx="2" ry=".8"/><ellipse transform="rotate(-133.86 14.32 63.75)" fill="#AA292E" cx="14.3" cy="63.7" rx="2.1" ry=".8"/><rect x="33.8" y="37.2" fill="#3856C8" width="5.8" height="6.4"/><polygon fill="#BF9B4D" points="39.3 43.3 33.8 43.3 33.8 49.1"/><rect x="33.7" y="38.1" fill="#BF9B4D" width="5.8" height="4.7"/><polygon fill="#BF9B4D" points="39.5 37.7 33.8 37.7 33.8 36.1 39.5 32.7"/><path fill="#AA292E" d="m32.7 49.6.2-13.4-4.7-2.7s-.9 11.1-2 13.1c-1.2 2 6.5 3 6.5 3z"/><polygon fill="#E8EFFF" points="32.6 49.7 34 49 34 35.3 32.6 35.3"/><polygon fill="#0B050F" points="32.1 50.2 33.5 49.5 33.5 35.8 32.1 35.8"/><path fill="#0B050F" d="M23 54.8c.5-1.2 1.3-2.3 1.9-3.5 1-1.9 1.7-3.8 2-5.9h.1c2.9 0 5.4 1.8 6.4 4.3-.2.2-.4.5-.7.7-.5.4-1 .7-1.6 1.1-1.2.9-2.2 2.2-3.5 3-1 .6-2.1.9-3.2 1.3-.5.2-.9.3-1.4.5-.1 0-.3 0-.4-.1 0-.4.2-.9.4-1.4z"/><path fill="#BF9B4D" d="M23 54.8c.5-1.2 1.3-2.3 1.9-3.5.9-1.7 1.5-3.5 1.9-5.4h.2c2.8 0 5.1 1.8 6 4.2l-.3.3c-.5.4-1 .7-1.6 1.1-1.2.9-2.2 2.2-3.5 3-1 .6-2.1.9-3.2 1.3-.5.2-.9.3-1.4.5-.1 0-.3 0-.4-.1 0-.4.2-.9.4-1.4z"/><path fill="#3856C8" d="M24.8 51.4c.4-.7.7-1.5 1-2.3.3-.1.7-.2 1-.2 1.9 0 3.4 1.5 3.4 3.3-.9.8-1.7 1.8-2.8 2.3-.7.4-1.3.6-2 .9a3.4 3.4 0 0 1-1.9-2c.5-.6 1-1.3 1.3-2z"/><polygon fill="#AA292E" points="46.3 38.8 40.7 42.1 40.4 31.6 46.3 28.3"/><rect x="39.3" y="32" fill="#E8EFFF" width="1.4" height="10.6"/><path fill="#C9D8F7" d="M51.7 25.1s-2.4-1.4-4.9-1.7l-.3 15.2s3.8-1.4 5.6-1.4l-.4-12.1z"/><polygon fill="#715C57" points="51.7 25.1 52.6 25.4 52.6 37.1 51.7 37.1"/><path fill="#0B050F" d="M52.6 25.4s1.3.5 1.9 1V37h-1.9V25.4z"/><path fill="#AA292E" d="M54.4 26.4s4.1 1.5 7.8 5.6v5h-7.8V26.4z"/><rect x="39.8" y="31.6" fill="#0B050F" width="1.4" height="10.6"/><rect x="45.9" y="23.4" fill="#715C57" width=".9" height="14.9"/><path fill="#AA7941" d="M23.6 56.6c.5 0 1.2-.1 2.1-.4 2.9-1.1 6.3-4.1 10.4-8.8 4.9-5.8 9.6-8.1 12.8-9 3.4-1 7.3-.8 7.3-.8l.2-.9c-.1 0-4.1-.2-7.7.8-3.3.9-8.3 3.3-13.3 9.3-9 10.8-12.5 8.8-12.5 8.8l-.5.8c-.1-.1.3.2 1.2.2z"/><path fill="#E8EFFF" d="M45.9 27.7s-11.7 7.6-12.8 7.6-4.4-2.3-4.4-2.3v1.3s4 2.7 4.5 2.7 12.7-7.9 12.7-7.9v-1.4z"/><path fill="#BF9B4D" d="M44.6 24s-9.9 7.2-11.3 7.2c-1.4 0-5.5-3.6-5.5-3.6L44.6 24z"/><path fill="#BF9B4D" d="M45.9 26.8s-11.7 7.7-12.8 7.7-4.4-2.6-4.4-2.6v1.3s4 2.6 4.5 2.6 12.7-7.6 12.7-7.6v-1.4z"/><path fill="#AA7941" d="M29 28.2s0 12.3-2.9 20.4C23.2 56.7 16 68.1 13.8 69.2l-1-1.2s5.1-4.2 12.4-20c1.9-7.8 2-4.4 2.9-20.3.9-15.9.9.5.9.5z"/><path fill="#AA292E" d="M62.2 39.5v28.2s-3.5 4.5-10.6 5.2c0-.1-.1-28.6 10.6-33.4z"/><rect x="37.8" y="64.6" fill="#0B050F" width="3.6" height="6.6"/><rect x="45.1" y="66.9" fill="#0B050F" width="3.6" height="6.6"/><rect x="34.2" y="67.3" fill="#AA292E" width="3.6" height="6.6"/><rect x="41.5" y="65.1" fill="#AA292E" width="3.6" height="6.7"/><rect x="30.7" y="69.3" fill="#0B050F" width="3.6" height="6.7"/><rect x="27" y="71.9" fill="#AA292E" width="3.6" height="4.1"/><path fill="#0B050F" d="M52.6 72.7s-1.3-18.6 9.7-33.2v-1.9s-6.4 3-10.1 15.8c-3.7 12.8-2 19.4-2 19.4h2.4z"/><path fill="#F2F2F2" d="M50.9 72.3s-.3-12.3 2.7-19.6c3-7.3 5.1-12.4 8.7-15.1V32s-5.4 1.1-13.2 20.4c-3.3 10.8-2.7 20.3-2.7 20.3l4.5-.4z"/><ellipse fill="#AA292E" cx="49" cy="72.6" rx="2.1" ry=".8"/><ellipse transform="rotate(3.02 48.9 70.67) scale(.99999)" fill="#AA292E" cx="48.9" cy="70.7" rx="2" ry=".8"/><ellipse transform="rotate(6.15 48.91 68.48)" fill="#AA292E" cx="48.9" cy="68.5" rx="2" ry=".8"/><ellipse transform="rotate(9.39 49.04 66.03)" fill="#AA292E" cx="49" cy="66" rx="2" ry=".8"/><ellipse transform="rotate(12.74 49.33 63.4)" fill="#AA292E" cx="49.3" cy="63.4" rx="1.9" ry=".8"/><ellipse transform="rotate(16.12 49.73 60.6)" fill="#AA292E" cx="49.7" cy="60.6" rx="1.9" ry=".8"/><ellipse transform="rotate(19.59 50.3 57.73)" fill="#AA292E" cx="50.3" cy="57.7" rx="1.9" ry=".8"/><ellipse transform="rotate(23.07 51 54.79)" fill="#AA292E" cx="51" cy="54.8" rx="1.9" ry=".8"/><ellipse transform="rotate(26.55 51.87 51.83)" fill="#AA292E" cx="51.9" cy="51.8" rx="1.9" ry=".8"/><ellipse transform="rotate(30.02 52.9 48.9)" fill="#AA292E" cx="52.9" cy="48.9" rx="1.9" ry=".8"/><ellipse transform="rotate(33.42 54.1 46.05)" fill="#AA292E" cx="54.1" cy="46" rx="1.9" ry=".8"/><ellipse transform="rotate(36.76 55.46 43.3)" fill="#AA292E" cx="55.5" cy="43.3" rx="2" ry=".8"/><ellipse transform="rotate(39.99 57.02 40.73)" fill="#AA292E" cx="57" cy="40.7" rx="2" ry=".8"/><ellipse transform="rotate(43.12 58.75 38.35)" fill="#AA292E" cx="58.8" cy="38.4" rx="2" ry=".8"/><ellipse transform="rotate(46.14 60.68 36.22)" fill="#AA292E" cx="60.7" cy="36.2" rx="2.1" ry=".8"/><rect x="35.5" y="56.4" fill="#3856C8" width="5.8" height="6.4"/><polygon fill="#BF9B4D" points="35.7 56.7 41.2 56.7 41.2 50.9"/><rect x="35.5" y="57.2" fill="#BF9B4D" width="5.8" height="4.7"/><polygon fill="#BF9B4D" points="35.5 62.3 41.2 62.3 41.2 63.9 35.5 67.3"/><path fill="#AA292E" d="m42.3 50.3-.2 13.4 4.7 2.7s.9-11.1 2-13.1c1.2-2-6.5-3-6.5-3z"/><polygon fill="#E8EFFF" points="42.4 50.3 41 51 41 64.7 42.4 64.7"/><polygon fill="#0B050F" points="42.9 49.8 41.5 50.5 41.5 64.2 42.9 64.2"/><path fill="#0B050F" d="M52 45.1c-.5 1.2-1.3 2.3-1.9 3.5-1 1.9-1.7 3.8-2 5.9H48a6.9 6.9 0 0 1-6.4-4.3c.2-.2.4-.5.7-.7.5-.4 1.1-.7 1.6-1.1 1.2-.9 2.2-2.2 3.5-3 1-.6 2.1-.9 3.2-1.3.5-.2.9-.3 1.4-.5.1 0 .3 0 .4.1 0 .4-.2 1-.4 1.4z"/><path fill="#BF9B4D" d="M52 45.1c-.5 1.2-1.3 2.3-1.9 3.5-.9 1.7-1.5 3.5-1.9 5.4H48c-2.8 0-5.1-1.8-6-4.3l.3-.3c.5-.4 1.1-.7 1.6-1.1 1.2-.9 2.2-2.2 3.5-3 1-.6 2.1-.9 3.2-1.3.5-.2.9-.3 1.4-.5.1 0 .3 0 .4.1 0 .5-.2 1.1-.4 1.5z"/><path fill="#3856C8" d="M50.2 48.6c-.4.8-.7 1.5-1 2.3-.3.1-.7.2-1 .2-1.9 0-3.4-1.5-3.4-3.3.9-.8 1.7-1.8 2.8-2.3.7-.4 1.3-.6 2-.9.9.4 1.6 1.1 1.9 2-.5.6-1 1.3-1.3 2z"/><polygon fill="#AA292E" points="28.7 61.2 34.3 57.9 34.6 68.4 28.7 71.7"/><rect x="34.3" y="57.3" fill="#E8EFFF" width="1.4" height="10.6"/><path fill="#C9D8F7" d="M23.3 74.9s2.4 1.4 4.9 1.7l.3-15.2s-3.8 1.4-5.6 1.4l.4 12.1z"/><polygon fill="#715C57" points="23.3 74.9 22.4 74.5 22.4 62.8 23.3 62.8"/><path fill="#0B050F" d="M22.4 74.5s-1.3-.5-1.9-1V63h1.9v11.5z"/><rect x="33.8" y="57.8" fill="#0B050F" width="1.4" height="10.6"/><rect x="28.2" y="61.7" fill="#715C57" width=".9" height="14.9"/><path fill="#AA7941" d="M51.4 43.4c-.5 0-1.2.1-2.1.4-2.9 1.1-6.3 4.1-10.4 8.8-4.9 5.8-9.6 8.1-12.8 9-3.4 1-7.1.5-7.1.5l-.2.9c.1 0 3.9.5 7.5-.5 3.3-.9 8.3-3.3 13.3-9.3 9-10.8 12.5-8.8 12.5-8.8l.5-.8c.1.1-.3-.2-1.2-.2z"/><path fill="#E8EFFF" d="M29.1 72.3s11.7-7.6 12.8-7.6 4.4 2.3 4.4 2.3v-1.3s-4-2.7-4.5-2.7-12.7 7.9-12.7 7.9v1.4z"/><path fill="#BF9B4D" d="M30.4 75.9s9.9-7.2 11.3-7.2c1.4 0 5.5 3.6 5.5 3.6l-16.8 3.6z"/><path fill="#BF9B4D" d="M29.1 73.2s11.7-7.7 12.8-7.7 4.4 2.6 4.4 2.6v-1.3s-4-2.6-4.5-2.6-12.7 7.6-12.7 7.6v1.4z"/><path fill="#AA7941" d="M46 71.8s0-12.3 2.9-20.4C51.8 43.3 58.4 32 61.3 31l1 1c-2.6 1.3-10.8 13.8-12.4 20-1.9 7.8-2 4.4-2.9 20.3-1 15.9-1-.5-1-.5z"/><path fill="#E6E6E6" d="M27.6 11.1s.6 5.8 0 7L25.8 22s2.6-.9 2.6 1.7c.1 2.7-2.1 2.5-2.9 2.5-.8 0-3.1-.9-1.6-4.6 1.5-3.7 1.8-2.2 2-4.9.2-2.7 0-5.4 0-5.4l1.7-.2z"/><path fill="#F2F2F2" d="M26.8 9.4s.6 5.8 0 7c-.6 1.2-1.8 3.8-1.8 3.8s2.6-.9 2.6 1.7c.1 2.7-2.1 2.5-2.9 2.5-.8 0-3.1-.9-1.6-4.6 1.5-3.7 1.8-2.2 2-4.9.2-2.7 0-5.4 0-5.4l1.7-.1z"/><path fill="#E6E6E6" d="M25.7 17.8s-4.5 17 5.7 17 9-13 5.8-17.6c-3.2-4.5-11.5.6-11.5.6z"/><path fill="#E8EFFF" d="M25.9 10.7s-.7 2.8-.3 3.7c.5.9 0 2.5.1 3.4.1.9 1.3 2.4 4 .6 0 0 6.9 3.7 6.9-1.1.1-4.7-.3-7.2-.3-7.2s-8.3-.9-10.4.6z"/><path fill="#666666" d="M44.5 8.6s-.6 5.8 0 7c.6 1.2 1.8 3.8 1.8 3.8s-2.6-.9-2.6 1.7c-.1 2.7 2.1 2.5 2.9 2.5.8 0 3.1-.9 1.6-4.6-1.5-3.7-1.8-2.2-2-4.9-.2-2.7 0-5.4 0-5.4l-1.7-.1z"/><path fill="#808080" d="M43.7 9.4s-.6 5.8 0 7c.6 1.2 1.8 3.8 1.8 3.8s-2.6-.9-2.6 1.7c-.1 2.7 2.1 2.5 2.9 2.5.8 0 3.1-.9 1.6-4.6-1.5-3.7-1.8-2.2-2-4.9-.2-2.7 0-5.4 0-5.4l-1.7-.1z"/><path fill="#999999" d="M42.5 10.3s-.6 5.8 0 7c.6 1.2 1.8 3.8 1.8 3.8s-2.6-.9-2.6 1.7c-.1 2.7 2.1 2.5 2.9 2.5.8 0 3.1-.9 1.6-4.6-1.5-3.7-1.8-2.2-2-4.9-.2-2.7 0-5.4 0-5.4l-1.7-.1z"/><path fill="#B3B3B3" d="M40.8 10.5s-.6 5.8 0 7c.6 1.2 1.8 3.8 1.8 3.8S40 20.4 40 23c-.1 2.7 2.1 2.5 2.9 2.5.8 0 3.1-.9 1.6-4.6-1.5-3.7-1.8-2.2-2-4.9-.2-2.7 0-5.4 0-5.4l-1.7-.1z"/><path fill="#CCCCCC" d="M39.2 10.3s-.6 5.8 0 7c.6 1.2 1.8 3.8 1.8 3.8s-2.6-.9-2.6 1.7c-.1 2.7 2.1 2.5 2.9 2.5.8 0 3.1-.9 1.6-4.6-1.5-3.7-1.8-2.2-2-4.9-.2-2.7 0-5.4 0-5.4l-1.7-.1z"/><path fill="#E6E6E6" d="M37.5 10s-.6 5.8 0 7c.6 1.2 1.8 3.8 1.8 3.8s-2.6-.9-2.6 1.7c-.1 2.7 2.1 2.5 2.9 2.5.8 0 3.1-.9 1.6-4.6s-1.8-2.2-2-4.9c-.2-2.7 0-5.4 0-5.4l-1.7-.1z"/><path fill="#F2F2F2" d="M36 9.7s-.6 5.8 0 7c.6 1.2 1.8 3.8 1.8 3.8s-2.6-.9-2.6 1.7c-.1 2.7 2.1 2.5 2.9 2.5.8 0 3.1-.9 1.6-4.6-1.5-3.7-1.8-2.2-2-4.9-.2-2.7 0-5.4 0-5.4L36 9.7z"/><path fill="#F2F2F2" d="M29.7 18.4s-2.7.2-3.7 1.9c0 0 1.5 1.4 3.6.4 0 0 2.4.9 4.6.3-.1 0-1.6-2.3-4.5-2.6z"/><path fill="#BF9B4D" d="m47.7 2.8-3.3-.7-.7 3.2c-.8-.2-1.7-.3-2.6-.5l.4-3.1-3.5-.4-.4 3.2c-1-.1-2-.1-3-.1V1.1H31v3.2c-1.1 0-2.1.1-2.9.1l-.5-3.3-3.9.7L25 9.6l.7-.1v.3l19.3.8v-.3l1 .2 1.7-7.7z"/><path fill="#0B050F" d="M25.1 11s10-1.5 21 1.1l.1-1.8s-13.8-3.2-21.4-.8l.3 1.5z"/><g><path fill="#808080" d="M28.5 13.4s-.2 0-.4-.1h-.9c-.2 0-.3.1-.5.1-.1.1-.3.1-.4.1l-.4.2s.1-.2.3-.4c.1-.1.3-.2.4-.2.2 0 .4-.1.5 0 .8 0 1.5.3 1.4.3z"/></g><g><path fill="#808080" d="M31.5 13.4s.7-.3 1.4-.3h.5c.2 0 .3.1.4.2.2.2.3.4.3.4l-.4-.2c-.1 0-.3-.1-.4-.1-.2 0-.3-.1-.5-.1h-.9c-.3.1-.4.1-.4.1z"/></g><g><path fill="#2A3757" d="M30.6 14.6s.2.1.5.3c.2.1.3.1.5.2.2 0 .4.1.6.1.2 0 .4 0 .6-.1.2 0 .4 0 .5-.1.3-.1.6-.1.6-.1s-.2.1-.5.3c-.2.1-.3.2-.6.2-.2 0-.5.1-.7 0-.2 0-.5-.1-.7-.1-.2-.1-.4-.2-.5-.3-.2-.2-.4-.4-.3-.4z"/></g><g><path fill="#2A3757" d="m28.5 14.6-.3.3c-.1.1-.2.1-.4.2-.2 0-.3.1-.5.1s-.3.1-.5 0c-.2 0-.3-.1-.4-.1-.3-.1-.4-.2-.4-.2h1.2c.3 0 .6-.1.8-.2.3 0 .4-.1.5-.1z"/></g><g><path fill="#2A3757" d="M29.1 14.1s.1.5.1 1.2c0 .4 0 .8-.1 1.2 0 .2-.1.4-.2.7l-.3.6c-.1.2-.1.3.1.5.1.1.3.2.5.3h.6c.2 0 .4 0 .5-.1.1-.1.3-.1.4-.2.1-.1.1-.2.2-.3.1-.2.1-.3.1-.3v.3c0 .1 0 .2-.1.4-.1.1-.2.3-.4.4-.2.1-.4.2-.6.2h-.7c-.2-.1-.5-.2-.7-.4-.1-.1-.2-.2-.2-.4s0-.3.1-.4l.3-.6c.1-.2.2-.4.2-.6.1-.4.2-.8.2-1.2 0-.8-.1-1.3 0-1.3z"/></g><path fill="#E6E6E6" d="M47.4 88.9s-.6-5.8 0-7c.6-1.2 1.8-3.8 1.8-3.8s-2.6.9-2.6-1.7c-.1-2.7 2.1-2.5 2.9-2.5.8 0 3.1.9 1.6 4.6-1.5 3.7-1.8 2.2-2 4.9-.2 2.7 0 5.4 0 5.4l-1.7.1z"/><path fill="#F2F2F2" d="M48.2 90.6s-.6-5.8 0-7c.6-1.2 1.8-3.8 1.8-3.8s-2.6.9-2.6-1.7c-.1-2.7 2.1-2.5 2.9-2.5.8 0 3.1.9 1.6 4.6-1.5 3.7-1.8 2.2-2 4.9-.2 2.7 0 5.4 0 5.4l-1.7.1z"/><path fill="#E6E6E6" d="M49.3 82.2s4.5-17-5.7-17-9 13-5.8 17.6c3.2 4.5 11.5-.6 11.5-.6z"/><path fill="#E8EFFF" d="M49.1 89.3s.7-2.8.3-3.7c-.5-.9 0-2.5-.1-3.4-.1-.9-1.3-2.4-4-.6 0 0-6.9-3.7-6.9 1.1-.1 4.7.3 7.2.3 7.2s8.3.9 10.4-.6z"/><path fill="#666666" d="M30.5 91.4s.6-5.8 0-7c-.6-1.2-1.8-3.8-1.8-3.8s2.6.9 2.6-1.7c.1-2.7-2.1-2.5-2.9-2.5-.8 0-3.1.9-1.6 4.6 1.5 3.7 1.8 2.2 2 4.9.2 2.7 0 5.4 0 5.4l1.7.1z"/><path fill="#808080" d="M31.3 90.6s.6-5.8 0-7c-.6-1.2-1.8-3.8-1.8-3.8s2.6.9 2.6-1.7c.1-2.7-2.1-2.5-2.9-2.5-.8 0-3.1.9-1.6 4.6 1.5 3.7 1.8 2.2 2 4.9.2 2.7 0 5.4 0 5.4l1.7.1z"/><path fill="#999999" d="M32.5 89.7s.6-5.8 0-7c-.6-1.2-1.8-3.8-1.8-3.8s2.6.9 2.6-1.7c.1-2.7-2.1-2.5-2.9-2.5-.8 0-3.1.9-1.6 4.6 1.5 3.7 1.8 2.2 2 4.9.2 2.7 0 5.4 0 5.4l1.7.1z"/><path fill="#B3B3B3" d="M34.2 89.5s.6-5.8 0-7c-.6-1.2-1.8-3.8-1.8-3.8s2.6.9 2.6-1.7c.1-2.7-2.1-2.5-2.9-2.5-.8 0-3.1.9-1.6 4.6 1.5 3.7 1.8 2.2 2 4.9.2 2.7 0 5.4 0 5.4l1.7.1z"/><path fill="#CCCCCC" d="M35.8 89.7s.6-5.8 0-7c-.6-1.2-1.8-3.8-1.8-3.8s2.6.9 2.6-1.7c.1-2.7-2.1-2.5-2.9-2.5-.8 0-3.1.9-1.6 4.6 1.5 3.7 1.8 2.2 2 4.9.2 2.7 0 5.4 0 5.4l1.7.1z"/><path fill="#E6E6E6" d="M37.5 90s.6-5.8 0-7c-.6-1.2-1.8-3.8-1.8-3.8s2.6.9 2.6-1.7c.1-2.7-2.1-2.5-2.9-2.5-.8 0-3.1.9-1.6 4.6 1.5 3.7 1.8 2.2 2 4.9.2 2.7 0 5.4 0 5.4l1.7.1z"/><path fill="#F2F2F2" d="M39 90.3s.6-5.8 0-7c-.6-1.2-1.8-3.8-1.8-3.8s2.6.9 2.6-1.7c.1-2.7-2.1-2.5-2.9-2.5-.8 0-3.1.9-1.6 4.6 1.5 3.7 1.8 2.2 2 4.9.2 2.7 0 5.4 0 5.4l1.7.1z"/><path fill="#F2F2F2" d="M45.3 81.6s2.7-.2 3.7-1.9c0 0-1.5-1.4-3.6-.4 0 0-2.4-.9-4.6-.3.1 0 1.6 2.3 4.5 2.6z"/><path fill="#BF9B4D" d="m27.3 97.2 3.3.7.7-3.2c.8.2 1.7.4 2.6.5l-.4 3.1 3.5.4.4-3.2c1 .1 2 .1 3 .1v3.2H44v-3.2c1.1 0 2.1-.1 2.9-.1l.5 3.3 3.9-.7-1.3-7.8-.7.1v-.3L30 89.4v.3l-1-.2-1.7 7.7z"/><path fill="#0B050F" d="M49.9 89s-10 1.5-21-1.1l-.1 1.8s13.8 3.2 21.4.8l-.3-1.5z"/><g><path fill="#808080" d="M46.5 86.6s.2 0 .4.1h.9c.2 0 .3-.1.5-.1.1-.1.3-.1.4-.1l.4-.2s-.1.2-.3.4c-.1.1-.3.2-.4.2-.2 0-.4.1-.5 0-.8 0-1.5-.3-1.4-.3z"/></g><g><path fill="#808080" d="M43.5 86.6s-.7.3-1.4.3h-.5c-.2 0-.3-.1-.4-.2-.2-.2-.3-.4-.3-.4l.4.2c.1 0 .3.1.4.1.2 0 .3.1.5.1h.9c.3-.1.4-.1.4-.1z"/></g><g><path fill="#2A3757" d="M44.4 85.4s-.2-.1-.5-.3c-.2-.1-.3-.1-.5-.2-.2 0-.4-.1-.6-.1-.2 0-.4 0-.6.1-.2 0-.4 0-.5.1-.3.1-.6.1-.6.1s.2-.1.5-.3c.2-.1.3-.2.6-.2.2 0 .5-.1.7 0 .2 0 .5.1.7.1.2.1.4.2.5.3.2.2.4.4.3.4z"/></g><g><path fill="#2A3757" d="m46.5 85.4.3-.3c.1-.1.2-.1.4-.2.2 0 .3-.1.5-.1s.3-.1.5 0c.2 0 .3.1.4.1l.4.2h-1.2c-.3 0-.6.1-.8.2-.3 0-.4.1-.5.1z"/></g><g><path fill="#2A3757" d="M45.9 85.9s-.1-.5-.1-1.2c0-.4 0-.8.1-1.2 0-.2.1-.4.2-.7l.3-.6c.1-.2.1-.3-.1-.5-.1-.1-.3-.2-.5-.3h-.6c-.2 0-.4 0-.5.1-.1.1-.3.1-.4.2-.1.1-.1.2-.2.3-.1.2-.1.3-.1.3V82c0-.1 0-.2.1-.4.1-.1.2-.3.4-.4.2-.1.4-.2.6-.2h.7c.2.1.5.2.7.4.1.1.2.2.2.4s0 .3-.1.4l-.3.6c-.1.2-.2.4-.2.6 0 .6-.1 1-.1 1.3-.1.7 0 1.2-.1 1.2z"/></g></svg>