<svg viewBox="0 0 75 100"><rect fill="none" width="75" height="100"/><path fill="#c42b16" d="M56.7 18.4c-1.3 0-2.6 1.4-3.5 2.4-.8-1-2.2-2.4-3.5-2.4-2.4 0-4.2 1.9-4.2 4.2 0 2.9 2.6 5.3 6.6 8.9l1.1 1.1 1.1-1.1c4-3.5 6.6-5.9 6.6-8.9 0-2.4-1.8-4.2-4.2-4.2z"/><path fill="#c42b16" d="M25.2 67.4c-1.3 0-2.6 1.4-3.5 2.4-.8-1-2.2-2.4-3.5-2.4-2.4 0-4.2 1.9-4.2 4.2 0 2.9 2.6 5.3 6.6 8.9l1.1 1.1 1.1-1.1c4-3.5 6.6-5.9 6.6-8.9a4.1 4.1 0 0 0-4.2-4.2z"/><path fill="#c42b16" d="M25.2 18.4c-1.3 0-2.6 1.4-3.5 2.4-.8-1-2.2-2.4-3.5-2.4-2.4 0-4.2 1.9-4.2 4.2 0 2.9 2.6 5.3 6.6 8.9l1.1 1.1 1.1-1.1c4-3.5 6.6-5.9 6.6-8.9.1-2.4-1.8-4.2-4.2-4.2z"/><path fill="#c42b16" d="M56.7 67.4c-1.3 0-2.6 1.4-3.5 2.4-.8-1-2.2-2.4-3.5-2.4-2.4 0-4.2 1.9-4.2 4.2 0 2.9 2.6 5.3 6.6 8.9l1.1 1.1 1.1-1.1c4-3.5 6.6-5.9 6.6-8.9 0-2.3-1.8-4.2-4.2-4.2z"/></svg>