<svg viewBox="0 0 75 100"><rect fill="none" width="75" height="100"/><rect x="32.9" y="42.6" fill="#1F2D6C" width="4.1" height="1.4"/><rect x="33.2" y="41.3" fill="#AA292E" width="4.1" height="1.4"/><rect x="33.8" y="39.9" fill="#1F2D6C" width="4.1" height="1.4"/><rect x="34.2" y="38.5" fill="#AA292E" width="4.1" height="1.4"/><rect x="34.8" y="37.1" fill="#1F2D6C" width="4.1" height="1.4"/><rect x="35.1" y="35.8" fill="#AA292E" width="4.1" height="1.4"/><rect x="35.7" y="34.4" fill="#1F2D6C" width="4.1" height="1.4"/><polygon fill="#333333" points="37.3 44.1 40.2 36.4 48 35.8 43.5 44.6"/><polygon fill="#333333" points="27.7 43.6 26.6 35.1 34.5 35.4 34.6 38.6 31.9 44.1"/><path fill="#0B050F" d="m36.6 34.9-3.5 9-2.6-.3s3.6-4.7 3-6.5c-.6-1.8-4.7-.7-4.7-.7L27 33.2l9.6 1.7z"/><path fill="#0B050F" d="m36.1 44.1 3.4-9.2 8.7-.7-1.2 2.7s-4.7-.9-6.1.2c-1.4 1.1-2.7 6.8-2.7 6.8l-2.1.2z"/><path fill="#0B050F" d="M44.5 47.4c-7.1.3-17.3-.6-17.3-.6v-3.2s10.2.9 17.3.6"/><path fill="none" stroke="#AA7941" stroke-width=".77" stroke-miterlimit="10" d="M27.1 43.6s10.2.9 17.3.6"/><path fill="none" stroke="#AA7941" stroke-width=".77" stroke-miterlimit="10" d="M27.1 46.8s10.2.9 17.3.6"/><path fill="#DCE3F2" d="m21.5 37.2 4.9-4.5s3.9 2 3.4 6-2.6 5.4-2.6 5.4l-5.7-6.9z"/><path fill="#0B050F" d="m21.5 37.2 4.4-4s3.4 1.8 3 5.3c-.4 3.5-2.3 4.8-2.3 4.8l-5.1-6.1z"/><path fill="#1F2D6C" d="m21.5 37.2 3.6-3.3s2.9 1.5 2.5 4.4c-.3 2.9-1.9 4-1.9 4l-4.2-5.1z"/><rect x="38.1" y="56" fill="#1F2D6C" width="4.1" height="1.4"/><rect x="37.7" y="57.4" fill="#AA292E" width="4.1" height="1.4"/><rect x="37.1" y="58.7" fill="#1F2D6C" width="4.1" height="1.4"/><rect x="36.8" y="60.1" fill="#AA292E" width="4.1" height="1.4"/><rect x="36.2" y="61.5" fill="#1F2D6C" width="4.1" height="1.4"/><rect x="35.8" y="62.9" fill="#AA292E" width="4.1" height="1.4"/><rect x="35.2" y="64.2" fill="#1F2D6C" width="4.1" height="1.4"/><polygon fill="#333333" points="37.7 55.9 34.8 63.6 27 64.2 31.5 55.4"/><polygon fill="#333333" points="47.3 56.4 48.4 64.9 40.5 64.6 40.4 61.4 43.1 55.9"/><path fill="#0B050F" d="m38.4 65.1 3.5-9 2.6.3s-3.6 4.7-3 6.5c.6 1.8 4.7.7 4.7.7l1.8 3.2-9.6-1.7z"/><path fill="#0B050F" d="M38.9 55.9 35.5 65l-8.7.7 1.1-2.6s4.7.9 6.1-.2c1.4-1.1 2.7-6.8 2.7-6.8l2.2-.2z"/><path fill="#0B050F" d="M30.5 52.6c7.1-.3 17.3.6 17.3.6v3.2s-10.2-.9-17.3-.6"/><path fill="none" stroke="#AA7941" stroke-width=".77" stroke-miterlimit="10" d="M47.9 56.4s-10.2-.9-17.3-.6"/><path fill="none" stroke="#AA7941" stroke-width=".77" stroke-miterlimit="10" d="M47.9 53.2s-10.2-.9-17.3-.6"/><path fill="#E8EFFF" d="M12.2 69.3c1.4.5 2.9.7 4.4.7 8.6 0 15.6-7.7 15.6-17.1 0-9.4-7-17.1-15.6-17.1-1.5 0-3 .2-4.4.7v32.8z"/><path fill="#DCE3F2" d="M12.2 68.6c1.4.5 2.9.7 4.4.7 8.3 0 15-7.3 15-16.4 0-9-6.7-16.4-15-16.4-1.5 0-3 .3-4.4.7v31.4z"/><path fill="#AA7941" d="M12.2 65c1.4.6 2.9.9 4.4.9 6.6 0 11.9-5.8 11.9-13s-5.3-13-11.9-13c-1.6 0-3.1.3-4.4.9V65z"/><path fill="#BF9B4D" d="M12.2 63.6c1.4.7 2.8 1 4.4 1 5.9 0 10.8-5.3 10.8-11.8 0-6.5-4.8-11.8-10.8-11.8-1.6 0-3.1.4-4.4 1v21.6z"/><path fill="#E8EFFF" d="M12.2 59.6c1.2 1 2.8 1.6 4.4 1.6 4.2 0 7.6-3.7 7.6-8.3 0-4.6-3.4-8.3-7.6-8.3-1.7 0-3.2.6-4.4 1.6v13.4z"/><path fill="#333333" d="M12.2 59.1c1.2 1 2.8 1.7 4.4 1.7 4 0 7.2-3.5 7.2-7.9 0-4.3-3.2-7.9-7.2-7.9-1.7 0-3.2.6-4.4 1.7v12.4z"/><path fill="#AA7941" d="M12.2 54.1c.3.2.5.3.7.5.2.2.5.4.7.6.2.2.5.4.7.6l.6.6c0-.2.1-.4.1-.7v-.1c0-.2.1-.4.1-.5v-.2c0-.1.1-.3.1-.4v-.1c0-.1 0-.1.1-.2 0-.1.1-.3.1-.4v-.1c0-.1 0-.1.1-.2 0-.1.1-.3.1-.4 0-.1.1-.2.1-.2 0-.1.1-.2.1-.4 0-.1.1-.2.1-.3 0-.1.1-.2.2-.3 0-.1.1-.2.1-.3.1-.1.1-.2.2-.3 0-.1.1-.2.1-.2 0-.1.1-.2.2-.3v-.1c0-.1.1-.2.1-.2 0-.1.1-.2.1-.2l.1-.1c0-.1.1-.1.1-.2.1-.1.1-.2.2-.3 0-.1.1-.1.1-.2 0 0 0-.1.1-.1.1-.1.1-.2.2-.3.1-.1.1-.2.2-.3.1-.1.1-.2.2-.3l.1-.1.2-.2c0-.1.1-.1.1-.2s.1-.1.1-.2c.1-.1.2-.2.2-.3l.2-.2.3-.3.2-.2.1-.1.3-.3.1-.1.2-.2.3-.3c.1-.1.2-.1.2-.2.1-.1.2-.1.2-.2.1-.1.2-.1.3-.2.1-.1.2-.1.2-.2.1-.1.2-.1.3-.2.1-.1.2-.1.2-.2.1-.1.2-.1.3-.2.1 0 .2-.1.2-.1.1-.1.2-.1.3-.2.1 0 .2-.1.2-.1.1-.1.2-.1.3-.2.1 0 .2-.1.2-.1.1-.1.2-.1.4-.2.1 0 .2-.1.2-.1.1-.1.3-.1.4-.2.1 0 .1-.1.2-.1.2-.1.4-.1.5-.2h.1c.2-.1.4-.1.6-.2h.1c.2 0 .4-.1.5-.1h.2c.2 0 .3-.1.5-.1h.2c.4-.1.8-.1 1.1-.1-2.8-4.3-7.4-7-12.6-7-1.5 0-3 .2-4.4.7v18z"/><path fill="#BF9B4D" d="M12.2 52.9c.2.5.4.9.7 1.1.6.6 1.3 1.1 1.9 1.7.8-6.6 6.5-13 13.2-13.5-3.7-5.6-15.3-9.9-15.7-.8v11.5z"/><path fill="#0B050F" d="M40.9 84.3s5.2-11.4 4.4-15.1c-.8-3.7-8.2 6.7-8.2 6.7l3.8 8.4z"/><path fill="#333333" d="M36.4 94.8s8.2-2 12-13.4c3.8-11.4 2-15.8 2-15.8l-5.7 4s.5 5.4-3.4 14.7c-3.9 9.3-4.9 8.5-4.9 8.5v2z"/><path fill="#BF9B4D" d="M31.7 93.8s8.2-2 12-13.4c3.8-11.4 2-13.4 2-13.4l-1.7.3s2.1 3.7-1.8 13c-3.9 9.3-10.5 11.5-10.5 11.5v2z"/><polygon fill="#1F2D6C" points="12.2 53.4 12.2 64.6 18 69.9 23.8 66.6"/><path fill="#0B050F" d="M25.1 66.3S12.6 51.9 12.3 51.7v2.2l10.5 12.6 2.3-.2z"/><path fill="#AA7941" d="m44.3 70.6 5.1-3.9s-14.8-5.4-32.2 1.2l4.1 5.1 23-2.4z"/><path fill="#BF9B4D" d="m43.3 71.4 5.1-3.9S34.6 62.4 17.2 69l4.1 5.1 22-2.7z"/><path fill="#DCE3F2" d="M39.7 75.9c0-.1.9-2.8 3.6-4.4 0 0-13.5-2.4-21.9 1.7 0 0 1.3 8.3 5.3 6.6 4.1-1.8 13-3.9 13-3.9z"/><path fill="#E8EFFF" d="M41.2 86.5s.3-3 0-3.5c-.3-.4-.4-.8-.3-1.5.1-.7.1-4.3-.4-5.1-.6-.8-3-5.4-4.7-5.4-1.7 0-8.7 2.8-8.8 6.6 0 0-.5-.7-1.2-.3-.7.4-.8 3.2-.8 3.2s5.7 12.5 11.4 12c0-.1 4.8-3.5 4.8-6z"/><path fill="#0B050F" d="M36.4 94.8s-6 1.6-10.6-3.3-9.7-16.8-13.6-18.1v-4.9s9.4 4.8 11.7 12.3c2.3 7.4 12.5 14 12.5 14z"/><path fill="#D28537" d="M36.4 92.2s-1.5-6.7-8.1-6.9c-1.8 1.8 4.2 6.9 4.2 6.9s1.2 1 3.9.7v-.7z"/><path fill="#333333" d="M36.4 92.8s-6.3-1.6-11.6-14.5c-8.9-14.4-12.6-13.7-12.6-13.7v3.8s6.5 5.2 10.4 12.4c4 7.2 6.6 14 13.8 14v-2z"/><path fill="#BF9B4D" d="M36.4 94.8s8.2-2 12-13.4c3.8-11.4 2-15.8 2-15.8l-1.4 1s1.9 5.5-2.1 14.8C43 90.7 36.4 92.8 36.4 92.8v2z"/><path fill="#BD7831" d="M36.4 92.2s1-4.3 4.9-5.8c0 0 1.2 7-4.9 6.4v-.6z"/><path fill="#DCE3F2" d="m53.5 62.8-4.9 4.5s-3.9-2-3.4-6 2.6-5.4 2.6-5.4l5.7 6.9z"/><path fill="#0B050F" d="m53.5 62.8-4.4 4s-3.4-1.8-3-5.3c.4-3.5 2.3-4.8 2.3-4.8l5.1 6.1z"/><path fill="#1F2D6C" d="m53.5 62.8-3.6 3.3s-2.9-1.5-2.5-4.4c.3-2.9 1.9-4 1.9-4l4.2 5.1z"/><g><path fill="#D28537" d="M41.2 83.5s-.2.1-.5.2-.7.2-1.1.3c-.4.1-.8.1-1.1-.1-.3-.1-.5-.2-.5-.2h1.6c.8-.1 1.6-.3 1.6-.2z"/></g><g><path fill="#D28537" d="M31.7 83.6s1 .2 2 .2c.3 0 .5 0 .7-.1h.6c.4 0 .6.1.6.1l-.6.3c-.2.1-.4.1-.7.1h-.8c-.5-.1-1-.1-1.4-.3-.1-.2-.4-.3-.4-.3z"/></g><g><path fill="#2A3757" d="M35.2 82.5s-.2 0-.5-.1c-.3 0-.7-.1-1.1-.1H33c-.2 0-.4 0-.5.1-.3 0-.5.1-.5.1s.2-.1.5-.2.7-.2 1.1-.2h.6c.2 0 .4.1.5.1.3.2.5.3.5.3z"/></g><g><path fill="#2A3757" d="M38.5 82.5s.1-.1.3-.2c.1 0 .2-.1.4-.1s.3-.1.5 0c.3 0 .6.1.9.2l.4.2s-.2 0-.4-.1c-.1 0-.2 0-.4-.1h-.4c-.3 0-.6 0-.8.1-.4-.1-.5 0-.5 0z"/></g><g><path fill="#E8EFFF" d="M36.7 74.9s-.7-.4-1.6 0"/><path fill="#2A3757" d="M36.7 74.9s-.1 0-.3-.1c-.2 0-.4-.1-.5 0H35s.1-.1.2-.1c.1-.1.4-.1.6-.1h.3c.1 0 .2.1.3.1.2.2.3.2.3.2z"/></g><g><path fill="#2A3757" d="M37.8 76.1s-1 .1-1.9.1c-1 0-1.9-.1-1.9-.1s1-.1 1.9-.1c.9 0 1.9.1 1.9.1z"/></g><g><path fill="#2A3757" d="M37.3 78.3s-.1-.1-.3-.2c-.1-.1-.2-.1-.3-.2-.1-.1-.3-.1-.4-.1-.1 0-.3 0-.4-.1h-.8s.1 0 .4-.1h.8c.1 0 .3.1.4.1.1.1.2.1.3.2.2.1.3.2.3.4 0-.1 0 0 0 0z"/></g><path fill="#E8EFFF" d="M62.8 30.7c-1.4-.5-2.9-.7-4.4-.7-8.6 0-15.6 7.7-15.6 17.1 0 9.4 7 17.1 15.6 17.1 1.5 0 3-.2 4.4-.7V30.7z"/><path fill="#DCE3F2" d="M62.8 31.4c-1.4-.5-2.9-.7-4.4-.7-8.3 0-15 7.3-15 16.4 0 9.1 6.7 16.4 15 16.4 1.5 0 3-.3 4.4-.7V31.4z"/><path fill="#AA7941" d="M62.8 35c-1.4-.6-2.9-.9-4.4-.9-6.6 0-11.9 5.8-11.9 13s5.3 13 11.9 13c1.6 0 3.1-.3 4.4-.9V35z"/><path fill="#BF9B4D" d="M62.8 36.4c-1.4-.7-2.8-1-4.4-1-5.9 0-10.8 5.3-10.8 11.8 0 6.5 4.8 11.8 10.8 11.8 1.6 0 3.1-.4 4.4-1V36.4z"/><path fill="#E8EFFF" d="M62.8 40.4c-1.2-1-2.8-1.6-4.4-1.6-4.2 0-7.6 3.7-7.6 8.3s3.4 8.3 7.6 8.3c1.7 0 3.2-.6 4.4-1.6V40.4z"/><path fill="#333333" d="M62.8 40.9c-1.2-1-2.8-1.7-4.4-1.7-4 0-7.2 3.5-7.2 7.9 0 4.3 3.2 7.9 7.2 7.9 1.7 0 3.2-.6 4.4-1.7V40.9z"/><path fill="#AA7941" d="M62.8 45.9c-.3-.2-.5-.3-.7-.5-.2-.2-.5-.4-.7-.6-.2-.2-.5-.4-.7-.6l-.6-.6c0 .2-.1.4-.1.7v.1c0 .2-.1.4-.1.5v.2c0 .1-.1.3-.1.4v.1c0 .1 0 .1-.1.2 0 .1-.1.3-.1.4v.1c0 .1 0 .1-.1.2 0 .1-.1.3-.1.4 0 .1-.1.2-.1.2 0 .1-.1.2-.1.4 0 .1-.1.2-.1.2 0 .1-.1.2-.2.4 0 .1-.1.2-.1.3-.1.1-.1.2-.2.3 0 .1-.1.2-.1.2 0 .1-.1.2-.2.3v.1c0 .1-.1.2-.1.2 0 .1-.1.2-.1.2l-.1.1c0 .1-.1.1-.1.2-.1.1-.1.2-.2.3 0 .1-.1.1-.1.2 0 0 0 .1-.1.1-.1.1-.1.2-.2.3-.3 0-.3.1-.4.2-.1.1-.1.2-.2.3l-.1.1-.2.2c0 .1-.1.1-.1.2s-.1.1-.1.2c-.1.1-.2.2-.2.3l-.2.2-.3.3-.2.2-.1.1-.3.3-.1.1-.2.2-.3.3c-.2-.2-.3-.1-.4-.1-.1.1-.2.1-.2.2-.1.1-.2.1-.3.2-.1.1-.2.1-.2.2-.1.1-.2.1-.3.2-.1.1-.2.1-.2.2-.1.1-.2.1-.3.2-.1 0-.2.1-.2.1-.1.1-.2.1-.3.2-.1 0-.2.1-.2.1-.1.1-.2.1-.3.2-.1 0-.2.1-.2.1-.1.1-.2.1-.4.2-.1 0-.2.1-.2.1-.1.1-.3.1-.4.2-.1 0-.1 0-.2.1-.2.1-.4.1-.5.2h-.1c-.2.1-.4.1-.6.2h-.1c-.2 0-.4.1-.5.1H48c-.2 0-.3.1-.5.1h-.2c-.4.1-.8.1-1.1.1 2.8 4.3 7.4 7 12.6 7 1.5 0 3-.2 4.4-.7V45.9z"/><path fill="#BF9B4D" d="M62.8 47.1c-.2-.5-.4-.9-.7-1.1-.6-.6-1.3-1.1-1.9-1.7-.8 6.6-6.5 13-13.2 13.5 3.7 5.6 15.3 9.9 15.7.8V47.1z"/><polygon fill="#1F2D6C" points="62.8 46.6 62.8 35.4 57 30.1 51.2 33.4"/><path fill="#0B050F" d="M49.9 33.7s12.5 14.4 12.8 14.6v-2.2L52.3 33.4l-2.4.3z"/><path fill="#0B050F" d="M34.1 15.7s-5.2 11.4-4.4 15.1c.8 3.7 8.2-6.7 8.2-6.7l-3.8-8.4z"/><path fill="#333333" d="M38.6 5.2s-8.2 2-12 13.4c-3.8 11.4-2 15.8-2 15.8l5.7-4s-.5-5.4 3.4-14.7c3.9-9.3 4.9-8.5 4.9-8.5v-2z"/><path fill="#BF9B4D" d="M43.3 6.2s-8.2 2-12 13.4c-3.8 11.4-2 13.4-2 13.4l1.7-.4s-2.1-3.7 1.8-13c3.9-9.3 10.5-11.5 10.5-11.5V6.2z"/><path fill="#AA7941" d="m30.7 29.4-5.1 3.9s14.8 5.4 32.2-1.2L53.7 27l-23 2.4z"/><path fill="#BF9B4D" d="m31.7 28.6-5.1 3.9s13.8 5.1 31.2-1.5l-4.1-5.1-22 2.7z"/><path fill="#DCE3F2" d="M35.3 24.1c0 .1-.9 2.8-3.6 4.4 0 0 13.5 2.4 21.9-1.7 0 0-1.3-8.3-5.3-6.6-4.1 1.8-13 3.9-13 3.9z"/><path fill="#E8EFFF" d="M33.8 13.5s-.3 3 0 3.5c.3.4.4.8.3 1.5-.1.7-.1 4.3.4 5.1.6.8 3 5.4 4.7 5.4 1.7 0 8.7-2.8 8.8-6.6 0 0 .5.7 1.2.3.7-.4.8-3.2.8-3.2S44.2 7 38.6 7.6c0 0-4.8 3.4-4.8 5.9z"/><path fill="#0B050F" d="M38.6 5.2s6-1.6 10.6 3.3 9.7 16.8 13.6 18.1v4.9s-9.4-4.8-11.7-12.3c-2.3-7.4-12.5-14-12.5-14z"/><path fill="#D28537" d="M38.6 7.8s1.5 6.7 8.1 6.9c1.8-1.8-4.2-6.9-4.2-6.9s-1.2-1-3.9-.7v.7z"/><path fill="#333333" d="M38.6 7.2s6.3 1.6 11.6 14.5c8.9 14.4 12.6 13.7 12.6 13.7v-3.8s-6.5-5.2-10.4-12.4c-4-7.2-6.6-14-13.8-14v2z"/><path fill="#BF9B4D" d="M38.6 5.2s-8.2 2-12 13.4c-3.8 11.4-2 15.8-2 15.8l1.5-.9s-1.9-5.5 2.1-14.8C32 9.3 38.6 7.2 38.6 7.2v-2z"/><path fill="#BD7831" d="M38.6 7.8s-1 4.3-4.9 5.8c0 0-1.2-7 4.9-6.4v.6z"/><g><path fill="#D28537" d="M33.8 16.5s.2-.1.5-.2.7-.2 1.1-.3c.4-.1.8-.1 1.1.1.3.1.5.2.5.2h-1.6c-.8.1-1.6.3-1.6.2z"/></g><g><path fill="#D28537" d="M43.3 16.4s-1-.2-2-.2c-.3 0-.5 0-.7.1H40c-.4 0-.6-.1-.6-.1l.6-.3c.2-.1.4-.1.7-.1h.8c.5.1 1 .2 1.4.3.1.2.4.3.4.3z"/></g><g><path fill="#2A3757" d="M39.8 17.5s.2 0 .5.1c.3 0 .7.1 1.1.1h.6c.2 0 .4 0 .5-.1.3 0 .5-.1.5-.1s-.2.1-.5.2-.7.2-1.1.2h-.6c-.2 0-.4-.1-.5-.1-.3-.2-.5-.3-.5-.3z"/></g><g><path fill="#2A3757" d="M36.5 17.5s-.1.1-.3.2c-.1 0-.2.1-.4.1s-.3.1-.5 0c-.3 0-.6-.1-.9-.2l-.4-.2s.2 0 .4.1c.1 0 .2 0 .4.1h.4c.3 0 .6 0 .8-.1.4.1.5 0 .5 0z"/></g><g><path fill="#E8EFFF" d="M38.3 25.1s.7.4 1.6 0"/><path fill="#2A3757" d="M38.3 25.1s.1 0 .3.1c.2 0 .4.1.5 0h.9s-.1.1-.2.1c-.1.1-.4.1-.6.1h-.3c-.1 0-.2-.1-.3-.1-.2-.2-.3-.2-.3-.2z"/></g><g><path fill="#2A3757" d="M37.2 23.9s1-.1 1.9-.1c1 0 1.9.1 1.9.1s-1 .1-1.9.1c-.9 0-1.9-.1-1.9-.1z"/></g><g><path fill="#2A3757" d="M37.7 21.7s.1.1.3.2c.1.1.2.1.3.2.1.1.3.1.4.1.1 0 .3 0 .4.1h.8s-.1 0-.4.1h-.8c-.1-.1-.3-.1-.4-.1-.1-.1-.2-.1-.3-.2-.2-.1-.3-.2-.3-.4 0 .1 0 0 0 0z"/></g></svg>