<svg viewBox="0 0 75 100"><rect fill="none" width="75" height="100"/><path d="M34.5 36.1c1.1 0 2-.6 2.6-1.2a9.8 9.8 0 0 1-1.9 4h4.6a8.67 8.67 0 0 1-1.9-4c.6.6 1.6 1.2 2.6 1.2 2.2 0 3.7-1.5 3.7-3.7 0-2.4-1.9-4-3.8-5.5-.9-.7-1.8-1.5-2.5-2.3-.1-.1-.3-.2-.5-.2s-.4.1-.5.2c-.7.8-1.6 1.6-2.5 2.3-1.9 1.5-3.8 3.1-3.8 5.5.2 2.1 1.7 3.7 3.9 3.7z"/><path d="M40.5 63.6c-.9-.7-1.8-1.5-2.5-2.3-.1-.1-.3-.2-.5-.2s-.4.1-.5.2c-.7.8-1.6 1.6-2.5 2.3-1.9 1.5-3.8 3.1-3.8 5.5 0 2.2 1.5 3.7 3.7 3.7 1.1 0 2-.6 2.6-1.2a9.8 9.8 0 0 1-1.9 4h4.6a8.67 8.67 0 0 1-1.9-4c.6.6 1.6 1.2 2.6 1.2 2.2 0 3.7-1.5 3.7-3.7.1-2.4-1.8-4-3.6-5.5z"/></svg>