<?xml version="1.0" encoding="utf-8"?>
<!-- Generator: Adobe Illustrator 17.1.0, SVG Export Plug-In . SVG Version: 6.00 Build 0)  -->
<!DOCTYPE svg PUBLIC "-//W3C//DTD SVG 1.1//EN" "http://www.w3.org/Graphics/SVG/1.1/DTD/svg11.dtd">
<svg version="1.1" id="Layer_1" xmlns="http://www.w3.org/2000/svg" xmlns:xlink="http://www.w3.org/1999/xlink" x="0px" y="0px"
	 viewBox="0 0 75 100" enable-background="new 0 0 75 100" xml:space="preserve">
<rect fill="none" width="75" height="100"/>
<path d="M26.2,23c-0.1,0-1,0.2-1.2-0.1c-0.4-0.4,0.1-0.6,0.2-1.5v0c0.1-2-1.3-3.1-2.8-3.3v0c-0.1,0-0.3,0-0.5,0v0
	c0,0,0,0,0,0c-0.1,0-0.5,0-0.5,0v0c-1.5,0.2-2.9,1.3-2.8,3.3v0c0,0.8,0.6,1.1,0.2,1.5c-0.3,0.3-1.1,0.1-1.2,0.1
	c-1.8-0.1-3.1,1.7-3.1,3.4v0c0,2.3,2.1,3.7,4.2,3.3c1.1-0.2,1.8-0.8,2.5-1.6c0.6-0.7,0.7-0.3,0.7,0.2c-0.4,2.2-1.4,3.5-3.3,4.1
	c-0.2,0.1-1,0.2-0.3,0.2h3.8h3.8c0.7,0-0.1-0.2-0.3-0.2c-1.9-0.6-2.9-1.9-3.3-4.1c-0.1-0.5,0.1-1,0.7-0.2c0.6,0.8,1.4,1.4,2.5,1.6
	c2.1,0.3,4.2-1,4.2-3.3v0C29.3,24.8,27.9,22.9,26.2,23z"/>
<path d="M57.6,23c-0.1,0-1,0.2-1.2-0.1c-0.4-0.4,0.1-0.6,0.2-1.5v0c0.1-2-1.3-3.1-2.8-3.3v0c-0.1,0-0.3,0-0.5,0v0
	c0,0,0,0,0,0c-0.1,0-0.5,0-0.5,0v0c-1.5,0.2-2.9,1.3-2.8,3.3v0c0,0.8,0.6,1.1,0.2,1.5C49.8,23.2,49,23,48.8,23
	c-1.8-0.1-3.1,1.7-3.1,3.4v0c0,2.3,2.1,3.7,4.2,3.3c1.1-0.2,1.8-0.8,2.5-1.6c0.6-0.7,0.7-0.3,0.7,0.2c-0.4,2.2-1.4,3.5-3.3,4.1
	c-0.2,0.1-1,0.2-0.3,0.2h3.8H57c0.7,0-0.1-0.2-0.3-0.2c-1.9-0.6-2.9-1.9-3.3-4.1c-0.1-0.5,0.1-1,0.7-0.2c0.6,0.8,1.4,1.4,2.5,1.6
	c2.1,0.3,4.2-1,4.2-3.3v0C60.7,24.8,59.4,22.9,57.6,23z"/>
<path d="M26.2,47.5c-0.1,0-1,0.2-1.2-0.1c-0.4-0.4,0.1-0.6,0.2-1.5v0c0.1-2-1.3-3.1-2.8-3.3v0c-0.1,0-0.3,0-0.5,0v0
	c0,0,0,0,0,0c-0.1,0-0.5,0-0.5,0v0c-1.5,0.2-2.9,1.3-2.8,3.3v0c0,0.8,0.6,1.1,0.2,1.5c-0.3,0.3-1.1,0.1-1.2,0.1
	c-1.8-0.1-3.1,1.7-3.1,3.4v0c0,2.3,2.1,3.7,4.2,3.3c1.1-0.2,1.8-0.8,2.5-1.6c0.6-0.7,0.7-0.3,0.7,0.2c-0.4,2.2-1.4,3.5-3.3,4.1
	c-0.2,0.1-1,0.2-0.3,0.2h3.8h3.8c0.7,0-0.1-0.2-0.3-0.2c-1.9-0.6-2.9-1.9-3.3-4.1c-0.1-0.5,0.1-1,0.7-0.2c0.6,0.8,1.4,1.4,2.5,1.6
	c2.1,0.3,4.2-1,4.2-3.3v0C29.3,49.3,27.9,47.4,26.2,47.5z"/>
<path d="M57.6,47.5c-0.1,0-1,0.2-1.2-0.1c-0.4-0.4,0.1-0.6,0.2-1.5v0c0.1-2-1.3-3.1-2.8-3.3v0c-0.1,0-0.3,0-0.5,0v0
	c0,0,0,0,0,0c-0.1,0-0.5,0-0.5,0v0c-1.5,0.2-2.9,1.3-2.8,3.3v0c0,0.8,0.6,1.1,0.2,1.5c-0.3,0.3-1.1,0.1-1.2,0.1
	c-1.8-0.1-3.1,1.7-3.1,3.4v0c0,2.3,2.1,3.7,4.2,3.3c1.1-0.2,1.8-0.8,2.5-1.6c0.6-0.7,0.7-0.3,0.7,0.2c-0.4,2.2-1.4,3.5-3.3,4.1
	c-0.2,0.1-1,0.2-0.3,0.2h3.8H57c0.7,0-0.1-0.2-0.3-0.2c-1.9-0.6-2.9-1.9-3.3-4.1c-0.1-0.5,0.1-1,0.7-0.2c0.6,0.8,1.4,1.4,2.5,1.6
	c2.1,0.3,4.2-1,4.2-3.3v0C60.7,49.3,59.4,47.4,57.6,47.5z"/>
<path d="M26.2,72.1c-0.1,0-1,0.2-1.2-0.1c-0.4-0.4,0.1-0.6,0.2-1.5v0c0.1-2-1.3-3.1-2.8-3.3v0c-0.1,0-0.3,0-0.5,0v0
	c0,0,0,0,0,0c-0.1,0-0.5,0-0.5,0v0c-1.5,0.2-2.9,1.3-2.8,3.3v0c0,0.8,0.6,1.1,0.2,1.5c-0.3,0.3-1.1,0.1-1.2,0.1
	c-1.8-0.1-3.1,1.7-3.1,3.4v0c0,2.3,2.1,3.7,4.2,3.3c1.1-0.2,1.8-0.8,2.5-1.6c0.6-0.7,0.7-0.3,0.7,0.2c-0.4,2.2-1.4,3.5-3.3,4.1
	c-0.2,0.1-1,0.2-0.3,0.2h3.8h3.8c0.7,0-0.1-0.2-0.3-0.2c-1.9-0.6-2.9-1.9-3.3-4.1c-0.1-0.5,0.1-1,0.7-0.2c0.6,0.8,1.4,1.4,2.5,1.6
	c2.1,0.3,4.2-1,4.2-3.3v0C29.3,73.8,27.9,71.9,26.2,72.1z"/>
<path d="M57.6,72.1c-0.1,0-1,0.2-1.2-0.1c-0.4-0.4,0.1-0.6,0.2-1.5v0c0.1-2-1.3-3.1-2.8-3.3v0c-0.1,0-0.3,0-0.5,0v0
	c0,0,0,0,0,0c-0.1,0-0.5,0-0.5,0v0c-1.5,0.2-2.9,1.3-2.8,3.3v0c0,0.8,0.6,1.1,0.2,1.5c-0.3,0.3-1.1,0.1-1.2,0.1
	c-1.8-0.1-3.1,1.7-3.1,3.4v0c0,2.3,2.1,3.7,4.2,3.3c1.1-0.2,1.8-0.8,2.5-1.6c0.6-0.7,0.7-0.3,0.7,0.2c-0.4,2.2-1.4,3.5-3.3,4.1
	c-0.2,0.1-1,0.2-0.3,0.2h3.8H57c0.7,0-0.1-0.2-0.3-0.2c-1.9-0.6-2.9-1.9-3.3-4.1c-0.1-0.5,0.1-1,0.7-0.2c0.6,0.8,1.4,1.4,2.5,1.6
	c2.1,0.3,4.2-1,4.2-3.3v0C60.7,73.8,59.4,71.9,57.6,72.1z"/>
<path d="M41.9,34.1c-0.1,0-1,0.2-1.2-0.1c-0.4-0.4,0.1-0.6,0.2-1.5v0c0.1-2-1.3-3.1-2.8-3.2v0c-0.1,0-0.3,0-0.5,0v0
	c0,0,0,0,0,0c-0.1,0-0.5,0-0.5,0v0c-1.5,0.2-2.9,1.3-2.8,3.2v0c0,0.8,0.6,1.1,0.2,1.5c-0.3,0.3-1.1,0.1-1.2,0.1
	C31.4,34,30,35.9,30,37.5v0c0,2.3,2.1,3.7,4.2,3.3c1.1-0.2,1.8-0.8,2.5-1.6c0.6-0.7,0.7-0.3,0.7,0.2c-0.4,2.2-1.4,3.5-3.3,4.1
	c-0.2,0.1-1,0.2-0.3,0.2h3.8h3.8c0.7,0-0.1-0.2-0.3-0.2c-1.9-0.6-2.9-1.9-3.3-4.1c-0.1-0.5,0.1-1,0.7-0.2c0.6,0.8,1.4,1.4,2.5,1.6
	c2.1,0.3,4.2-1,4.2-3.3v0C45.1,35.9,43.7,34,41.9,34.1z"/>
<path d="M41.9,60.1c-0.1,0-1,0.2-1.2-0.1c-0.4-0.4,0.1-0.6,0.2-1.5v0c0.1-2-1.3-3.1-2.8-3.3v0c-0.1,0-0.3,0-0.5,0v0
	c0,0,0,0,0,0c-0.1,0-0.5,0-0.5,0v0c-1.5,0.2-2.9,1.3-2.8,3.3v0c0,0.8,0.6,1.1,0.2,1.5c-0.3,0.3-1.1,0.1-1.2,0.1
	C31.4,60,30,61.9,30,63.6v0c0,2.3,2.1,3.7,4.2,3.3c1.1-0.2,1.8-0.8,2.5-1.6c0.6-0.7,0.7-0.3,0.7,0.2c-0.4,2.2-1.4,3.5-3.3,4.1
	c-0.2,0.1-1,0.2-0.3,0.2h3.8h3.8c0.7,0-0.1-0.2-0.3-0.2c-1.9-0.6-2.9-1.9-3.3-4.1c-0.1-0.5,0.1-1,0.7-0.2c0.6,0.8,1.4,1.4,2.5,1.6
	c2.1,0.3,4.2-1,4.2-3.3v0C45.1,61.9,43.7,60,41.9,60.1z"/>
</svg>
