<?xml version="1.0" encoding="utf-8"?>
<!-- Generator: Adobe Illustrator 17.1.0, SVG Export Plug-In . SVG Version: 6.00 Build 0)  -->
<!DOCTYPE svg PUBLIC "-//W3C//DTD SVG 1.1//EN" "http://www.w3.org/Graphics/SVG/1.1/DTD/svg11.dtd">
<svg version="1.1" id="Layer_1" xmlns="http://www.w3.org/2000/svg" xmlns:xlink="http://www.w3.org/1999/xlink" x="0px" y="0px"
	 viewBox="0 0 75 100" enable-background="new 0 0 75 100" xml:space="preserve">
<rect fill="none" width="75" height="100"/>
<path d="M26.2,18.7c-0.1,0-1,0.2-1.2-0.1c-0.4-0.4,0.1-0.6,0.2-1.5v0c0.1-2-1.3-3.1-2.8-3.3v0c-0.1,0-0.3,0-0.5,0v0
	c0,0,0,0,0,0c-0.1,0-0.5,0-0.5,0v0c-1.5,0.2-2.9,1.3-2.8,3.3v0c0,0.8,0.6,1.1,0.2,1.5c-0.3,0.3-1.1,0.1-1.2,0.1
	c-1.8-0.1-3.1,1.7-3.1,3.4v0c0,2.3,2.1,3.7,4.2,3.3c1.1-0.2,1.8-0.8,2.5-1.6c0.6-0.7,0.7-0.3,0.7,0.2c-0.4,2.2-1.4,3.5-3.3,4.1
	c-0.2,0.1-1,0.2-0.3,0.2h3.8h3.8c0.7,0-0.1-0.2-0.3-0.2c-1.9-0.6-2.9-1.9-3.3-4.1c-0.1-0.5,0.1-1,0.7-0.2c0.6,0.8,1.4,1.4,2.5,1.6
	c2.1,0.3,4.2-1,4.2-3.3v0C29.3,20.5,27.9,18.6,26.2,18.7z"/>
<path d="M57.6,18.7c-0.1,0-1,0.2-1.2-0.1c-0.4-0.4,0.1-0.6,0.2-1.5v0c0.1-2-1.3-3.1-2.8-3.3v0c-0.1,0-0.3,0-0.5,0v0
	c0,0,0,0,0,0c-0.1,0-0.5,0-0.5,0v0c-1.5,0.2-2.9,1.3-2.8,3.3v0c0,0.8,0.6,1.1,0.2,1.5c-0.3,0.3-1.1,0.1-1.2,0.1
	c-1.8-0.1-3.1,1.7-3.1,3.4v0c0,2.3,2.1,3.7,4.2,3.3c1.1-0.2,1.8-0.8,2.5-1.6c0.6-0.7,0.7-0.3,0.7,0.2c-0.4,2.2-1.4,3.5-3.3,4.1
	c-0.2,0.1-1,0.2-0.3,0.2h3.8H57c0.7,0-0.1-0.2-0.3-0.2c-1.9-0.6-2.9-1.9-3.3-4.1c-0.1-0.5,0.1-1,0.7-0.2c0.6,0.8,1.4,1.4,2.5,1.6
	c2.1,0.3,4.2-1,4.2-3.3v0C60.7,20.5,59.4,18.6,57.6,18.7z"/>
<path d="M41.9,28.9c-0.1,0-1,0.2-1.2-0.1c-0.4-0.4,0.1-0.6,0.2-1.5v0c0.1-2-1.3-3.1-2.8-3.3v0c-0.1,0-0.3,0-0.5,0v0
	c0,0,0,0,0,0c-0.1,0-0.5,0-0.5,0v0c-1.5,0.2-2.9,1.3-2.8,3.3v0c0,0.8,0.6,1.1,0.2,1.5c-0.3,0.3-1.1,0.1-1.2,0.1
	c-1.8-0.1-3.1,1.7-3.1,3.4v0c0,2.3,2.1,3.7,4.2,3.3c1.1-0.2,1.8-0.8,2.5-1.6c0.6-0.7,0.7-0.3,0.7,0.2c-0.4,2.2-1.4,3.5-3.3,4.1
	c-0.2,0.1-1,0.2-0.3,0.2h3.8h3.8c0.7,0-0.1-0.2-0.3-0.2c-1.9-0.6-2.9-1.9-3.3-4.1c-0.1-0.5,0.1-1,0.7-0.2c0.6,0.8,1.4,1.4,2.5,1.6
	c2.1,0.3,4.2-1,4.2-3.3v0C45.1,30.6,43.7,28.7,41.9,28.9z"/>
<path d="M26.2,37.9c-0.1,0-1,0.2-1.2-0.1c-0.4-0.4,0.1-0.6,0.2-1.5v0c0.1-2-1.3-3.1-2.8-3.3v0c-0.1,0-0.3,0-0.5,0v0
	c0,0,0,0,0,0c-0.1,0-0.5,0-0.5,0v0c-1.5,0.2-2.9,1.3-2.8,3.3v0c0,0.8,0.6,1.1,0.2,1.5c-0.3,0.3-1.1,0.1-1.2,0.1
	c-1.8-0.1-3.1,1.7-3.1,3.4v0c0,2.3,2.1,3.7,4.2,3.3c1.1-0.2,1.8-0.8,2.5-1.6c0.6-0.7,0.7-0.3,0.7,0.2c-0.4,2.2-1.4,3.5-3.3,4.1
	c-0.2,0.1-1,0.2-0.3,0.2h3.8h3.8c0.7,0-0.1-0.2-0.3-0.2c-1.9-0.6-2.9-1.9-3.3-4.1c-0.1-0.5,0.1-1,0.7-0.2c0.6,0.8,1.4,1.4,2.5,1.6
	c2.1,0.3,4.2-1,4.2-3.3v0C29.3,39.7,27.9,37.8,26.2,37.9z"/>
<path d="M57.6,37.9c-0.1,0-1,0.2-1.2-0.1c-0.4-0.4,0.1-0.6,0.2-1.5v0c0.1-2-1.3-3.1-2.8-3.3v0c-0.1,0-0.3,0-0.5,0v0
	c0,0,0,0,0,0c-0.1,0-0.5,0-0.5,0v0c-1.5,0.2-2.9,1.3-2.8,3.3v0c0,0.8,0.6,1.1,0.2,1.5c-0.3,0.3-1.1,0.1-1.2,0.1
	c-1.8-0.1-3.1,1.7-3.1,3.4v0c0,2.3,2.1,3.7,4.2,3.3c1.1-0.2,1.8-0.8,2.5-1.6c0.6-0.7,0.7-0.3,0.7,0.2c-0.4,2.2-1.4,3.5-3.3,4.1
	c-0.2,0.1-1,0.2-0.3,0.2h3.8H57c0.7,0-0.1-0.2-0.3-0.2c-1.9-0.6-2.9-1.9-3.3-4.1c-0.1-0.5,0.1-1,0.7-0.2c0.6,0.8,1.4,1.4,2.5,1.6
	c2.1,0.3,4.2-1,4.2-3.3v0C60.7,39.7,59.4,37.8,57.6,37.9z"/>
<path d="M26.2,57.1c-0.1,0-1,0.2-1.2-0.1c-0.4-0.4,0.1-0.6,0.2-1.5v0c0.1-2-1.3-3.1-2.8-3.3v0c-0.1,0-0.3,0-0.5,0v0
	c0,0,0,0,0,0c-0.1,0-0.5,0-0.5,0v0c-1.5,0.2-2.9,1.3-2.8,3.3v0c0,0.8,0.6,1.1,0.2,1.5c-0.3,0.3-1.1,0.1-1.2,0.1
	c-1.8-0.1-3.1,1.7-3.1,3.4v0c0,2.3,2.1,3.7,4.2,3.3c1.1-0.2,1.8-0.8,2.5-1.6c0.6-0.7,0.7-0.3,0.7,0.2c-0.4,2.2-1.4,3.5-3.3,4.1
	c-0.2,0.1-1,0.2-0.3,0.2h3.8h3.8c0.7,0-0.1-0.2-0.3-0.2c-1.9-0.6-2.9-1.9-3.3-4.1c-0.1-0.5,0.1-1,0.7-0.2c0.6,0.8,1.4,1.4,2.5,1.6
	c2.1,0.3,4.2-1,4.2-3.3v0C29.3,58.9,27.9,57,26.2,57.1z"/>
<path d="M57.6,57.1c-0.1,0-1,0.2-1.2-0.1c-0.4-0.4,0.1-0.6,0.2-1.5v0c0.1-2-1.3-3.1-2.8-3.3v0c-0.1,0-0.3,0-0.5,0v0
	c0,0,0,0,0,0c-0.1,0-0.5,0-0.5,0v0c-1.5,0.2-2.9,1.3-2.8,3.3v0c0,0.8,0.6,1.1,0.2,1.5c-0.3,0.3-1.1,0.1-1.2,0.1
	c-1.8-0.1-3.1,1.7-3.1,3.4v0c0,2.3,2.1,3.7,4.2,3.3c1.1-0.2,1.8-0.8,2.5-1.6c0.6-0.7,0.7-0.3,0.7,0.2c-0.4,2.2-1.4,3.5-3.3,4.1
	c-0.2,0.1-1,0.2-0.3,0.2h3.8H57c0.7,0-0.1-0.2-0.3-0.2c-1.9-0.6-2.9-1.9-3.3-4.1c-0.1-0.5,0.1-1,0.7-0.2c0.6,0.8,1.4,1.4,2.5,1.6
	c2.1,0.3,4.2-1,4.2-3.3v0C60.7,58.9,59.4,57,57.6,57.1z"/>
<path d="M26.2,76.3c-0.1,0-1,0.2-1.2-0.1c-0.4-0.4,0.1-0.6,0.2-1.5v0c0.1-2-1.3-3.1-2.8-3.3v0c-0.1,0-0.3,0-0.5,0v0
	c0,0,0,0,0,0c-0.1,0-0.5,0-0.5,0v0c-1.5,0.2-2.9,1.3-2.8,3.3v0c0,0.8,0.6,1.1,0.2,1.5c-0.3,0.3-1.1,0.1-1.2,0.1
	c-1.8-0.1-3.1,1.7-3.1,3.4v0c0,2.3,2.1,3.7,4.2,3.3c1.1-0.2,1.8-0.8,2.5-1.6c0.6-0.7,0.7-0.3,0.7,0.2c-0.4,2.2-1.4,3.5-3.3,4.1
	c-0.2,0.1-1,0.2-0.3,0.2h3.8h3.8c0.7,0-0.1-0.2-0.3-0.2c-1.9-0.6-2.9-1.9-3.3-4.1c-0.1-0.5,0.1-1,0.7-0.2c0.6,0.8,1.4,1.4,2.5,1.6
	c2.1,0.3,4.2-1,4.2-3.3v0C29.3,78.1,27.9,76.2,26.2,76.3z"/>
<path d="M57.6,76.3c-0.1,0-1,0.2-1.2-0.1c-0.4-0.4,0.1-0.6,0.2-1.5v0c0.1-2-1.3-3.1-2.8-3.3v0c-0.1,0-0.3,0-0.5,0v0
	c0,0,0,0,0,0c-0.1,0-0.5,0-0.5,0v0c-1.5,0.2-2.9,1.3-2.8,3.3v0c0,0.8,0.6,1.1,0.2,1.5c-0.3,0.3-1.1,0.1-1.2,0.1
	c-1.8-0.1-3.1,1.7-3.1,3.4v0c0,2.3,2.1,3.7,4.2,3.3c1.1-0.2,1.8-0.8,2.5-1.6c0.6-0.7,0.7-0.3,0.7,0.2c-0.4,2.2-1.4,3.5-3.3,4.1
	c-0.2,0.1-1,0.2-0.3,0.2h3.8H57c0.7,0-0.1-0.2-0.3-0.2c-1.9-0.6-2.9-1.9-3.3-4.1c-0.1-0.5,0.1-1,0.7-0.2c0.6,0.8,1.4,1.4,2.5,1.6
	c2.1,0.3,4.2-1,4.2-3.3v0C60.7,78.1,59.4,76.2,57.6,76.3z"/>
<path d="M41.9,67.2c-0.1,0-1,0.2-1.2-0.1c-0.4-0.4,0.1-0.6,0.2-1.5v0c0.1-2-1.3-3.1-2.8-3.3v0c-0.1,0-0.3,0-0.5,0v0
	c0,0,0,0,0,0c-0.1,0-0.5,0-0.5,0v0c-1.5,0.2-2.9,1.3-2.8,3.3v0c0,0.8,0.6,1.1,0.2,1.5c-0.3,0.3-1.1,0.1-1.2,0.1
	C31.4,67.1,30,69,30,70.7v0c0,2.3,2.1,3.7,4.2,3.3c1.1-0.2,1.8-0.8,2.5-1.6c0.6-0.7,0.7-0.3,0.7,0.2c-0.4,2.2-1.4,3.5-3.3,4.1
	c-0.2,0.1-1,0.2-0.3,0.2h3.8h3.8c0.7,0-0.1-0.2-0.3-0.2c-1.9-0.6-2.9-1.9-3.3-4.1c-0.1-0.5,0.1-1,0.7-0.2c0.6,0.8,1.4,1.4,2.5,1.6
	c2.1,0.3,4.2-1,4.2-3.3v0C45.1,69,43.7,67.1,41.9,67.2z"/>
</svg>
