<?xml version="1.0" encoding="utf-8"?>
<!-- Generator: Adobe Illustrator 17.1.0, SVG Export Plug-In . SVG Version: 6.00 Build 0)  -->
<!DOCTYPE svg PUBLIC "-//W3C//DTD SVG 1.1//EN" "http://www.w3.org/Graphics/SVG/1.1/DTD/svg11.dtd">
<svg version="1.1" id="Layer_1" xmlns="http://www.w3.org/2000/svg" xmlns:xlink="http://www.w3.org/1999/xlink" x="0px" y="0px"
	 viewBox="0 0 75 100" enable-background="new 0 0 75 100" xml:space="preserve">
<rect fill="none" width="75" height="100"/>
<path d="M48.9,43.6c-0.3,0-2.5,0.5-3.2-0.2c-1-1,0.4-1.7,0.5-3.8v0c0.2-5.2-3.4-8-7.4-8.5v0c-0.2,0-0.7-0.1-1.4-0.1
	v0c0,0,0,0-0.1,0c-0.4,0-1.3,0.1-1.3,0.1v0c-4,0.5-7.6,3.3-7.4,8.5v0c0.1,2.2,1.5,2.9,0.5,3.8c-0.7,0.7-2.9,0.2-3.2,0.2
	c-4.6-0.3-8.1,4.5-8.1,8.9v0c0,1.1,0.2,2.2,0.5,3.1c1.5,4.1,5.9,6.2,10.3,5.6c2.8-0.4,4.8-2.1,6.5-4.2c1.6-1.9,1.9-0.7,1.7,0.6
	c-1,5.8-3.6,9.1-8.6,10.7c-0.5,0.2-2.6,0.6-0.7,0.6h9.8h9.9c1.9,0-0.2-0.5-0.7-0.6c-4.9-1.5-7.6-4.9-8.6-10.7
	c-0.2-1.3,0.2-2.5,1.7-0.6c1.6,2,3.7,3.7,6.4,4.2c5.4,0.8,10.8-2.6,10.8-8.7v0C57.1,48.1,53.6,43.3,48.9,43.6z"/>
</svg>
