<?xml version="1.0" encoding="utf-8"?>
<!-- Generator: Adobe Illustrator 17.1.0, SVG Export Plug-In . SVG Version: 6.00 Build 0)  -->
<!DOCTYPE svg PUBLIC "-//W3C//DTD SVG 1.1//EN" "http://www.w3.org/Graphics/SVG/1.1/DTD/svg11.dtd">
<svg version="1.1" id="Layer_1" xmlns="http://www.w3.org/2000/svg" xmlns:xlink="http://www.w3.org/1999/xlink" x="0px" y="0px"
	 viewBox="0 0 75 100" enable-background="new 0 0 75 100" xml:space="preserve">
<rect fill="none" width="75" height="100"/>
<polygon fill="#c42b16" points="27,20.7 21.8,13.5 21.8,13.6 21.8,13.6 16.5,20.7 21.8,27.9 21.8,27.9 21.8,27.9 "/>
<polygon fill="#c42b16" points="58.5,20.7 53.2,13.5 53.2,13.6 53.2,13.6 48,20.7 53.2,27.9 53.2,27.9 53.2,27.9 "/>
<polygon fill="#c42b16" points="27,40.2 21.8,33.1 21.8,33.1 21.8,33.1 16.5,40.2 21.8,47.4 21.8,47.4 21.8,47.4 "/>
<polygon fill="#c42b16" points="58.5,40.2 53.2,33.1 53.2,33.1 53.2,33.1 48,40.2 53.2,47.4 53.2,47.4 53.2,47.4 "/>
<polygon fill="#c42b16" points="21.8,52.6 16.5,59.8 21.8,66.9 27,59.8 "/>
<polygon fill="#c42b16" points="53.2,52.6 48,59.8 53.2,66.9 58.5,59.8 "/>
<polygon fill="#c42b16" points="21.8,72.1 21.8,72.1 21.8,72.1 16.5,79.3 21.8,86.5 27,79.3 "/>
<polygon fill="#c42b16" points="53.2,72.1 53.2,72.1 53.2,72.1 48,79.3 53.2,86.5 58.5,79.3 "/>
<polygon fill="#c42b16" points="37.5,42.9 32.2,50 37.5,57.2 42.8,50 "/>
</svg>
