<?xml version="1.0" encoding="utf-8"?>
<!-- Generator: Adobe Illustrator 17.1.0, SVG Export Plug-In . SVG Version: 6.00 Build 0)  -->
<!DOCTYPE svg PUBLIC "-//W3C//DTD SVG 1.1//EN" "http://www.w3.org/Graphics/SVG/1.1/DTD/svg11.dtd">
<svg version="1.1" id="Layer_1" xmlns="http://www.w3.org/2000/svg" xmlns:xlink="http://www.w3.org/1999/xlink" x="0px" y="0px"
	 viewBox="0 0 75 100" enable-background="new 0 0 75 100" xml:space="preserve">
<rect fill="none" width="75" height="100"/>
<polygon fill="#c42b16" points="27,25.5 21.8,18.3 21.8,18.3 21.8,18.3 16.5,25.5 21.8,32.6 21.8,32.6 21.8,32.6 "/>
<polygon fill="#c42b16" points="58.5,25.5 53.2,18.3 53.2,18.3 53.2,18.3 48,25.5 53.2,32.6 53.2,32.6 53.2,32.6 "/>
<polygon fill="#c42b16" points="27,50 21.8,42.8 21.8,42.9 21.8,42.9 16.5,50 21.8,57.1 21.8,57.1 21.8,57.2 "/>
<polygon fill="#c42b16" points="58.5,50 53.2,42.8 53.2,42.9 53.2,42.9 48,50 53.2,57.1 53.2,57.1 53.2,57.2 "/>
<polygon fill="#c42b16" points="27,74.5 21.8,67.4 16.5,74.5 21.8,81.7 21.8,81.7 21.8,81.7 "/>
<polygon fill="#c42b16" points="58.5,74.5 53.2,67.4 48,74.5 53.2,81.7 53.2,81.7 53.2,81.7 "/>
</svg>
