<?xml version="1.0" encoding="utf-8"?>
<!-- Generator: Adobe Illustrator 17.1.0, SVG Export Plug-In . SVG Version: 6.00 Build 0)  -->
<!DOCTYPE svg PUBLIC "-//W3C//DTD SVG 1.1//EN" "http://www.w3.org/Graphics/SVG/1.1/DTD/svg11.dtd">
<svg version="1.1" id="Layer_1" xmlns="http://www.w3.org/2000/svg" xmlns:xlink="http://www.w3.org/1999/xlink" x="0px" y="0px"
	 viewBox="0 0 75 100" enable-background="new 0 0 75 100" xml:space="preserve">
<rect fill="none" width="75" height="100"/>
<rect x="38.1" y="42.6" fill="#1F2D6C" width="4.1" height="1.4"/>
<rect x="37.7" y="41.3" fill="#AA292E" width="4.1" height="1.4"/>
<rect x="37.1" y="39.9" fill="#1F2D6C" width="4.1" height="1.4"/>
<rect x="36.8" y="38.5" fill="#AA292E" width="4.1" height="1.4"/>
<rect x="36.2" y="37.1" fill="#1F2D6C" width="4.1" height="1.4"/>
<rect x="35.8" y="35.8" fill="#AA292E" width="4.1" height="1.4"/>
<rect x="35.2" y="34.4" fill="#1F2D6C" width="4.1" height="1.4"/>
<polygon fill="#AA292E" points="37.7,44.1 34.8,36.4 27,35.8 31.5,44.6 "/>
<polygon fill="#AA292E" points="47.3,43.6 48.4,35.1 40.5,35.4 40.4,38.6 43.1,44.1 "/>
<path fill="#0B050F" d="M38.4,34.9l3.5,9l2.6-0.3c0,0-3.6-4.7-3-6.5c0.6-1.8,4.7-0.7,4.7-0.7l1.8-3.2L38.4,34.9z"/>
<path fill="#0B050F" d="M38.9,44.1L35.5,35l-8.7-0.7l1.1,2.6c0,0,4.7-0.9,6.1,0.2c1.4,1.1,2.7,6.8,2.7,6.8L38.9,44.1z"/>
<path fill="#0B050F" d="M30.5,47.4c7.1,0.3,17.3-0.6,17.3-0.6v-3.2c0,0-10.2,0.9-17.3,0.6"/>
<path fill="none" stroke="#AA7941" stroke-width="0.7677" stroke-miterlimit="10" d="M47.9,43.6c0,0-10.2,0.9-17.3,0.6"/>
<path fill="none" stroke="#AA7941" stroke-width="0.7677" stroke-miterlimit="10" d="M47.9,46.8c0,0-10.2,0.9-17.3,0.6"/>
<path fill="#DCE3F2" d="M53.5,37.2l-4.9-4.5c0,0-3.9,2-3.4,6c0.5,4,2.6,5.4,2.6,5.4L53.5,37.2z"/>
<path fill="#0B050F" d="M53.5,37.2l-4.4-4c0,0-3.4,1.8-3,5.3c0.4,3.5,2.3,4.8,2.3,4.8L53.5,37.2z"/>
<path fill="#1F2D6C" d="M53.5,37.2l-3.6-3.3c0,0-2.9,1.5-2.5,4.4c0.3,2.9,1.9,4,1.9,4L53.5,37.2z"/>
<rect x="32.9" y="56" fill="#1F2D6C" width="4.1" height="1.4"/>
<rect x="33.2" y="57.4" fill="#AA292E" width="4.1" height="1.4"/>
<rect x="33.8" y="58.7" fill="#1F2D6C" width="4.1" height="1.4"/>
<rect x="34.2" y="60.1" fill="#AA292E" width="4.1" height="1.4"/>
<rect x="34.8" y="61.5" fill="#1F2D6C" width="4.1" height="1.4"/>
<rect x="35.1" y="62.9" fill="#AA292E" width="4.1" height="1.4"/>
<rect x="35.7" y="64.2" fill="#1F2D6C" width="4.1" height="1.4"/>
<polygon fill="#AA292E" points="37.3,55.9 40.2,63.6 48,64.2 43.5,55.4 "/>
<polygon fill="#AA292E" points="27.7,56.4 26.6,64.9 34.5,64.6 34.6,61.4 31.9,55.9 "/>
<path fill="#0B050F" d="M36.6,65.1l-3.5-9l-2.6,0.3c0,0,3.6,4.7,3,6.5c-0.6,1.8-4.7,0.7-4.7,0.7l-1.8,3.2L36.6,65.1z"/>
<path fill="#0B050F" d="M36.1,55.9l3.4,9.1l8.7,0.7L47,63.1c0,0-4.7,0.9-6.1-0.2c-1.4-1.1-2.7-6.8-2.7-6.8L36.1,55.9z"/>
<path fill="#0B050F" d="M44.5,52.6c-7.1-0.3-17.3,0.6-17.3,0.6v3.2c0,0,10.2-0.9,17.3-0.6"/>
<path fill="none" stroke="#AA7941" stroke-width="0.7677" stroke-miterlimit="10" d="M27.1,56.4c0,0,10.2-0.9,17.3-0.6"/>
<path fill="none" stroke="#AA7941" stroke-width="0.7677" stroke-miterlimit="10" d="M27.1,53.2c0,0,10.2-0.9,17.3-0.6"/>
<path fill="#E8EFFF" d="M62.8,69.3c-1.4,0.5-2.9,0.7-4.4,0.7c-8.6,0-15.6-7.7-15.6-17.1c0-9.4,7-17.1,15.6-17.1c1.5,0,3,0.2,4.4,0.7
	V69.3z"/>
<path fill="#DCE3F2" d="M62.8,68.6c-1.4,0.5-2.9,0.7-4.4,0.7c-8.3,0-15-7.3-15-16.4c0-9,6.7-16.4,15-16.4c1.5,0,3,0.3,4.4,0.7V68.6z
	"/>
<path fill="#AA7941" d="M62.8,65c-1.4,0.6-2.9,0.9-4.4,0.9c-6.6,0-11.9-5.8-11.9-13c0-7.2,5.3-13,11.9-13c1.6,0,3.1,0.3,4.4,0.9V65z
	"/>
<path fill="#BF9B4D" d="M62.8,63.6c-1.4,0.7-2.8,1-4.4,1c-5.9,0-10.8-5.3-10.8-11.8c0-6.5,4.8-11.8,10.8-11.8c1.6,0,3.1,0.4,4.4,1
	V63.6z"/>
<path fill="#E8EFFF" d="M62.8,59.6c-1.2,1-2.8,1.6-4.4,1.6c-4.2,0-7.6-3.7-7.6-8.3c0-4.6,3.4-8.3,7.6-8.3c1.7,0,3.2,0.6,4.4,1.6
	V59.6z"/>
<path fill="#AA292E" d="M62.8,59.1c-1.2,1-2.8,1.7-4.4,1.7c-4,0-7.2-3.5-7.2-7.9s3.2-7.9,7.2-7.9c1.7,0,3.2,0.6,4.4,1.7V59.1z"/>
<path fill="#AA7941" d="M62.8,54.1c-0.3,0.2-0.5,0.3-0.7,0.5l0,0c-0.2,0.2-0.5,0.4-0.7,0.6l0,0c-0.2,0.2-0.5,0.4-0.7,0.6
	c0,0,0,0,0,0c-0.2,0.2-0.4,0.4-0.6,0.6c0,0,0,0,0,0c0-0.2-0.1-0.4-0.1-0.7c0,0,0-0.1,0-0.1c0-0.2-0.1-0.4-0.1-0.5c0,0,0,0,0,0
	c0-0.1,0-0.1,0-0.2c0-0.1-0.1-0.3-0.1-0.4c0,0,0-0.1,0-0.1c0-0.1,0-0.1-0.1-0.2c0-0.1-0.1-0.3-0.1-0.4c0,0,0-0.1,0-0.1
	c0-0.1,0-0.1-0.1-0.2c0-0.1-0.1-0.3-0.1-0.4c0-0.1-0.1-0.2-0.1-0.2c0-0.1-0.1-0.2-0.1-0.4c0-0.1-0.1-0.2-0.1-0.3
	c0-0.1-0.1-0.2-0.2-0.3c0-0.1-0.1-0.2-0.1-0.3c-0.1-0.1-0.1-0.2-0.2-0.3c0-0.1-0.1-0.2-0.1-0.2c0-0.1-0.1-0.2-0.2-0.3c0,0,0,0,0-0.1
	c0-0.1-0.1-0.2-0.1-0.2c0-0.1-0.1-0.2-0.1-0.2c0,0-0.1-0.1-0.1-0.1c0-0.1-0.1-0.1-0.1-0.2c-0.1-0.1-0.1-0.2-0.2-0.3
	c0-0.1-0.1-0.1-0.1-0.2c0,0,0-0.1-0.1-0.1c-0.1-0.1-0.1-0.2-0.2-0.3C57,49.1,57,49,56.9,48.9c-0.1-0.1-0.1-0.2-0.2-0.3
	c0,0-0.1-0.1-0.1-0.1c-0.1-0.1-0.1-0.1-0.2-0.2c0-0.1-0.1-0.1-0.1-0.2c0-0.1-0.1-0.1-0.1-0.2c-0.1-0.1-0.2-0.2-0.2-0.3c0,0,0,0,0,0
	c-0.1-0.1-0.1-0.1-0.2-0.2c-0.1-0.1-0.2-0.2-0.3-0.3c-0.1-0.1-0.1-0.1-0.2-0.2c0,0-0.1-0.1-0.1-0.1c-0.1-0.1-0.2-0.2-0.3-0.3
	c0,0,0,0-0.1-0.1c-0.1-0.1-0.1-0.1-0.2-0.2c-0.1-0.1-0.2-0.2-0.3-0.3C54.1,46.1,54,46,53.9,46c-0.1-0.1-0.2-0.1-0.2-0.2
	c-0.1-0.1-0.2-0.1-0.3-0.2c-0.1-0.1-0.2-0.1-0.2-0.2c-0.1-0.1-0.2-0.1-0.3-0.2c-0.1-0.1-0.2-0.1-0.2-0.2c-0.1-0.1-0.2-0.1-0.3-0.2
	c-0.1,0-0.2-0.1-0.2-0.1c-0.1-0.1-0.2-0.1-0.3-0.2c-0.1,0-0.2-0.1-0.2-0.1c-0.1-0.1-0.2-0.1-0.3-0.2c-0.1,0-0.2-0.1-0.2-0.1
	c-0.1-0.1-0.2-0.1-0.4-0.2c-0.1,0-0.2-0.1-0.2-0.1c-0.1-0.1-0.3-0.1-0.4-0.2c-0.1,0-0.1-0.1-0.2-0.1c-0.2-0.1-0.4-0.1-0.5-0.2
	c0,0-0.1,0-0.1,0c-0.2-0.1-0.4-0.1-0.6-0.2c0,0-0.1,0-0.1,0c-0.2,0-0.4-0.1-0.5-0.1c-0.1,0-0.1,0-0.2,0c-0.2,0-0.3-0.1-0.5-0.1
	c-0.1,0-0.2,0-0.2,0c-0.4-0.1-0.8-0.1-1.1-0.1c2.8-4.3,7.4-7,12.6-7c1.5,0,3,0.2,4.4,0.7V54.1z"/>
<path fill="#BF9B4D" d="M62.8,52.9c-0.2,0.5-0.4,0.9-0.7,1.1c-0.6,0.6-1.3,1.1-1.9,1.7c-0.8-6.6-6.5-13-13.2-13.5
	c3.7-5.6,15.3-9.9,15.7-0.8V52.9z"/>
<path fill="#0B050F" d="M34.1,84.3c0,0-5.2-11.4-4.4-15.1c0.8-3.7,8.2,6.8,8.2,6.8L34.1,84.3z"/>
<path fill="#AA292E" d="M38.6,94.8c0,0-8.2-2-12-13.4c-3.8-11.4-2-15.8-2-15.8l5.7,4c0,0-0.5,5.4,3.4,14.7c3.9,9.3,4.9,8.5,4.9,8.5
	V94.8z"/>
<path fill="#BF9B4D" d="M43.3,93.8c0,0-8.2-2-12-13.4c-3.8-11.4-2-13.4-2-13.4l1.7,0.4c0,0-2.1,3.7,1.8,13
	c3.9,9.3,10.5,11.5,10.5,11.5V93.8z"/>
<polygon fill="#1F2D6C" points="62.8,53.4 62.8,64.6 57,69.9 51.2,66.6 "/>
<path fill="#0B050F" d="M49.9,66.3c0,0,12.5-14.4,12.8-14.6v2.2L52.3,66.6L49.9,66.3z"/>
<path fill="#AA7941" d="M30.7,70.6l-5.1-3.9c0,0,14.8-5.4,32.2,1.2l-4.1,5.1L30.7,70.6z"/>
<path fill="#BF9B4D" d="M31.7,71.4l-5.1-3.9c0,0,13.8-5.1,31.2,1.5l-4.1,5.1L31.7,71.4z"/>
<path fill="#DCE3F2" d="M35.3,75.9c0-0.1-0.9-2.8-3.6-4.4c0,0,13.5-2.4,21.9,1.7c0,0-1.3,8.3-5.3,6.6C44.2,78,35.3,75.9,35.3,75.9z"
	/>
<path fill="#E8EFFF" d="M33.8,86.5c0,0-0.3-3,0-3.5c0.3-0.4,0.4-0.8,0.3-1.5c-0.1-0.7-0.1-4.3,0.4-5.1c0.6-0.8,3-5.4,4.7-5.4
	c1.7,0,8.7,2.9,8.8,6.6c0,0,0.5-0.7,1.2-0.3c0.7,0.4,0.8,3.2,0.8,3.2s-5.7,12.5-11.4,12C38.6,92.4,33.8,89,33.8,86.5z"/>
<path fill="#0B050F" d="M38.6,94.8c0,0,6,1.6,10.6-3.3c4.6-4.9,9.7-16.8,13.6-18.1v-4.9c0,0-9.4,4.8-11.7,12.3
	C48.8,88.2,38.6,94.8,38.6,94.8z"/>
<path fill="#D28537" d="M38.6,92.2c0,0,1.5-6.7,8.1-6.9c1.8,1.8-4.2,6.9-4.2,6.9s-1.2,1-3.9,0.7V92.2z"/>
<path fill="#AA292E" d="M38.6,92.8c0,0,6.3-1.6,11.6-14.5c8.9-14.4,12.6-13.7,12.6-13.7v3.8c0,0-6.5,5.2-10.4,12.4
	c-4,7.2-6.6,14-13.8,14V92.8z"/>
<path fill="#BF9B4D" d="M38.6,94.8c0,0-8.2-2-12-13.4c-3.8-11.4-2-15.8-2-15.8l1.5,0.9c0,0-1.9,5.5,2.1,14.8
	c3.9,9.3,10.5,11.5,10.5,11.5V94.8z"/>
<path fill="#BD7831" d="M38.6,92.2c0,0-1-4.3-4.9-5.8c0,0-1.2,7,4.9,6.4V92.2z"/>
<path fill="#DCE3F2" d="M21.5,62.8l4.9,4.5c0,0,3.9-2,3.4-6c-0.5-4-2.6-5.4-2.6-5.4L21.5,62.8z"/>
<path fill="#0B050F" d="M21.5,62.8l4.4,4c0,0,3.4-1.8,3-5.3c-0.4-3.5-2.3-4.8-2.3-4.8L21.5,62.8z"/>
<path fill="#1F2D6C" d="M21.5,62.8l3.6,3.3c0,0,2.9-1.5,2.5-4.4c-0.3-2.9-1.9-4-1.9-4L21.5,62.8z"/>
<g>
	<path fill="#D28537" d="M33.8,83.4c0,0,0.8,0.2,1.5,0.2c0.2,0,0.4,0,0.6,0c0.2,0,0.3,0,0.5,0c0.3,0,0.5,0,0.5,0l0,0
		c0,0-0.2,0.1-0.5,0.2c-0.3,0.1-0.7,0.1-1.1,0.1c-0.4,0-0.8-0.1-1.1-0.3C33.9,83.6,33.8,83.5,33.8,83.4L33.8,83.4z"/>
</g>
<g>
	<path fill="#D28537" d="M43.3,83.6c0,0-0.2,0.1-0.6,0.2c-0.4,0.1-0.9,0.2-1.4,0.3c-0.3,0-0.5,0.1-0.8,0c-0.2,0-0.5,0-0.7-0.1
		c-0.4-0.1-0.6-0.3-0.6-0.3l0,0c0,0,0.3-0.1,0.6-0.1c0.2,0,0.4,0,0.6,0c0.2,0,0.5,0,0.7,0.1C42.3,83.8,43.3,83.6,43.3,83.6
		L43.3,83.6z"/>
</g>
<g>
	<path fill="#2A3757" d="M39.8,82.5c0,0,0.2-0.1,0.5-0.2c0.1,0,0.3-0.1,0.5-0.1c0.2,0,0.4-0.1,0.6,0c0.4,0,0.8,0.1,1.1,0.2
		c0.3,0.1,0.5,0.2,0.5,0.2s-0.2,0-0.5-0.1c-0.1,0-0.3,0-0.5-0.1c-0.2,0-0.4,0-0.6,0c-0.4,0-0.8,0-1.1,0.1
		C40,82.4,39.8,82.5,39.8,82.5z"/>
</g>
<g>
	<path fill="#2A3757" d="M36.5,82.5c0,0-0.2,0-0.4-0.1c-0.2,0-0.5-0.1-0.8-0.1c-0.2,0-0.3,0-0.4,0c-0.1,0-0.3,0-0.4,0.1
		c-0.2,0-0.4,0.1-0.4,0.1s0.1-0.1,0.4-0.2c0.2-0.1,0.5-0.2,0.9-0.2c0.2,0,0.3,0,0.5,0c0.1,0,0.3,0.1,0.4,0.1
		C36.4,82.4,36.5,82.5,36.5,82.5z"/>
</g>
<g>
	<path fill="#E8EFFF" d="M38.3,74.9c0,0,0.7-0.4,1.6,0"/>
	<path fill="#2A3757" d="M38.3,74.9c0,0,0.1-0.1,0.2-0.2c0.1,0,0.2-0.1,0.3-0.1c0.1,0,0.2,0,0.3,0c0.2,0,0.4,0.1,0.6,0.1
		c0.1,0.1,0.2,0.1,0.2,0.1s-0.1,0-0.3,0c-0.2,0-0.4-0.1-0.6,0c-0.2,0-0.4,0-0.5,0C38.4,74.9,38.3,74.9,38.3,74.9z"/>
</g>
<g>
	<path fill="#2A3757" d="M37.2,76.1c0,0,1-0.1,1.9-0.1c1,0,1.9,0.1,1.9,0.1s-1,0.1-1.9,0.1C38.2,76.2,37.2,76.1,37.2,76.1z"/>
</g>
<g>
	<path fill="#2A3757" d="M37.7,78.3C37.7,78.3,37.7,78.2,37.7,78.3c0.1-0.2,0.1-0.2,0.2-0.3c0.1-0.1,0.2-0.2,0.3-0.2
		c0.1-0.1,0.3-0.1,0.4-0.1c0.1,0,0.3,0,0.4,0c0.1,0,0.3,0,0.4,0c0.2,0,0.4,0.1,0.4,0.1s-0.1,0-0.4,0c-0.1,0-0.2,0-0.4,0
		c-0.1,0-0.3,0-0.4,0.1c-0.1,0-0.3,0-0.4,0.1c-0.1,0-0.2,0.1-0.3,0.2C37.7,78.1,37.7,78.3,37.7,78.3z"/>
</g>
<path fill="#E8EFFF" d="M12.2,30.7c1.4-0.5,2.9-0.7,4.4-0.7c8.6,0,15.6,7.7,15.6,17.1c0,9.4-7,17.1-15.6,17.1c-1.5,0-3-0.2-4.4-0.7
	V30.7z"/>
<path fill="#DCE3F2" d="M12.2,31.4c1.4-0.5,2.9-0.7,4.4-0.7c8.3,0,15,7.3,15,16.4c0,9-6.7,16.4-15,16.4c-1.5,0-3-0.3-4.4-0.7V31.4z"
	/>
<path fill="#AA7941" d="M12.2,35c1.4-0.6,2.9-0.9,4.4-0.9c6.6,0,11.9,5.8,11.9,13c0,7.2-5.3,13-11.9,13c-1.6,0-3.1-0.3-4.4-0.9V35z"
	/>
<path fill="#BF9B4D" d="M12.2,36.4c1.4-0.7,2.8-1,4.4-1c5.9,0,10.8,5.3,10.8,11.8c0,6.5-4.8,11.8-10.8,11.8c-1.6,0-3.1-0.4-4.4-1
	V36.4z"/>
<path fill="#E8EFFF" d="M12.2,40.4c1.2-1,2.8-1.6,4.4-1.6c4.2,0,7.6,3.7,7.6,8.3c0,4.6-3.4,8.3-7.6,8.3c-1.7,0-3.2-0.6-4.4-1.6V40.4
	z"/>
<path fill="#AA292E" d="M12.2,40.9c1.2-1,2.8-1.7,4.4-1.7c4,0,7.2,3.5,7.2,7.9c0,4.3-3.2,7.9-7.2,7.9c-1.7,0-3.2-0.6-4.4-1.7V40.9z"
	/>
<path fill="#AA7941" d="M12.2,45.9c0.3-0.2,0.5-0.3,0.7-0.5l0,0c0.2-0.2,0.5-0.4,0.7-0.6l0,0c0.2-0.2,0.5-0.4,0.7-0.6c0,0,0,0,0,0
	c0.2-0.2,0.4-0.4,0.6-0.6c0,0,0,0,0,0c0,0.2,0.1,0.4,0.1,0.7c0,0,0,0.1,0,0.1c0,0.2,0.1,0.4,0.1,0.5c0,0,0,0,0,0c0,0.1,0,0.1,0,0.2
	c0,0.1,0.1,0.3,0.1,0.4c0,0,0,0.1,0,0.1c0,0.1,0,0.1,0.1,0.2c0,0.1,0.1,0.3,0.1,0.4c0,0,0,0,0,0.1c0,0.1,0,0.1,0.1,0.2
	c0,0.1,0.1,0.3,0.1,0.4c0,0.1,0.1,0.2,0.1,0.2c0,0.1,0.1,0.2,0.1,0.4c0,0.1,0.1,0.2,0.1,0.3c0,0.1,0.1,0.2,0.2,0.3
	c0,0.1,0.1,0.2,0.1,0.3c0.1,0.1,0.1,0.2,0.2,0.3c0,0.1,0.1,0.2,0.1,0.2c0,0.1,0.1,0.2,0.2,0.3c0,0,0,0,0,0.1c0,0.1,0.1,0.2,0.1,0.2
	c0,0.1,0.1,0.2,0.1,0.2c0,0,0.1,0.1,0.1,0.1c0,0.1,0.1,0.1,0.1,0.2c0.1,0.1,0.1,0.2,0.2,0.3c0,0.1,0.1,0.1,0.1,0.2
	c0,0,0,0.1,0.1,0.1c0.1,0.1,0.1,0.2,0.2,0.3c0.1,0.1,0.1,0.2,0.2,0.3c0.1,0.1,0.1,0.2,0.2,0.3c0,0,0.1,0.1,0.1,0.1
	c0.1,0.1,0.1,0.1,0.2,0.2c0,0.1,0.1,0.1,0.1,0.2c0,0.1,0.1,0.1,0.1,0.2c0.1,0.1,0.2,0.2,0.2,0.3c0,0,0,0,0,0
	c0.1,0.1,0.1,0.1,0.2,0.2c0.1,0.1,0.2,0.2,0.3,0.3c0.1,0.1,0.1,0.1,0.2,0.2c0,0,0.1,0.1,0.1,0.1c0.1,0.1,0.2,0.2,0.3,0.3
	c0,0,0,0,0.1,0.1c0.1,0.1,0.1,0.1,0.2,0.2c0.1,0.1,0.2,0.2,0.3,0.3c0.1,0.1,0.2,0.1,0.2,0.2c0.1,0.1,0.2,0.1,0.2,0.2
	c0.1,0.1,0.2,0.1,0.3,0.2c0.1,0.1,0.2,0.1,0.2,0.2c0.1,0.1,0.2,0.1,0.3,0.2c0.1,0.1,0.2,0.1,0.2,0.2c0.1,0.1,0.2,0.1,0.3,0.2
	c0.1,0,0.2,0.1,0.2,0.1c0.1,0.1,0.2,0.1,0.3,0.2c0.1,0,0.2,0.1,0.2,0.1c0.1,0.1,0.2,0.1,0.3,0.2c0.1,0,0.2,0.1,0.2,0.1
	c0.1,0.1,0.2,0.1,0.4,0.2c0.1,0,0.2,0.1,0.2,0.1c0.1,0.1,0.3,0.1,0.4,0.2c0.1,0,0.1,0.1,0.2,0.1c0.2,0.1,0.4,0.1,0.5,0.2
	c0,0,0.1,0,0.1,0c0.2,0.1,0.4,0.1,0.6,0.2c0,0,0.1,0,0.1,0c0.2,0,0.4,0.1,0.5,0.1c0.1,0,0.1,0,0.2,0c0.2,0,0.3,0.1,0.5,0.1
	c0.1,0,0.2,0,0.2,0c0.4,0.1,0.8,0.1,1.1,0.1c-2.8,4.3-7.4,7-12.6,7c-1.5,0-3-0.2-4.4-0.7V45.9z"/>
<path fill="#BF9B4D" d="M12.2,47.1c0.2-0.5,0.4-0.9,0.7-1.1c0.6-0.6,1.3-1.1,1.9-1.7c0.8,6.6,6.5,13,13.2,13.5
	c-3.7,5.6-15.3,9.9-15.7,0.8V47.1z"/>
<polygon fill="#1F2D6C" points="12.2,46.6 12.2,35.4 18,30.1 23.8,33.4 "/>
<path fill="#0B050F" d="M25.1,33.7c0,0-12.5,14.4-12.8,14.6v-2.2l10.5-12.6L25.1,33.7z"/>
<path fill="#0B050F" d="M40.9,15.7c0,0,5.2,11.4,4.4,15.1c-0.8,3.7-8.2-6.7-8.2-6.7L40.9,15.7z"/>
<path fill="#AA292E" d="M36.4,5.2c0,0,8.2,2,12,13.4c3.8,11.4,2,15.8,2,15.8l-5.7-4c0,0,0.5-5.4-3.4-14.7c-3.9-9.3-4.9-8.5-4.9-8.5
	V5.2z"/>
<path fill="#BF9B4D" d="M31.7,6.2c0,0,8.2,2,12,13.4c3.8,11.4,2,13.4,2,13.4L44,32.7c0,0,2.1-3.7-1.8-13
	C38.3,10.3,31.7,8.2,31.7,8.2V6.2z"/>
<path fill="#AA7941" d="M44.3,29.4l5.1,3.9c0,0-14.8,5.4-32.2-1.2l4.1-5.1L44.3,29.4z"/>
<path fill="#BF9B4D" d="M43.3,28.6l5.1,3.9c0,0-13.8,5.1-31.2-1.5l4.1-5.1L43.3,28.6z"/>
<path fill="#DCE3F2" d="M39.7,24.1c0,0.1,0.9,2.8,3.6,4.4c0,0-13.5,2.4-21.9-1.7c0,0,1.3-8.3,5.3-6.6C30.8,22,39.7,24.1,39.7,24.1z"
	/>
<path fill="#E8EFFF" d="M41.2,13.5c0,0,0.3,3,0,3.5c-0.3,0.4-0.4,0.8-0.3,1.5c0.1,0.7,0.1,4.3-0.4,5.1c-0.6,0.8-3,5.4-4.7,5.4
	c-1.7,0-8.7-2.9-8.8-6.6c0,0-0.5,0.7-1.2,0.3c-0.7-0.4-0.8-3.2-0.8-3.2s5.7-12.5,11.4-12C36.4,7.6,41.2,11,41.2,13.5z"/>
<path fill="#0B050F" d="M36.4,5.2c0,0-6-1.6-10.6,3.3c-4.6,4.9-9.7,16.8-13.6,18.1v4.9c0,0,9.4-4.8,11.7-12.3
	C26.2,11.8,36.4,5.2,36.4,5.2z"/>
<path fill="#D28537" d="M36.4,7.8c0,0-1.5,6.7-8.1,6.9c-1.8-1.8,4.2-6.9,4.2-6.9s1.2-1,3.9-0.7V7.8z"/>
<path fill="#AA292E" d="M36.4,7.2c0,0-6.3,1.6-11.6,14.5c-8.9,14.4-12.6,13.7-12.6,13.7v-3.8c0,0,6.5-5.2,10.4-12.4
	c4-7.2,6.6-14,13.8-14V7.2z"/>
<path fill="#BF9B4D" d="M36.4,5.2c0,0,8.2,2,12,13.4c3.8,11.4,2,15.8,2,15.8L49,33.4c0,0,1.9-5.5-2.1-14.8S36.4,7.2,36.4,7.2V5.2z"
	/>
<path fill="#BD7831" d="M36.4,7.8c0,0,1,4.3,4.9,5.8c0,0,1.2-7-4.9-6.4V7.8z"/>
<g>
	<path fill="#D28537" d="M41.2,16.6c0,0-0.8-0.2-1.5-0.2c-0.2,0-0.4,0-0.6,0c-0.2,0-0.3,0-0.5,0c-0.3,0-0.5,0-0.5,0l0,0
		c0,0,0.2-0.1,0.5-0.2c0.3-0.1,0.7-0.1,1.1-0.1c0.4,0,0.8,0.1,1.1,0.3C41.1,16.4,41.2,16.5,41.2,16.6L41.2,16.6z"/>
</g>
<g>
	<path fill="#D28537" d="M31.7,16.4c0,0,0.2-0.1,0.6-0.2c0.4-0.1,0.9-0.2,1.4-0.3c0.3,0,0.5-0.1,0.8,0c0.2,0,0.5,0,0.7,0.1
		c0.4,0.1,0.6,0.3,0.6,0.3l0,0c0,0-0.3,0.1-0.6,0.1c-0.2,0-0.4,0-0.6,0c-0.2,0-0.5,0-0.7-0.1C32.7,16.2,31.7,16.4,31.7,16.4
		L31.7,16.4z"/>
</g>
<g>
	<path fill="#2A3757" d="M35.2,17.5c0,0-0.2,0.1-0.5,0.2c-0.1,0-0.3,0.1-0.5,0.1c-0.2,0-0.4,0.1-0.6,0c-0.4,0-0.8-0.1-1.1-0.2
		c-0.3-0.1-0.5-0.2-0.5-0.2s0.2,0,0.5,0.1c0.1,0,0.3,0,0.5,0.1c0.2,0,0.4,0,0.6,0c0.4,0,0.8,0,1.1-0.1C35,17.6,35.2,17.5,35.2,17.5z
		"/>
</g>
<g>
	<path fill="#2A3757" d="M38.5,17.5c0,0,0.2,0,0.4,0.1c0.2,0,0.5,0.1,0.8,0.1c0.2,0,0.3,0,0.4,0c0.1,0,0.3,0,0.4-0.1
		c0.2,0,0.4-0.1,0.4-0.1s-0.1,0.1-0.4,0.2c-0.2,0.1-0.5,0.2-0.9,0.2c-0.2,0-0.3,0-0.5,0c-0.1,0-0.3-0.1-0.4-0.1
		C38.6,17.6,38.5,17.5,38.5,17.5z"/>
</g>
<g>
	<path fill="#E8EFFF" d="M36.7,25.1c0,0-0.7,0.4-1.6,0"/>
	<path fill="#2A3757" d="M36.7,25.1c0,0-0.1,0.1-0.2,0.2c-0.1,0-0.2,0.1-0.3,0.1c-0.1,0-0.2,0-0.3,0c-0.2,0-0.4-0.1-0.6-0.1
		c-0.1-0.1-0.2-0.1-0.2-0.1s0.1,0,0.3,0c0.2,0,0.4,0.1,0.6,0c0.2,0,0.4,0,0.5,0C36.6,25.1,36.7,25.1,36.7,25.1z"/>
</g>
<g>
	<path fill="#2A3757" d="M37.8,23.9c0,0-1,0.1-1.9,0.1c-1,0-1.9-0.1-1.9-0.1s1-0.1,1.9-0.1C36.8,23.8,37.8,23.9,37.8,23.9z"/>
</g>
<g>
	<path fill="#2A3757" d="M37.3,21.7C37.3,21.7,37.3,21.8,37.3,21.7c-0.1,0.2-0.1,0.2-0.2,0.3c-0.1,0.1-0.2,0.2-0.3,0.2
		c-0.1,0.1-0.3,0.1-0.4,0.1c-0.1,0-0.3,0-0.4,0c-0.1,0-0.3,0-0.4,0c-0.2,0-0.4-0.1-0.4-0.1s0.1,0,0.4,0c0.1,0,0.2,0,0.4,0
		c0.1,0,0.3,0,0.4-0.1c0.1,0,0.3,0,0.4-0.1c0.1,0,0.2-0.1,0.3-0.2C37.3,21.9,37.3,21.7,37.3,21.7z"/>
</g>
</svg>
