<?xml version="1.0" encoding="utf-8"?>
<!-- Generator: Adobe Illustrator 17.1.0, SVG Export Plug-In . SVG Version: 6.00 Build 0)  -->
<!DOCTYPE svg PUBLIC "-//W3C//DTD SVG 1.1//EN" "http://www.w3.org/Graphics/SVG/1.1/DTD/svg11.dtd">
<svg version="1.1" id="Layer_1" xmlns="http://www.w3.org/2000/svg" xmlns:xlink="http://www.w3.org/1999/xlink" x="0px" y="0px"
	 viewBox="0 0 75 100" enable-background="new 0 0 75 100" xml:space="preserve">
<rect fill="none" width="75" height="100"/>
<path fill="#AA292E" d="M54.4,73.6c0,0,4.1-1.5,7.8-5.6v-5h-7.8V73.6z"/>
<path fill="#AA292E" d="M62.2,60.5V32.3c0,0-3.5-4.5-10.6-5.2C51.6,27.2,51.5,55.7,62.2,60.5z"/>
<rect x="37.8" y="28.7" fill="#0B050F" width="3.6" height="6.6"/>
<rect x="45.1" y="26.4" fill="#0B050F" width="3.6" height="6.6"/>
<rect x="34.2" y="26.1" fill="#AA292E" width="3.6" height="6.6"/>
<rect x="41.5" y="28.2" fill="#AA292E" width="3.6" height="6.6"/>
<rect x="30.7" y="24.1" fill="#0B050F" width="3.6" height="6.6"/>
<rect x="27" y="23.9" fill="#AA292E" width="3.6" height="4.1"/>
<path fill="#0B050F" d="M52.6,27.3c0,0-1.3,18.6,9.7,33.2c0,1.3,0,1.9,0,1.9s-6.4-3-10.1-15.8c-3.7-12.8-2-19.4-2-19.4H52.6z"/>
<path fill="#F2F2F2" d="M50.9,27.7c0,0-0.3,12.3,2.7,19.6c3,7.3,5.1,12.4,8.7,15.1V68c0,0-9.9-9.6-13.2-20.4
	c-3.3-10.8-2.6-20.3-2.6-20.3L50.9,27.7z"/>
<ellipse fill="#AA292E" cx="49" cy="27.4" rx="2.1" ry="0.8"/>
<ellipse transform="matrix(0.9986 -5.264889e-002 5.264889e-002 0.9986 -1.4745 2.6146)" fill="#AA292E" cx="48.9" cy="29.3" rx="2" ry="0.8"/>
<ellipse transform="matrix(0.9942 -0.1073 0.1073 0.9942 -3.0973 5.4267)" fill="#AA292E" cx="48.9" cy="31.5" rx="2" ry="0.8"/>
<ellipse transform="matrix(0.9866 -0.1634 0.1634 0.9866 -4.8877 8.4677)" fill="#AA292E" cx="49" cy="34" rx="2" ry="0.8"/>
<ellipse transform="matrix(0.9755 -0.2201 0.2201 0.9755 -6.8444 11.7546)" fill="#AA292E" cx="49.3" cy="36.6" rx="1.9" ry="0.8"/>
<ellipse transform="matrix(0.9607 -0.2777 0.2777 0.9607 -8.977 15.3615)" fill="#AA292E" cx="49.7" cy="39.4" rx="1.9" ry="0.8"/>
<ellipse transform="matrix(0.9421 -0.3353 0.3353 0.9421 -11.2554 19.3118)" fill="#AA292E" cx="50.3" cy="42.2" rx="1.9" ry="0.8"/>
<ellipse transform="matrix(0.92 -0.3919 0.3919 0.92 -13.6276 23.6001)" fill="#AA292E" cx="51" cy="45.2" rx="1.9" ry="0.8"/>
<ellipse transform="matrix(0.8945 -0.4471 0.4471 0.8945 -16.0509 28.2711)" fill="#AA292E" cx="51.9" cy="48.1" rx="1.9" ry="0.8"/>
<ellipse transform="matrix(0.8659 -0.5002 0.5002 0.8659 -18.4494 33.3071)" fill="#AA292E" cx="52.9" cy="51.1" rx="1.9" ry="0.8"/>
<ellipse transform="matrix(0.8348 -0.5505 0.5505 0.8348 -20.7486 38.6891)" fill="#AA292E" cx="54.1" cy="53.9" rx="1.9" ry="0.8"/>
<ellipse transform="matrix(0.8012 -0.5984 0.5984 0.8012 -22.8784 44.458)" fill="#AA292E" cx="55.5" cy="56.7" rx="2" ry="0.8"/>
<ellipse transform="matrix(0.7662 -0.6426 0.6426 0.7662 -24.736 50.4899)" fill="#AA292E" cx="57" cy="59.2" rx="2" ry="0.8"/>
<ellipse transform="matrix(0.7297 -0.6838 0.6838 0.7297 -26.25 56.8268)" fill="#AA292E" cx="58.8" cy="61.6" rx="2" ry="0.8"/>
<ellipse transform="matrix(0.6927 -0.7213 0.7213 0.6927 -27.3303 63.356)" fill="#AA292E" cx="60.7" cy="63.7" rx="2.1" ry="0.8"/>
<rect x="35.5" y="37.2" fill="#3856C8" width="5.8" height="6.4"/>
<polygon fill="#BF9B4D" points="35.7,43.3 41.2,43.3 41.2,49.1 "/>
<rect x="35.5" y="38.1" fill="#BF9B4D" width="5.8" height="4.7"/>
<polygon fill="#BF9B4D" points="35.5,37.7 41.2,37.7 41.2,36.1 35.5,32.7 "/>
<path fill="#AA292E" d="M42.3,49.6l-0.2-13.4l4.7-2.7c0,0,0.9,11.1,2.1,13.1C50,48.6,42.3,49.6,42.3,49.6z"/>
<polygon fill="#E8EFFF" points="42.4,49.7 41,49 41,35.2 42.4,35.2 "/>
<polygon fill="#0B050F" points="42.9,50.2 41.5,49.5 41.5,35.8 42.9,35.8 "/>
<path fill="#0B050F" d="M52,54.8c-0.5-1.2-1.3-2.3-1.9-3.5c-1-1.9-1.7-3.8-2-5.9c0,0-0.1,0-0.1,0c-2.9,0-5.4,1.8-6.4,4.3
	c0.2,0.2,0.4,0.5,0.7,0.7c0.5,0.4,1.1,0.7,1.6,1.1c1.2,0.9,2.2,2.2,3.5,3c1,0.6,2.1,0.9,3.2,1.3c0.5,0.2,0.9,0.3,1.4,0.5
	c0.1,0,0.3,0,0.4-0.1C52.4,55.8,52.2,55.3,52,54.8z"/>
<path fill="#BF9B4D" d="M52,54.8c-0.5-1.2-1.3-2.3-1.9-3.5c-0.9-1.7-1.5-3.5-1.9-5.4c-0.1,0-0.1,0-0.2,0c-2.8,0-5.1,1.8-6,4.3
	c0.1,0.1,0.2,0.2,0.3,0.3c0.5,0.4,1.1,0.7,1.6,1.1c1.2,0.9,2.2,2.2,3.5,3c1,0.6,2.1,0.9,3.2,1.3c0.5,0.2,0.9,0.3,1.4,0.5
	c0.1,0,0.3,0,0.4-0.1C52.4,55.8,52.2,55.3,52,54.8z"/>
<path fill="#3856C8" d="M50.2,51.4c-0.4-0.8-0.7-1.5-1-2.3c-0.3-0.1-0.7-0.2-1-0.2c-1.9,0-3.4,1.5-3.4,3.3c0.9,0.8,1.7,1.8,2.8,2.3
	c0.7,0.4,1.3,0.6,2,0.9c0.9-0.4,1.6-1.1,1.9-2C51,52.8,50.5,52.1,50.2,51.4z"/>
<polygon fill="#AA292E" points="28.7,38.8 34.3,42 34.6,31.6 28.7,28.3 "/>
<rect x="34.3" y="32" fill="#E8EFFF" width="1.4" height="10.6"/>
<path fill="#C9D8F7" d="M23.3,25.1c0,0,2.4-1.4,4.9-1.7l0.3,15.2c0,0-3.8-1.4-5.6-1.4L23.3,25.1z"/>
<polygon fill="#715C57" points="23.3,25.1 22.4,25.4 22.4,37.1 23.3,37.1 "/>
<path fill="#0B050F" d="M22.4,25.4c0,0-1.3,0.5-1.9,1V37h1.9V25.4z"/>
<path fill="#AA292E" d="M20.6,26.4c0,0-4.1,1.5-7.8,5.6v5h7.8V26.4z"/>
<rect x="33.8" y="31.6" fill="#0B050F" width="1.4" height="10.6"/>
<rect x="28.2" y="23.4" fill="#715C57" width="0.9" height="14.9"/>
<path fill="#AA7941" d="M51.4,56.6c-0.5,0-1.2-0.1-2.1-0.4c-2.9-1.1-6.3-4.1-10.4-8.8c-4.9-5.8-9.6-8.1-12.8-9
	c-3.4-1-7.3-0.8-7.3-0.8l-0.2-0.9c0.1,0,4.1-0.2,7.7,0.8c3.3,0.9,8.3,3.3,13.3,9.3c9,10.8,12.5,8.8,12.5,8.8l0.5,0.8
	C52.7,56.3,52.3,56.6,51.4,56.6z"/>
<path fill="#E8EFFF" d="M29.1,27.7c0,0,11.7,7.6,12.8,7.6c1.1,0,4.4-2.3,4.4-2.3v1.3c0,0-4,2.7-4.5,2.7c-0.5,0-12.7-7.9-12.7-7.9
	V27.7z"/>
<path fill="#BF9B4D" d="M30.4,24c0,0,9.9,7.2,11.3,7.2c1.4,0,5.5-3.6,5.5-3.6L30.4,24z"/>
<path fill="#BF9B4D" d="M29.1,26.8c0,0,11.7,7.7,12.8,7.7c1.1,0,4.4-2.6,4.4-2.6v1.3c0,0-4,2.6-4.5,2.6c-0.5,0-12.7-7.6-12.7-7.6
	V26.8z"/>
<path fill="#AA7941" d="M46,28.2c0,0,0,12.3,2.9,20.4c2.9,8.1,10.1,19.5,12.3,20.6l1.2-1.2c0,0-5.1-4.2-12.4-20
	c-1.9-7.8-2-4.4-2.9-20.3C46,11.8,46,28.2,46,28.2z"/>
<path fill="#AA292E" d="M12.8,39.5v28.2c0,0,3.5,4.5,10.6,5.2C23.4,72.8,23.5,44.3,12.8,39.5z"/>
<rect x="33.5" y="64.6" fill="#0B050F" width="3.6" height="6.6"/>
<rect x="26.3" y="66.9" fill="#0B050F" width="3.6" height="6.6"/>
<rect x="37.2" y="67.3" fill="#AA292E" width="3.6" height="6.6"/>
<rect x="29.9" y="65.1" fill="#AA292E" width="3.6" height="6.6"/>
<rect x="40.7" y="69.3" fill="#0B050F" width="3.6" height="6.6"/>
<rect x="44.3" y="71.9" fill="#AA292E" width="3.6" height="4.1"/>
<path fill="#0B050F" d="M22.4,72.7c0,0,1.3-18.6-9.7-33.2c0-1.3,0-1.9,0-1.9s6.4,3,10.1,15.8c3.7,12.8,2,19.4,2,19.4H22.4z"/>
<path fill="#F2F2F2" d="M24.1,72.3c0,0,0.3-12.3-2.7-19.6c-3-7.3-5.1-12.4-8.7-15.1V32c0,0,5.4,1.1,13.2,20.4
	c3.3,10.8,2.6,20.3,2.6,20.3L24.1,72.3z"/>
<ellipse fill="#AA292E" cx="26" cy="72.6" rx="2.1" ry="0.8"/>
<ellipse transform="matrix(-0.9986 5.267342e-002 -5.267342e-002 -0.9986 55.9061 139.8762)" fill="#AA292E" cx="26.1" cy="70.7" rx="2" ry="0.8"/>
<ellipse transform="matrix(-0.9942 0.1073 -0.1073 -0.9942 59.3831 133.7263)" fill="#AA292E" cx="26.1" cy="68.5" rx="2" ry="0.8"/>
<ellipse transform="matrix(-0.9866 0.1634 -0.1634 -0.9866 62.3453 126.9022)" fill="#AA292E" cx="26" cy="66" rx="2" ry="0.8"/>
<ellipse transform="matrix(-0.9755 0.2201 -0.2201 -0.9755 64.6802 119.555)" fill="#AA292E" cx="25.7" cy="63.4" rx="1.9" ry="0.8"/>
<ellipse transform="matrix(-0.9607 0.2777 -0.2777 -0.9607 66.3681 111.8027)" fill="#AA292E" cx="25.3" cy="60.6" rx="1.9" ry="0.8"/>
<ellipse transform="matrix(-0.942 0.3357 -0.3357 -0.942 67.3565 103.7998)" fill="#AA292E" cx="24.7" cy="57.7" rx="1.9" ry="0.8"/>
<ellipse transform="matrix(-0.9198 0.3923 -0.3923 -0.9198 67.5609 95.7595)" fill="#AA292E" cx="24" cy="54.8" rx="1.9" ry="0.8"/>
<ellipse transform="matrix(-0.8943 0.4475 -0.4475 -0.8943 67.0101 87.8277)" fill="#AA292E" cx="23.1" cy="51.8" rx="1.9" ry="0.8"/>
<ellipse transform="matrix(-0.8661 0.4998 -0.4998 -0.8661 65.6887 80.212)" fill="#AA292E" cx="22.1" cy="48.9" rx="1.9" ry="0.8"/>
<ellipse transform="matrix(-0.8346 0.5509 -0.5509 -0.8346 63.7203 72.9676)" fill="#AA292E" cx="20.9" cy="46.1" rx="1.9" ry="0.8"/>
<ellipse transform="matrix(-0.8014 0.5981 -0.5981 -0.8014 61.0953 66.3366)" fill="#AA292E" cx="19.5" cy="43.3" rx="2" ry="0.8"/>
<ellipse transform="matrix(-0.7662 0.6426 -0.6426 -0.7662 57.9382 60.3829)" fill="#AA292E" cx="18" cy="40.7" rx="2" ry="0.8"/>
<ellipse transform="matrix(-0.7296 0.6839 -0.6839 -0.7296 54.3316 55.2247)" fill="#AA292E" cx="16.2" cy="38.4" rx="2" ry="0.8"/>
<ellipse transform="matrix(-0.6925 0.7214 -0.7214 -0.6925 50.3683 50.9737)" fill="#AA292E" cx="14.3" cy="36.2" rx="2.1" ry="0.8"/>
<rect x="33.8" y="56.4" fill="#3856C8" width="5.8" height="6.4"/>
<polygon fill="#BF9B4D" points="39.3,56.7 33.8,56.7 33.8,50.9 "/>
<rect x="33.7" y="57.2" fill="#BF9B4D" width="5.8" height="4.7"/>
<polygon fill="#BF9B4D" points="39.5,62.3 33.8,62.3 33.8,63.9 39.5,67.3 "/>
<path fill="#AA292E" d="M32.7,50.3l0.2,13.4l-4.7,2.7c0,0-0.9-11.1-2.1-13.1C25,51.3,32.7,50.3,32.7,50.3z"/>
<polygon fill="#E8EFFF" points="32.6,50.3 34,51 34,64.7 32.6,64.7 "/>
<polygon fill="#0B050F" points="32.1,49.8 33.5,50.5 33.5,64.2 32.1,64.2 "/>
<path fill="#0B050F" d="M23,45.1c0.5,1.2,1.3,2.3,1.9,3.5c1,1.9,1.7,3.8,2,5.9c0,0,0.1,0,0.1,0c2.9,0,5.4-1.8,6.4-4.3
	c-0.2-0.2-0.4-0.5-0.7-0.7c-0.5-0.4-1.1-0.7-1.6-1.1c-1.2-0.9-2.2-2.2-3.5-3c-1-0.6-2.1-0.9-3.2-1.3c-0.5-0.2-0.9-0.3-1.4-0.5
	c-0.1,0-0.3,0-0.4,0.1C22.6,44.1,22.8,44.7,23,45.1z"/>
<path fill="#BF9B4D" d="M23,45.1c0.5,1.2,1.3,2.3,1.9,3.5c0.9,1.7,1.5,3.5,1.9,5.4c0.1,0,0.1,0,0.2,0c2.8,0,5.1-1.8,6-4.3
	c-0.1-0.1-0.2-0.2-0.3-0.3c-0.5-0.4-1.1-0.7-1.6-1.1c-1.2-0.9-2.2-2.2-3.5-3c-1-0.6-2.1-0.9-3.2-1.3c-0.5-0.2-0.9-0.3-1.4-0.5
	c-0.1,0-0.3,0-0.4,0.1C22.6,44.1,22.8,44.7,23,45.1z"/>
<path fill="#3856C8" d="M24.8,48.6c0.4,0.7,0.7,1.5,1,2.3c0.3,0.1,0.7,0.2,1,0.2c1.9,0,3.4-1.5,3.4-3.3c-0.9-0.8-1.7-1.8-2.8-2.3
	c-0.7-0.4-1.3-0.6-2-0.9c-0.9,0.4-1.6,1.1-1.9,2C24,47.2,24.5,47.9,24.8,48.6z"/>
<polygon fill="#AA292E" points="46.3,61.2 40.7,57.9 40.4,68.4 46.3,71.7 "/>
<rect x="39.3" y="57.3" fill="#E8EFFF" width="1.4" height="10.6"/>
<path fill="#C9D8F7" d="M51.7,74.9c0,0-2.4,1.4-4.9,1.7l-0.3-15.2c0,0,3.8,1.4,5.6,1.4L51.7,74.9z"/>
<polygon fill="#715C57" points="51.7,74.9 52.6,74.5 52.6,62.8 51.7,62.8 "/>
<path fill="#0B050F" d="M52.6,74.5c0,0,1.3-0.5,1.9-1V63h-1.9V74.5z"/>
<rect x="39.8" y="57.8" fill="#0B050F" width="1.4" height="10.6"/>
<rect x="45.9" y="61.7" fill="#715C57" width="0.9" height="14.9"/>
<path fill="#AA7941" d="M23.6,43.4c0.5,0,1.2,0.1,2.1,0.4c2.9,1.1,6.3,4.1,10.4,8.8c4.9,5.8,9.6,8.1,12.8,9c3.4,1,7.1,0.5,7.1,0.5
	l0.2,0.9c-0.1,0-3.9,0.5-7.5-0.5c-3.3-0.9-8.3-3.3-13.3-9.3c-9-10.8-12.5-8.8-12.5-8.8l-0.5-0.8C22.3,43.7,22.7,43.4,23.6,43.4z"/>
<path fill="#E8EFFF" d="M45.9,72.3c0,0-11.7-7.6-12.8-7.6c-1.1,0-4.4,2.3-4.4,2.3v-1.3c0,0,4-2.7,4.5-2.7c0.5,0,12.7,7.9,12.7,7.9
	V72.3z"/>
<path fill="#BF9B4D" d="M44.6,75.9c0,0-9.9-7.2-11.3-7.2c-1.4,0-5.5,3.6-5.5,3.6L44.6,75.9z"/>
<path fill="#BF9B4D" d="M45.9,73.2c0,0-11.7-7.7-12.8-7.7c-1.1,0-4.4,2.6-4.4,2.6v-1.3c0,0,4-2.6,4.5-2.6c0.5,0,12.7,7.6,12.7,7.6
	V73.2z"/>
<path fill="#AA7941" d="M29,71.8c0,0,0-12.3-2.9-20.4c-2.9-8.1-9.5-19.4-12.4-20.4l-1,1c2.6,1.3,10.8,13.8,12.4,20
	c1.9,7.8,2,4.4,2.9,20.3C29,88.2,29,71.8,29,71.8z"/>
<path fill="#E6E6E6" d="M47.4,11.1c0,0-0.6,5.8,0,7c0.6,1.2,1.8,3.8,1.8,3.8s-2.6-0.9-2.6,1.7c-0.1,2.7,2.1,2.5,2.9,2.5
	c0.8,0,3.1-0.9,1.6-4.6c-1.5-3.7-1.8-2.2-2-4.9c-0.2-2.7,0-5.4,0-5.4L47.4,11.1z"/>
<path fill="#F2F2F2" d="M48.2,9.4c0,0-0.6,5.8,0,7c0.6,1.2,1.8,3.8,1.8,3.8s-2.6-0.9-2.6,1.7c-0.1,2.7,2.1,2.5,2.9,2.5
	c0.8,0,3.1-0.9,1.6-4.6s-1.8-2.2-2-4.9c-0.2-2.7,0-5.4,0-5.4L48.2,9.4z"/>
<path fill="#E6E6E6" d="M49.3,17.8c0,0,4.5,17-5.7,17c-10.2,0-9-13-5.8-17.6C41,12.7,49.3,17.8,49.3,17.8z"/>
<path fill="#E8EFFF" d="M49.1,10.7c0,0,0.7,2.8,0.3,3.7c-0.5,0.9,0,2.5-0.1,3.4c-0.1,0.9-1.3,2.4-4,0.6c0,0-6.9,3.7-6.9-1.1
	c-0.1-4.7,0.3-7.2,0.3-7.2S47,9.2,49.1,10.7z"/>
<path fill="#666666" d="M30.5,8.6c0,0,0.6,5.8,0,7c-0.6,1.2-1.8,3.8-1.8,3.8s2.6-0.9,2.6,1.7c0.1,2.7-2.1,2.5-2.9,2.5
	c-0.8,0-3.1-0.9-1.6-4.6c1.5-3.7,1.8-2.2,2-4.9c0.2-2.7,0-5.4,0-5.4L30.5,8.6z"/>
<path fill="#808080" d="M31.3,9.4c0,0,0.6,5.8,0,7c-0.6,1.2-1.8,3.8-1.8,3.8s2.6-0.9,2.6,1.7c0.1,2.7-2.1,2.5-2.9,2.5
	c-0.8,0-3.1-0.9-1.6-4.6c1.5-3.7,1.8-2.2,2-4.9c0.2-2.7,0-5.4,0-5.4L31.3,9.4z"/>
<path fill="#999999" d="M32.5,10.3c0,0,0.6,5.8,0,7c-0.6,1.2-1.8,3.8-1.8,3.8s2.6-0.9,2.6,1.7c0.1,2.7-2.1,2.5-2.9,2.5
	c-0.8,0-3.1-0.9-1.6-4.6c1.5-3.7,1.8-2.2,2-4.9c0.2-2.7,0-5.4,0-5.4L32.5,10.3z"/>
<path fill="#B3B3B3" d="M34.2,10.5c0,0,0.6,5.8,0,7c-0.6,1.2-1.8,3.8-1.8,3.8s2.6-0.9,2.6,1.7c0.1,2.7-2.1,2.5-2.9,2.5
	c-0.8,0-3.1-0.9-1.6-4.6c1.5-3.7,1.8-2.2,2-4.9c0.2-2.7,0-5.4,0-5.4L34.2,10.5z"/>
<path fill="#CCCCCC" d="M35.8,10.3c0,0,0.6,5.8,0,7c-0.6,1.2-1.8,3.8-1.8,3.8s2.6-0.9,2.6,1.7c0.1,2.7-2.1,2.5-2.9,2.5
	c-0.8,0-3.1-0.9-1.6-4.6c1.5-3.7,1.8-2.2,2-4.9c0.2-2.7,0-5.4,0-5.4L35.8,10.3z"/>
<path fill="#E6E6E6" d="M37.5,10c0,0,0.6,5.8,0,7c-0.6,1.2-1.8,3.8-1.8,3.8s2.6-0.9,2.6,1.7c0.1,2.7-2.1,2.5-2.9,2.5
	c-0.8,0-3.1-0.9-1.6-4.6c1.5-3.7,1.8-2.2,2-4.9c0.2-2.7,0-5.4,0-5.4L37.5,10z"/>
<path fill="#F2F2F2" d="M39,9.7c0,0,0.6,5.8,0,7c-0.6,1.2-1.8,3.8-1.8,3.8s2.6-0.9,2.6,1.7c0.1,2.7-2.1,2.5-2.9,2.5
	c-0.8,0-3.1-0.9-1.6-4.6c1.5-3.7,1.8-2.2,2-4.9c0.2-2.7,0-5.4,0-5.4L39,9.7z"/>
<path fill="#F2F2F2" d="M45.3,18.4c0,0,2.7,0.2,3.7,1.9c0,0-1.5,1.4-3.6,0.4c0,0-2.4,0.9-4.6,0.3C40.9,21,42.4,18.7,45.3,18.4z"/>
<path fill="#BF9B4D" d="M27.3,2.8l3.3-0.7l0.7,3.2C32.1,5.1,33,5,33.9,4.8l-0.4-3.1l3.5-0.4l0.4,3.2c1-0.1,2-0.1,3-0.1V1.1h3.6v3.2
	c1.1,0,2.1,0.1,2.9,0.1l0.5-3.3l3.9,0.7l-1.3,7.8l-0.7-0.1l0,0.3L30,10.6l0-0.3l-1,0.2L27.3,2.8z"/>
<path fill="#0B050F" d="M49.9,11c0,0-10-1.5-21,1.1l-0.1-1.8c0,0,13.8-3.2,21.4-0.8L49.9,11z"/>
<g>
	<path fill="#808080" d="M46.4,13.4c0,0,0.7-0.3,1.4-0.3c0.2,0,0.4,0,0.5,0c0.2,0,0.3,0.1,0.4,0.2c0.2,0.2,0.3,0.4,0.3,0.4l0,0
		c0,0-0.2-0.1-0.4-0.2c-0.1,0-0.3-0.1-0.4-0.1c-0.2,0-0.3-0.1-0.5-0.1c-0.3,0-0.7,0-0.9,0C46.6,13.4,46.5,13.4,46.4,13.4L46.4,13.4z
		"/>
</g>
<g>
	<path fill="#808080" d="M43.5,13.4c0,0-0.2,0-0.4-0.1c-0.3,0-0.6,0-0.9,0c-0.2,0-0.3,0.1-0.5,0.1c-0.1,0.1-0.3,0.1-0.4,0.1
		c-0.2,0.1-0.4,0.2-0.4,0.2l0,0c0,0,0.1-0.2,0.3-0.4c0.1-0.1,0.3-0.2,0.4-0.2c0.2,0,0.4-0.1,0.5,0C42.9,13.1,43.5,13.4,43.5,13.4
		L43.5,13.4z"/>
</g>
<g>
	<path fill="#2A3757" d="M44.5,14.6c0,0-0.2,0.2-0.4,0.4c-0.1,0.1-0.3,0.2-0.5,0.3c-0.2,0.1-0.4,0.1-0.7,0.1c-0.2,0-0.5,0-0.7,0
		c-0.2,0-0.4-0.1-0.6-0.2c-0.3-0.2-0.5-0.3-0.5-0.3l0,0c0,0,0.2,0,0.6,0.1C41.8,15,42,15,42.2,15c0.2,0,0.4,0.1,0.6,0.1
		c0.2,0,0.4,0,0.6-0.1c0.2,0,0.4-0.1,0.5-0.2C44.3,14.7,44.4,14.6,44.5,14.6L44.5,14.6z"/>
</g>
<g>
	<path fill="#2A3757" d="M46.6,14.6c0,0,0.1,0.1,0.3,0.2c0.2,0.1,0.5,0.2,0.8,0.2c0.2,0,0.3,0,0.4,0c0.1,0,0.3,0,0.4,0
		c0.2,0,0.4,0,0.4,0l0,0c0,0-0.1,0.1-0.4,0.2c-0.1,0.1-0.3,0.1-0.4,0.1c-0.2,0-0.3,0-0.5,0c-0.2,0-0.3-0.1-0.5-0.1
		c-0.1-0.1-0.3-0.1-0.4-0.2C46.6,14.7,46.5,14.6,46.6,14.6L46.6,14.6z"/>
</g>
<g>
	<path fill="#2A3757" d="M46,14.1c0,0,0,0.5,0,1.2c0,0.3,0.1,0.7,0.2,1.2c0.1,0.2,0.1,0.4,0.2,0.6c0.1,0.2,0.2,0.4,0.3,0.6
		c0.1,0.1,0.1,0.2,0.1,0.4c0,0.2-0.1,0.3-0.2,0.4c-0.2,0.2-0.4,0.3-0.7,0.4c-0.2,0-0.5,0.1-0.7,0c-0.2,0-0.4-0.1-0.6-0.2
		c-0.2-0.1-0.3-0.2-0.4-0.4c-0.1-0.1-0.1-0.3-0.1-0.4c0-0.2,0-0.3,0-0.3l0,0c0,0,0,0.1,0.1,0.3c0.1,0.1,0.1,0.2,0.2,0.3
		c0.1,0.1,0.2,0.2,0.4,0.2c0.1,0.1,0.3,0.1,0.5,0.1c0.2,0,0.4,0,0.6,0c0.2,0,0.4-0.1,0.5-0.3c0.1-0.1,0.2-0.3,0.1-0.5
		c-0.1-0.2-0.2-0.4-0.3-0.6c-0.1-0.2-0.1-0.4-0.2-0.7c-0.1-0.4-0.1-0.8-0.1-1.2C45.9,14.6,45.9,14.1,46,14.1L46,14.1z"/>
</g>
<path fill="#E6E6E6" d="M27.6,88.9c0,0,0.6-5.8,0-7C27,80.6,25.8,78,25.8,78s2.6,0.9,2.6-1.7c0.1-2.7-2.1-2.5-2.9-2.5
	c-0.8,0-3.1,0.9-1.6,4.6c1.5,3.7,1.8,2.2,2,4.9c0.2,2.7,0,5.4,0,5.4L27.6,88.9z"/>
<path fill="#F2F2F2" d="M26.8,90.6c0,0,0.6-5.8,0-7c-0.6-1.2-1.8-3.8-1.8-3.8s2.6,0.9,2.6-1.7c0.1-2.7-2.1-2.5-2.9-2.5
	c-0.8,0-3.1,0.9-1.6,4.6c1.5,3.7,1.8,2.2,2,4.9c0.2,2.7,0,5.4,0,5.4L26.8,90.6z"/>
<path fill="#E6E6E6" d="M25.7,82.2c0,0-4.5-17,5.7-17s9,13,5.8,17.6C34,87.3,25.7,82.2,25.7,82.2z"/>
<path fill="#E8EFFF" d="M25.9,89.3c0,0-0.7-2.8-0.3-3.7c0.5-0.9,0-2.5,0.1-3.4c0.1-0.9,1.3-2.4,4-0.6c0,0,6.9-3.7,6.9,1.1
	c0.1,4.7-0.3,7.2-0.3,7.2S28,90.8,25.9,89.3z"/>
<path fill="#666666" d="M44.5,91.4c0,0-0.6-5.8,0-7c0.6-1.2,1.8-3.8,1.8-3.8s-2.6,0.9-2.6-1.7c-0.1-2.7,2.1-2.5,2.9-2.5
	c0.8,0,3.1,0.9,1.6,4.6c-1.5,3.7-1.8,2.2-2,4.9c-0.2,2.7,0,5.4,0,5.4L44.5,91.4z"/>
<path fill="#808080" d="M43.7,90.6c0,0-0.6-5.8,0-7c0.6-1.2,1.8-3.8,1.8-3.8s-2.6,0.9-2.6-1.7c-0.1-2.7,2.1-2.5,2.9-2.5
	c0.8,0,3.1,0.9,1.6,4.6c-1.5,3.7-1.8,2.2-2,4.9c-0.2,2.7,0,5.4,0,5.4L43.7,90.6z"/>
<path fill="#999999" d="M42.5,89.7c0,0-0.6-5.8,0-7c0.6-1.2,1.8-3.8,1.8-3.8s-2.6,0.9-2.6-1.7c-0.1-2.7,2.1-2.5,2.9-2.5
	c0.8,0,3.1,0.9,1.6,4.6c-1.5,3.7-1.8,2.2-2,4.9c-0.2,2.7,0,5.4,0,5.4L42.5,89.7z"/>
<path fill="#B3B3B3" d="M40.8,89.5c0,0-0.6-5.8,0-7c0.6-1.2,1.8-3.8,1.8-3.8s-2.6,0.9-2.6-1.7c-0.1-2.7,2.1-2.5,2.9-2.5
	c0.8,0,3.1,0.9,1.6,4.6c-1.5,3.7-1.8,2.2-2,4.9c-0.2,2.7,0,5.4,0,5.4L40.8,89.5z"/>
<path fill="#CCCCCC" d="M39.2,89.7c0,0-0.6-5.8,0-7c0.6-1.2,1.8-3.8,1.8-3.8s-2.6,0.9-2.6-1.7c-0.1-2.7,2.1-2.5,2.9-2.5
	c0.8,0,3.1,0.9,1.6,4.6c-1.5,3.7-1.8,2.2-2,4.9c-0.2,2.7,0,5.4,0,5.4L39.2,89.7z"/>
<path fill="#E6E6E6" d="M37.5,90c0,0-0.6-5.8,0-7c0.6-1.2,1.8-3.8,1.8-3.8s-2.6,0.9-2.6-1.7c-0.1-2.7,2.1-2.5,2.9-2.5
	c0.8,0,3.1,0.9,1.6,4.6c-1.5,3.7-1.8,2.2-2,4.9c-0.2,2.7,0,5.4,0,5.4L37.5,90z"/>
<path fill="#F2F2F2" d="M36,90.3c0,0-0.6-5.8,0-7c0.6-1.2,1.8-3.8,1.8-3.8s-2.6,0.9-2.6-1.7c-0.1-2.7,2.1-2.5,2.9-2.5
	c0.8,0,3.1,0.9,1.6,4.6c-1.5,3.7-1.8,2.2-2,4.9c-0.2,2.7,0,5.4,0,5.4L36,90.3z"/>
<path fill="#F2F2F2" d="M29.7,81.6c0,0-2.7-0.2-3.7-1.9c0,0,1.5-1.4,3.6-0.4c0,0,2.4-0.9,4.6-0.3C34.1,79,32.6,81.3,29.7,81.6z"/>
<path fill="#BF9B4D" d="M47.7,97.2l-3.3,0.7l-0.7-3.2c-0.8,0.2-1.7,0.4-2.6,0.5l0.4,3.1l-3.5,0.4l-0.4-3.2c-1,0.1-2,0.1-3,0.1v3.2
	h-3.6v-3.2c-1.1,0-2.1-0.1-2.9-0.1l-0.5,3.3l-3.9-0.7l1.3-7.8l0.7,0.1l0-0.3L45,89.4l0,0.3l1-0.2L47.7,97.2z"/>
<path fill="#0B050F" d="M25.1,89c0,0,10,1.5,21-1.1l0.1,1.8c0,0-13.8,3.2-21.4,0.8L25.1,89z"/>
<g>
	<path fill="#808080" d="M28.6,86.6c0,0-0.7,0.3-1.4,0.3c-0.2,0-0.4,0-0.5,0c-0.2,0-0.3-0.1-0.4-0.2c-0.2-0.2-0.3-0.4-0.3-0.4l0,0
		c0,0,0.2,0.1,0.4,0.2c0.1,0,0.3,0.1,0.4,0.1c0.2,0,0.3,0.1,0.5,0.1c0.3,0,0.7,0,0.9,0C28.4,86.6,28.5,86.6,28.6,86.6L28.6,86.6z"/>
</g>
<g>
	<path fill="#808080" d="M31.5,86.6c0,0,0.2,0,0.4,0.1c0.3,0,0.6,0,0.9,0c0.2,0,0.3-0.1,0.5-0.1c0.1-0.1,0.3-0.1,0.4-0.1
		c0.2-0.1,0.4-0.2,0.4-0.2l0,0c0,0-0.1,0.2-0.3,0.4c-0.1,0.1-0.3,0.2-0.4,0.2c-0.2,0-0.4,0.1-0.5,0C32.1,86.9,31.5,86.6,31.5,86.6
		L31.5,86.6z"/>
</g>
<g>
	<path fill="#2A3757" d="M30.5,85.4c0,0,0.2-0.2,0.4-0.4c0.1-0.1,0.3-0.2,0.5-0.3c0.2-0.1,0.4-0.1,0.7-0.1c0.2,0,0.5,0,0.7,0
		c0.2,0,0.4,0.1,0.6,0.2c0.3,0.2,0.5,0.3,0.5,0.3l0,0c0,0-0.2,0-0.6-0.1C33.2,85,33,85,32.8,85c-0.2,0-0.4-0.1-0.6-0.1
		c-0.2,0-0.4,0-0.6,0.1c-0.2,0-0.4,0.1-0.5,0.2C30.7,85.3,30.6,85.4,30.5,85.4L30.5,85.4z"/>
</g>
<g>
	<path fill="#2A3757" d="M28.4,85.4c0,0-0.1-0.1-0.3-0.2c-0.2-0.1-0.5-0.2-0.8-0.2c-0.2,0-0.3,0-0.4,0c-0.1,0-0.3,0-0.4,0
		c-0.2,0-0.4,0-0.4,0l0,0c0,0,0.1-0.1,0.4-0.2c0.1-0.1,0.3-0.1,0.4-0.1c0.2,0,0.3,0,0.5,0c0.2,0,0.3,0.1,0.5,0.1
		c0.1,0.1,0.3,0.1,0.4,0.2C28.4,85.3,28.5,85.4,28.4,85.4L28.4,85.4z"/>
</g>
<g>
	<path fill="#2A3757" d="M29,85.9c0,0,0-0.5,0-1.2c0-0.3-0.1-0.7-0.2-1.2c-0.1-0.2-0.1-0.4-0.2-0.6c-0.1-0.2-0.2-0.4-0.3-0.6
		c-0.1-0.1-0.1-0.2-0.1-0.4c0-0.2,0.1-0.3,0.2-0.4c0.2-0.2,0.4-0.3,0.7-0.4c0.2,0,0.5-0.1,0.7,0c0.2,0,0.4,0.1,0.6,0.2
		c0.2,0.1,0.3,0.2,0.4,0.4c0.1,0.1,0.1,0.3,0.1,0.4c0,0.2,0,0.3,0,0.3l0,0c0,0,0-0.1-0.1-0.3c-0.1-0.1-0.1-0.2-0.2-0.3
		c-0.1-0.1-0.2-0.2-0.4-0.2c-0.1-0.1-0.3-0.1-0.5-0.1c-0.2,0-0.4,0-0.6,0c-0.2,0-0.4,0.1-0.5,0.3c-0.1,0.1-0.2,0.3-0.1,0.5
		c0.1,0.2,0.2,0.4,0.3,0.6c0.1,0.2,0.1,0.4,0.2,0.7c0.1,0.4,0.1,0.8,0.1,1.2C29.1,85.4,29.1,85.9,29,85.9L29,85.9z"/>
</g>
</svg>
