<?xml version="1.0" encoding="utf-8"?>
<!-- Generator: Adobe Illustrator 17.1.0, SVG Export Plug-In . SVG Version: 6.00 Build 0)  -->
<!DOCTYPE svg PUBLIC "-//W3C//DTD SVG 1.1//EN" "http://www.w3.org/Graphics/SVG/1.1/DTD/svg11.dtd">
<svg version="1.1" id="Layer_1" xmlns="http://www.w3.org/2000/svg" xmlns:xlink="http://www.w3.org/1999/xlink" x="0px" y="0px"
	 viewBox="0 0 75 100" enable-background="new 0 0 75 100" xml:space="preserve">
<rect fill="none" width="75" height="100"/>
<path fill="#AA292E" d="M22,71.7c0,0-3.7-1.3-7.2-5.1v-4.6H22V71.7z"/>
<path fill="#AA292E" d="M24.9,14.8l-3.9-5c0,0,7.5-5,9-5.1C31.6,4.7,48.8,10,48.8,10l-3.9,6.2L24.9,14.8z"/>
<path fill="#1F2D6C" d="M44.9,8.8c0,0-2.1,6.8-2.7,7.3c-0.6,0.5-3.3-0.8-3.3-0.8s2.2-2.1,3.2-7.3L44.9,8.8z"/>
<path fill="#AA292E" d="M14.8,59.7V33.8c0,0,3.3-4.1,9.8-4.8C24.5,29,24.7,55.2,14.8,59.7z"/>
<rect x="33.9" y="30.4" fill="#0B050F" width="3.3" height="6.1"/>
<rect x="27.2" y="28.3" fill="#0B050F" width="3.3" height="6.1"/>
<rect x="37.2" y="28" fill="#AA292E" width="3.3" height="6.1"/>
<rect x="30.5" y="30" fill="#AA292E" width="3.3" height="6.1"/>
<rect x="40.4" y="26.2" fill="#0B050F" width="3.3" height="6.1"/>
<rect x="43.8" y="26.1" fill="#AA292E" width="3.3" height="3.8"/>
<polygon fill="#AD6E2D" points="27.2,26.2 28,28.9 25.4,29 "/>
<path fill="#0B050F" d="M23.7,29.1c0,0,1.2,17.1-8.9,30.5c0,1.2,0,1.8,0,1.8s5.9-2.8,9.3-14.5c3.4-11.7,1.8-17.8,1.8-17.8H23.7z"/>
<path fill="#1F2D6C" d="M25.2,29.5c0,0,0.3,11.3-2.5,18c-2.8,6.7-4.7,11.3-8,13.9v5.1c0,0,9.1-8.8,12.1-18.8
	c3-9.9,2.4-18.6,2.4-18.6L25.2,29.5z"/>
<ellipse fill="#AA292E" cx="26.9" cy="29.2" rx="1.9" ry="0.8"/>
<ellipse transform="matrix(-0.9986 -5.263580e-002 5.263580e-002 -0.9986 52.3997 63.3586)" fill="#AA292E" cx="27" cy="31" rx="1.9" ry="0.7"/>
<ellipse transform="matrix(-0.9942 -0.1072 0.1072 -0.9942 50.3486 68.7524)" fill="#AA292E" cx="27" cy="33" rx="1.8" ry="0.7"/>
<ellipse transform="matrix(-0.9866 -0.1633 0.1633 -0.9866 47.6649 74.4583)" fill="#AA292E" cx="26.9" cy="35.3" rx="1.8" ry="0.7"/>
<ellipse transform="matrix(-0.9754 -0.2204 0.2204 -0.9754 44.3163 80.3235)" fill="#AA292E" cx="26.6" cy="37.7" rx="1.8" ry="0.7"/>
<ellipse transform="matrix(-0.9606 -0.278 0.278 -0.9606 40.2965 86.1999)" fill="#AA292E" cx="26.3" cy="40.2" rx="1.8" ry="0.7"/>
<ellipse transform="matrix(-0.942 -0.3355 0.3355 -0.942 35.6078 91.9329)" fill="#AA292E" cx="25.7" cy="42.9" rx="1.8" ry="0.7"/>
<ellipse transform="matrix(-0.92 -0.392 0.392 -0.92 30.3046 97.3696)" fill="#AA292E" cx="25.1" cy="45.6" rx="1.8" ry="0.7"/>
<ellipse transform="matrix(-0.8944 -0.4472 0.4472 -0.8944 24.427 102.3758)" fill="#AA292E" cx="24.3" cy="48.3" rx="1.8" ry="0.7"/>
<ellipse transform="matrix(-0.8661 -0.5 0.5 -0.8661 18.0826 106.8291)" fill="#AA292E" cx="23.4" cy="51" rx="1.8" ry="0.7"/>
<ellipse transform="matrix(-0.8348 -0.5505 0.5505 -0.8348 11.3124 110.6229)" fill="#AA292E" cx="22.3" cy="53.6" rx="1.8" ry="0.7"/>
<ellipse transform="matrix(-0.8012 -0.5984 0.5984 -0.8012 4.2239 113.6631)" fill="#AA292E" cx="21" cy="56.1" rx="1.8" ry="0.7"/>
<ellipse transform="matrix(-0.7662 -0.6426 0.6426 -0.7662 -3.0299 115.8997)" fill="#AA292E" cx="19.6" cy="58.5" rx="1.8" ry="0.7"/>
<ellipse transform="matrix(-0.7297 -0.6838 0.6838 -0.7297 -10.4101 117.2576)" fill="#AA292E" cx="18" cy="60.7" rx="1.9" ry="0.7"/>
<ellipse transform="matrix(-0.6929 -0.721 0.721 -0.6929 -17.737 117.7372)" fill="#AA292E" cx="16.2" cy="62.6" rx="1.9" ry="0.8"/>
<rect x="34.1" y="38.2" fill="#3856C8" width="5.3" height="5.9"/>
<polygon fill="#BF9B4D" points="39.1,43.9 34.1,43.9 34.1,49.2 "/>
<rect x="34" y="39.1" fill="#BF9B4D" width="5.3" height="4.3"/>
<polygon fill="#BF9B4D" points="39.3,38.7 34.1,38.7 34.1,37.3 39.3,34.1 "/>
<path fill="#AA292E" d="M33.1,49.7l0.2-12.3l-4.3-2.5c0,0-0.9,10.2-1.9,12C26,48.8,33.1,49.7,33.1,49.7z"/>
<polygon fill="#E8EFFF" points="33,49.7 34.3,49.1 34.3,36.5 33,36.5 "/>
<polygon fill="#0B050F" points="32.6,50.2 33.9,49.5 33.9,36.9 32.6,36.9 "/>
<path fill="#0B050F" d="M24.1,54.5c0.4-1.1,1.2-2.1,1.7-3.2c0.9-1.7,1.5-3.5,1.8-5.4c0,0,0.1,0,0.1,0c2.7,0,4.9,1.7,5.9,4
	c-0.2,0.2-0.4,0.5-0.6,0.7c-0.4,0.4-1,0.7-1.4,1c-1.1,0.9-2,2-3.2,2.7c-0.9,0.5-2,0.9-3,1.2c-0.4,0.2-0.9,0.3-1.3,0.4
	c-0.1,0-0.3,0-0.4-0.1C23.8,55.4,24,54.9,24.1,54.5z"/>
<path fill="#BF9B4D" d="M24.1,54.5c0.4-1.1,1.2-2.1,1.7-3.2c0.8-1.6,1.4-3.2,1.7-4.9c0.1,0,0.1,0,0.2,0c2.5,0,4.7,1.6,5.5,3.9
	c-0.1,0.1-0.2,0.2-0.3,0.2c-0.4,0.4-1,0.7-1.4,1c-1.1,0.9-2,2-3.2,2.7c-0.9,0.5-2,0.9-3,1.2c-0.4,0.2-0.9,0.3-1.3,0.4
	c-0.1,0-0.3,0-0.4-0.1C23.8,55.4,24,54.9,24.1,54.5z"/>
<path fill="#3856C8" d="M25.9,51.3c0.4-0.7,0.7-1.4,0.9-2.1c0.3-0.1,0.6-0.1,1-0.1c1.7,0,3.1,1.4,3.2,3.1c-0.8,0.8-1.6,1.6-2.6,2.2
	c-0.6,0.3-1.2,0.6-1.9,0.8c-0.8-0.4-1.4-1-1.7-1.9C25.1,52.5,25.5,51.9,25.9,51.3z"/>
<polygon fill="#AA292E" points="45.6,39.7 40.4,42.7 40.2,33.1 45.6,30.1 "/>
<rect x="39.1" y="33.5" fill="#E8EFFF" width="1.3" height="9.8"/>
<path fill="#C9D8F7" d="M50.5,27.1c0,0-2.2-1.3-4.5-1.6l-0.3,14c0,0,3.5-1.3,5.1-1.2L50.5,27.1z"/>
<polygon fill="#715C57" points="50.5,27.1 51.3,27.4 51.3,38.2 50.5,38.2 "/>
<path fill="#0B050F" d="M51.3,27.4c0,0,1.2,0.5,1.7,0.9v9.7h-1.7V27.4z"/>
<path fill="#AA292E" d="M53,28.3c0,0,3.7,1.3,7.2,5.1v4.6H53V28.3z"/>
<rect x="39.6" y="33.1" fill="#0B050F" width="1.3" height="9.8"/>
<rect x="45.2" y="25.6" fill="#715C57" width="0.8" height="13.7"/>
<path fill="#AA7941" d="M24.7,56.1c0.5,0,1.1-0.1,1.9-0.4c2.6-1,5.8-3.7,9.5-8.1c4.5-5.3,8.8-7.4,11.7-8.2c3.1-0.9,6.7-0.7,6.7-0.7
	l0.2-0.9c-0.1,0-3.7-0.2-7,0.7c-3,0.9-7.6,3-12.2,8.5C27.2,56.9,24,55.1,24,55l-0.5,0.7C23.5,55.8,23.9,56.1,24.7,56.1z"/>
<path fill="#E8EFFF" d="M45.2,29.5c0,0-10.7,7-11.7,7s-4-2.1-4-2.1v1.2c0,0,3.7,2.4,4.1,2.4c0.5,0,11.6-7.2,11.6-7.2V29.5z"/>
<path fill="#BF9B4D" d="M44,26.2c0,0-9.1,6.7-10.3,6.7c-1.3,0-5-3.3-5-3.3L44,26.2z"/>
<path fill="#BF9B4D" d="M45.2,28.7c0,0-10.7,7.1-11.7,7.1s-4-2.4-4-2.4v1.2c0,0,3.7,2.4,4.1,2.4c0.5,0,11.6-7,11.6-7V28.7z"/>
<path fill="#AA7941" d="M29.7,30c0,0,0,11.3-2.6,18.8c-2.6,7.5-9.3,17.9-11.3,18.9l-1.1-1.1c0,0,4.7-3.9,11.4-18.4
	c1.7-7.2,1.8-4.1,2.6-18.7C29.6,14.9,29.7,30,29.7,30z"/>
<path fill="#DCE3F2" d="M38.1,28.7c0,0-3.7,2.7-4.5,2.7c-0.8,0-2.5-1.5-2.5-1.5s5.1-3.4,6.5-2.9C39,27.4,38.1,28.7,38.1,28.7z"/>
<path fill="#D28537" d="M27.7,15.3c0,0-1.7,1.7-1.3,6.3c0.4,4.5,0.8,9.1-2.5,7.7c-3.3-1.4-0.4-4.9,1.5-3.1c0,0,0-2.2-0.3-5.2
	C24.9,18.1,25.1,15.3,27.7,15.3z"/>
<path fill="#E8EFFF" d="M26,16c0,0-0.5,2.7,0,3.3c0.5,0.6,0,1.4,0,2.1c0,0.7-0.7,6.3,3.1,8.3c3.8,2,3.5-0.8,8.2-2.5
	c0,0,0.7-10.9-2.5-11.8C34.8,15.3,28.5,14.8,26,16z"/>
<path fill="#A86B2C" d="M41.6,16.7c0,0,1.2,1,1.2,4c0,3,1.5,6,3.6,4.9c2.1-1.1,0-3.2-1.2-1.9c0,0-0.1-1.4-0.1-3.4
	C45.1,18.5,44,16.3,41.6,16.7z"/>
<path fill="#AD6E2D" d="M40.4,16.1c0,0,1.4,1.2,1.4,4.6s0.8,7,3.1,5.7c2.4-1.3,0-3.7-1.4-2.2c0,0-0.2-1.7-0.2-3.9
	C43.5,18.1,42.4,15.8,40.4,16.1z"/>
<path fill="#B3712E" d="M38.9,15.7c0,0,1.4,2.4,1.4,6.1c0,3.7,1,6.4,3.6,5c2.6-1.4,0-4-1.5-2.3c0,0-0.2-1.8-0.2-4.2
	C42.2,17.9,41,15.5,38.9,15.7z"/>
<path fill="#B87530" d="M37.6,15.5c0,0,1,1.6,1,5.7s0.8,8,3.7,6.4c2.8-1.5,0-4.4-1.7-2.6c0,0-0.2-2-0.2-4.7
	C40.4,17.8,40,15.3,37.6,15.5z"/>
<path fill="#BD7831" d="M36,15.3c0,0,1.8,1.5,1.8,5.9c0,4.4,0.1,8.8,3.1,7.1c3-1.6,0-4.7-1.8-2.8c0,0-0.2-2.1-0.2-5
	C39,17.7,38.5,15.1,36,15.3z"/>
<path fill="#D28537" d="M34.8,15.3c0,0,1.9,1.6,1.9,6.1c0,4.6,0.1,9.1,3.2,7.4c3.2-1.7,0-4.9-1.8-2.9c0,0-0.2-2.2-0.2-5.2
	S37.4,15,34.8,15.3z"/>
<path fill="#333333" d="M44.4,18c0,0-7.2-4-18.8-1.4l-0.7-1.7c0,0,9-3.5,20,1.3L44.4,18z"/>
<g>
	<path fill="#D28537" d="M28.9,19c0,0-0.2,0-0.5-0.1c-0.1,0-0.3,0-0.5,0c-0.2,0-0.4,0-0.5,0c-0.2,0-0.4,0.1-0.5,0.1
		c-0.2,0.1-0.3,0.1-0.4,0.1c-0.2,0.1-0.4,0.2-0.4,0.2l0,0c0,0,0.1-0.2,0.3-0.4c0.1-0.1,0.3-0.2,0.5-0.2c0.2,0,0.4-0.1,0.6,0
		C28.2,18.6,28.9,18.9,28.9,19L28.9,19z"/>
</g>
<g>
	<path fill="#D28537" d="M32.1,18.9c0,0,0.7-0.3,1.5-0.3c0.2,0,0.4,0,0.6,0c0.2,0.1,0.3,0.2,0.5,0.2c0.2,0.2,0.3,0.4,0.3,0.4l0,0
		c0,0-0.2-0.1-0.4-0.2c-0.1,0-0.3-0.1-0.4-0.1c-0.2,0-0.3-0.1-0.5-0.1c-0.2,0-0.4,0-0.5,0c-0.2,0-0.3,0-0.5,0
		C32.3,18.9,32.1,19,32.1,18.9L32.1,18.9z"/>
</g>
<g>
	<path fill="#2A3757" d="M31.1,20.2c0,0,0.2,0.2,0.5,0.3c0.1,0,0.2,0.1,0.3,0.1c0.1,0,0.2,0.1,0.3,0.1c0.2,0,0.5,0.1,0.7,0.1
		c0.2,0,0.5,0,0.7-0.1c0.2,0,0.4,0,0.6-0.1c0.4-0.1,0.6-0.1,0.6-0.1l0,0c0,0-0.2,0.2-0.5,0.3c-0.2,0.1-0.4,0.2-0.6,0.2
		c-0.2,0-0.5,0.1-0.8,0c-0.3,0-0.5-0.1-0.7-0.1c-0.2-0.1-0.4-0.2-0.6-0.3C31.3,20.5,31.1,20.3,31.1,20.2L31.1,20.2z"/>
</g>
<g>
	<path fill="#2A3757" d="M28.8,20.3c0,0-0.1,0.1-0.3,0.3c-0.1,0.1-0.3,0.2-0.4,0.2c-0.2,0.1-0.3,0.1-0.5,0.1c-0.2,0-0.4,0.1-0.6,0
		c-0.2,0-0.3-0.1-0.5-0.1c-0.3-0.1-0.4-0.3-0.4-0.3l0,0c0,0,0.2,0,0.5,0c0.1,0,0.3,0,0.4,0c0.2,0,0.3,0.1,0.5,0.1
		c0.2,0,0.3,0,0.5-0.1c0.2,0,0.3-0.1,0.4-0.1C28.7,20.4,28.8,20.2,28.8,20.3L28.8,20.3z"/>
</g>
<g>
	<path fill="#2A3757" d="M29.5,19.7c0,0,0.1,0.5,0.1,1.3c0,0.4,0,0.8-0.1,1.3c0,0.2-0.1,0.5-0.2,0.7c-0.1,0.2-0.2,0.5-0.3,0.7
		c-0.1,0.2-0.1,0.4,0.1,0.5c0.1,0.1,0.4,0.2,0.6,0.3c0.2,0,0.4,0.1,0.6,0c0.2,0,0.4,0,0.5-0.1c0.2-0.1,0.3-0.2,0.4-0.3
		c0.1-0.1,0.1-0.2,0.2-0.3c0.1-0.2,0.1-0.3,0.1-0.3l0,0c0,0,0,0.1,0,0.4c0,0.1-0.1,0.3-0.2,0.4c-0.1,0.1-0.2,0.3-0.4,0.4
		c-0.2,0.1-0.4,0.2-0.6,0.2c-0.2,0-0.5,0-0.7,0c-0.3-0.1-0.5-0.2-0.7-0.4c0-0.1-0.1-0.1-0.1-0.2l-0.1-0.2c0-0.2,0-0.3,0.1-0.4
		c0.1-0.2,0.2-0.4,0.4-0.7c0.1-0.2,0.2-0.5,0.2-0.7c0.1-0.5,0.2-0.9,0.2-1.3C29.5,20.2,29.4,19.7,29.5,19.7L29.5,19.7z"/>
</g>
<g>
	<path fill="#2A3757" d="M32.4,26.2c0,0-1,0.1-2.1,0.1c-0.5,0-1,0.1-1.4,0c-0.4,0-0.7-0.1-0.7-0.1v0c0,0,0.3-0.1,0.7-0.1
		c0.4-0.1,0.9,0,1.4,0C31.3,26.1,32.4,26.1,32.4,26.2L32.4,26.2z"/>
</g>
<g>
	<path fill="#2A3757" d="M30.8,27.2c0,0-0.4,0.1-0.7,0.1c-0.2,0-0.4,0.1-0.5,0c-0.1,0-0.2-0.1-0.2-0.1v0c0,0,0.1-0.1,0.2-0.1
		c0.1-0.1,0.3,0,0.5,0C30.4,27,30.8,27.1,30.8,27.2L30.8,27.2z"/>
</g>
<path fill="#AA292E" d="M50.1,85.2l3.9,5c0,0-7.5,5-9,5.1C43.4,95.3,26.2,90,26.2,90l3.9-6.2L50.1,85.2z"/>
<path fill="#1F2D6C" d="M30.1,91.2c0,0,2.1-6.8,2.7-7.3c0.6-0.5,3.3,0.8,3.3,0.8s-2.2,2.1-3.2,7.3L30.1,91.2z"/>
<path fill="#AA292E" d="M60.2,40.3v25.9c0,0-3.3,4.1-9.8,4.8C50.5,71,50.3,44.8,60.2,40.3z"/>
<rect x="37.8" y="63.4" fill="#0B050F" width="3.3" height="6.1"/>
<rect x="44.5" y="65.6" fill="#0B050F" width="3.3" height="6.1"/>
<rect x="34.5" y="65.9" fill="#AA292E" width="3.3" height="6.1"/>
<rect x="41.1" y="63.9" fill="#AA292E" width="3.3" height="6.1"/>
<rect x="31.2" y="67.7" fill="#0B050F" width="3.3" height="6.1"/>
<rect x="27.9" y="70.1" fill="#AA292E" width="3.3" height="3.8"/>
<polygon fill="#AD6E2D" points="47.8,73.8 47,71.1 49.6,71 "/>
<path fill="#0B050F" d="M51.3,70.9c0,0-1.2-17.1,8.9-30.5c0-1.2,0-1.8,0-1.8s-5.9,2.8-9.3,14.5c-3.4,11.7-1.8,17.8-1.8,17.8H51.3z"
	/>
<path fill="#1F2D6C" d="M49.8,70.5c0,0-0.3-11.3,2.5-18c2.8-6.7,4.7-11.3,8-13.9v-5.1c0,0-5,1-12.1,18.8c-3,9.9-2.4,18.6-2.4,18.6
	L49.8,70.5z"/>
<ellipse fill="#AA292E" cx="48.1" cy="70.8" rx="1.9" ry="0.8"/>
<ellipse transform="matrix(0.9986 5.262323e-002 -5.262323e-002 0.9986 3.6979 -2.4285)" fill="#AA292E" cx="48" cy="69" rx="1.9" ry="0.7"/>
<ellipse transform="matrix(0.9942 0.1071 -0.1071 0.9942 7.4516 -4.7547)" fill="#AA292E" cx="48" cy="67" rx="1.8" ry="0.7"/>
<ellipse transform="matrix(0.9866 0.1632 -0.1632 0.9866 11.2105 -6.9843)" fill="#AA292E" cx="48.1" cy="64.7" rx="1.8" ry="0.7"/>
<ellipse transform="matrix(0.9754 0.2205 -0.2205 0.9754 14.9267 -9.1286)" fill="#AA292E" cx="48.4" cy="62.3" rx="1.8" ry="0.7"/>
<ellipse transform="matrix(0.9606 0.278 -0.278 0.9606 18.5319 -11.1939)" fill="#AA292E" cx="48.7" cy="59.8" rx="1.8" ry="0.7"/>
<ellipse transform="matrix(0.942 0.3355 -0.3355 0.942 22.0157 -13.2156)" fill="#AA292E" cx="49.3" cy="57.1" rx="1.8" ry="0.7"/>
<ellipse transform="matrix(0.92 0.392 -0.392 0.92 25.3244 -15.2098)" fill="#AA292E" cx="49.9" cy="54.4" rx="1.8" ry="0.7"/>
<ellipse transform="matrix(0.8946 0.4468 -0.4468 0.8946 28.438 -17.2067)" fill="#AA292E" cx="50.7" cy="51.7" rx="1.8" ry="0.7"/>
<ellipse transform="matrix(0.8661 0.5 -0.5 0.8661 31.4187 -19.2573)" fill="#AA292E" cx="51.6" cy="49" rx="1.8" ry="0.7"/>
<ellipse transform="matrix(0.8348 0.5505 -0.5505 0.8348 34.2493 -21.3779)" fill="#AA292E" cx="52.7" cy="46.4" rx="1.8" ry="0.7"/>
<ellipse transform="matrix(0.8011 0.5985 -0.5985 0.8011 36.9984 -23.5996)" fill="#AA292E" cx="54" cy="43.9" rx="1.8" ry="0.7"/>
<ellipse transform="matrix(0.7662 0.6426 -0.6426 0.7662 39.6255 -25.9186)" fill="#AA292E" cx="55.4" cy="41.5" rx="1.8" ry="0.7"/>
<ellipse transform="matrix(0.7299 0.6835 -0.6835 0.7299 42.2732 -28.3622)" fill="#AA292E" cx="57" cy="39.3" rx="1.9" ry="0.7"/>
<ellipse transform="matrix(0.6929 0.721 -0.721 0.6929 44.9855 -30.9232)" fill="#AA292E" cx="58.8" cy="37.4" rx="1.9" ry="0.8"/>
<rect x="35.6" y="55.9" fill="#3856C8" width="5.3" height="5.9"/>
<polygon fill="#BF9B4D" points="35.9,56.1 40.9,56.1 40.9,50.8 "/>
<rect x="35.7" y="56.6" fill="#BF9B4D" width="5.3" height="4.3"/>
<polygon fill="#BF9B4D" points="35.7,61.3 40.9,61.3 40.9,62.7 35.7,65.9 "/>
<path fill="#AA292E" d="M41.9,50.3l-0.2,12.3l4.3,2.5c0,0,0.9-10.2,1.9-12C49,51.2,41.9,50.3,41.9,50.3z"/>
<polygon fill="#E8EFFF" points="42,50.3 40.7,50.9 40.7,63.5 42,63.5 "/>
<polygon fill="#0B050F" points="42.4,49.8 41.1,50.5 41.1,63.1 42.4,63.1 "/>
<path fill="#0B050F" d="M50.9,45.5c-0.4,1.1-1.2,2.1-1.7,3.2c-0.9,1.7-1.5,3.5-1.8,5.4c0,0-0.1,0-0.1,0c-2.7,0-4.9-1.7-5.9-4
	c0.2-0.2,0.4-0.5,0.6-0.7c0.4-0.4,1-0.7,1.4-1c1.1-0.9,2-2,3.2-2.7c0.9-0.5,2-0.9,3-1.2c0.4-0.2,0.9-0.3,1.3-0.4
	c0.1,0,0.3,0,0.4,0.1C51.2,44.6,51,45.1,50.9,45.5z"/>
<path fill="#BF9B4D" d="M50.9,45.5c-0.4,1.1-1.2,2.1-1.7,3.2c-0.8,1.6-1.4,3.2-1.7,4.9c-0.1,0-0.1,0-0.2,0c-2.5,0-4.7-1.6-5.5-3.9
	c0.1-0.1,0.2-0.2,0.3-0.2c0.4-0.4,1-0.7,1.4-1c1.1-0.9,2-2,3.2-2.7c0.9-0.5,2-0.9,3-1.2c0.4-0.2,0.9-0.3,1.3-0.4
	c0.1,0,0.3,0,0.4,0.1C51.2,44.6,51,45.1,50.9,45.5z"/>
<path fill="#3856C8" d="M49.1,48.7c-0.4,0.7-0.7,1.4-0.9,2.1c-0.3,0.1-0.6,0.1-1,0.1c-1.7,0-3.1-1.4-3.2-3.1
	c0.8-0.8,1.6-1.6,2.6-2.2c0.6-0.3,1.2-0.6,1.9-0.8c0.8,0.4,1.4,1,1.7,1.9C49.9,47.5,49.5,48.1,49.1,48.7z"/>
<polygon fill="#AA292E" points="29.4,60.3 34.6,57.3 34.8,66.9 29.4,69.9 "/>
<rect x="34.6" y="56.7" fill="#E8EFFF" width="1.3" height="9.8"/>
<path fill="#C9D8F7" d="M24.5,72.9c0,0,2.2,1.3,4.5,1.6l0.3-14c0,0-3.5,1.3-5.1,1.2L24.5,72.9z"/>
<polygon fill="#715C57" points="24.5,72.9 23.7,72.6 23.7,61.8 24.5,61.8 "/>
<path fill="#0B050F" d="M23.7,72.6c0,0-1.2-0.5-1.7-0.9v-9.7h1.7V72.6z"/>
<rect x="34.1" y="57.2" fill="#0B050F" width="1.3" height="9.8"/>
<rect x="29" y="60.7" fill="#715C57" width="0.8" height="13.7"/>
<path fill="#AA7941" d="M50.3,43.9c-0.5,0-1.1,0.1-1.9,0.4c-2.6,1-5.8,3.7-9.5,8.1c-4.5,5.3-8.8,7.4-11.7,8.2
	c-3.1,0.9-6.5,0.5-6.5,0.5L20.4,62c0.1,0,3.6,0.5,6.9-0.5c3-0.9,7.6-3,12.2-8.5C47.8,43.1,51,44.9,51,45l0.5-0.7
	C51.5,44.2,51.1,43.9,50.3,43.9z"/>
<path fill="#E8EFFF" d="M29.8,70.5c0,0,10.7-7,11.7-7s4,2.1,4,2.1v-1.2c0,0-3.7-2.4-4.1-2.4c-0.5,0-11.6,7.2-11.6,7.2V70.5z"/>
<path fill="#BF9B4D" d="M31,73.8c0,0,9.1-6.7,10.3-6.7c1.3,0,5,3.3,5,3.3L31,73.8z"/>
<path fill="#BF9B4D" d="M29.8,71.3c0,0,10.7-7.1,11.7-7.1s4,2.4,4,2.4v-1.2c0,0-3.7-2.4-4.1-2.4c-0.5,0-11.6,7-11.6,7V71.3z"/>
<path fill="#AA7941" d="M45.3,70c0,0,0-11.3,2.6-18.8c2.6-7.5,8.7-17.8,11.4-18.8l0.9,1c-2.3,1.2-10,12.7-11.4,18.4
	c-1.7,7.2-1.8,4.1-2.6,18.7C45.4,85.1,45.3,70,45.3,70z"/>
<path fill="#DCE3F2" d="M36.9,71.3c0,0,3.7-2.7,4.5-2.7c0.8,0,2.5,1.5,2.5,1.5s-5.1,3.4-6.5,2.9C36,72.6,36.9,71.3,36.9,71.3z"/>
<path fill="#D28537" d="M47.3,84.7c0,0,1.7-1.7,1.3-6.3c-0.4-4.5-0.8-9.1,2.5-7.7c3.3,1.4,0.4,4.9-1.5,3.1c0,0,0,2.2,0.3,5.2
	C50.1,81.9,49.9,84.7,47.3,84.7z"/>
<path fill="#E8EFFF" d="M49,84c0,0,0.5-2.7,0-3.3c-0.5-0.6,0-1.4,0-2.1c0-0.7,0.7-6.3-3.1-8.3c-3.8-2-3.5,0.8-8.2,2.5
	c0,0-0.7,10.9,2.5,11.8C40.2,84.7,46.5,85.2,49,84z"/>
<path fill="#A86B2C" d="M33.4,83.3c0,0-1.2-1-1.2-4s-1.5-6-3.6-4.9c-2.1,1.1,0,3.2,1.2,1.9c0,0,0.1,1.4,0.1,3.4
	C29.9,81.5,31,83.7,33.4,83.3z"/>
<path fill="#AD6E2D" d="M34.6,83.9c0,0-1.4-1.2-1.4-4.6s-0.8-7-3.1-5.7c-2.4,1.3,0,3.7,1.4,2.2c0,0,0.2,1.7,0.2,3.9
	C31.5,81.9,32.6,84.2,34.6,83.9z"/>
<path fill="#B3712E" d="M36.1,84.3c0,0-1.4-2.4-1.4-6.1c0-3.7-1-6.4-3.6-5c-2.6,1.4,0,4,1.5,2.3c0,0,0.2,1.8,0.2,4.2
	C32.8,82.1,34,84.5,36.1,84.3z"/>
<path fill="#B87530" d="M37.4,84.5c0,0-1-1.6-1-5.7s-0.8-8-3.7-6.4c-2.8,1.5,0,4.4,1.7,2.6c0,0,0.2,2,0.2,4.7
	C34.6,82.2,35,84.8,37.4,84.5z"/>
<path fill="#BD7831" d="M39,84.7c0,0-1.8-1.5-1.8-5.9c0-4.4-0.1-8.8-3.1-7.1c-3,1.6,0,4.7,1.8,2.8c0,0,0.2,2.1,0.2,5
	C36,82.3,36.5,84.9,39,84.7z"/>
<path fill="#D28537" d="M40.2,84.7c0,0-1.9-1.6-1.9-6.1c0-4.6-0.1-9.1-3.2-7.4c-3.2,1.7,0,4.9,1.8,2.9c0,0,0.2,2.2,0.2,5.2
	C37.1,82.2,37.6,85,40.2,84.7z"/>
<path fill="#333333" d="M30.6,82c0,0,7.2,4,18.8,1.4l0.7,1.7c0,0-9,3.5-20-1.3L30.6,82z"/>
<g>
	<path fill="#D28537" d="M46.1,81c0,0,0.2,0,0.5,0.1c0.1,0,0.3,0,0.5,0c0.2,0,0.4,0,0.5,0c0.2,0,0.4-0.1,0.5-0.1
		c0.2-0.1,0.3-0.1,0.4-0.1c0.2-0.1,0.4-0.2,0.4-0.2l0,0c0,0-0.1,0.2-0.3,0.4c-0.1,0.1-0.3,0.2-0.5,0.2c-0.2,0-0.4,0.1-0.6,0
		C46.8,81.4,46.1,81.1,46.1,81L46.1,81z"/>
</g>
<g>
	<path fill="#D28537" d="M42.9,81.1c0,0-0.7,0.3-1.5,0.3c-0.2,0-0.4,0-0.6,0c-0.2-0.1-0.3-0.2-0.5-0.2c-0.2-0.2-0.3-0.4-0.3-0.4l0,0
		c0,0,0.2,0.1,0.4,0.2c0.1,0,0.3,0.1,0.4,0.1c0.2,0,0.3,0.1,0.5,0.1c0.2,0,0.4,0,0.5,0c0.2,0,0.3,0,0.5,0
		C42.7,81.1,42.9,81,42.9,81.1L42.9,81.1z"/>
</g>
<g>
	<path fill="#2A3757" d="M43.9,79.8c0,0-0.2-0.2-0.5-0.3c-0.1,0-0.2-0.1-0.3-0.1c-0.1,0-0.2-0.1-0.3-0.1c-0.2,0-0.5-0.1-0.7-0.1
		c-0.2,0-0.5,0-0.7,0.1c-0.2,0-0.4,0-0.6,0.1c-0.4,0.1-0.6,0.1-0.6,0.1l0,0c0,0,0.2-0.2,0.5-0.3c0.2-0.1,0.4-0.2,0.6-0.2
		c0.2,0,0.5-0.1,0.8,0c0.3,0,0.5,0.1,0.7,0.1c0.2,0.1,0.4,0.2,0.6,0.3C43.7,79.5,43.9,79.7,43.9,79.8L43.9,79.8z"/>
</g>
<g>
	<path fill="#2A3757" d="M46.2,79.7c0,0,0.1-0.1,0.3-0.3c0.1-0.1,0.3-0.2,0.4-0.2c0.2-0.1,0.3-0.1,0.5-0.1c0.2,0,0.4-0.1,0.6,0
		c0.2,0,0.3,0.1,0.5,0.1c0.3,0.1,0.4,0.3,0.4,0.3l0,0c0,0-0.2,0-0.5,0c-0.1,0-0.3,0-0.4,0c-0.2,0-0.3-0.1-0.5-0.1
		c-0.2,0-0.3,0-0.5,0.1c-0.2,0-0.3,0.1-0.4,0.1C46.3,79.6,46.2,79.8,46.2,79.7L46.2,79.7z"/>
</g>
<g>
	<path fill="#2A3757" d="M45.5,80.3c0,0-0.1-0.5-0.1-1.3c0-0.4,0-0.8,0.1-1.3c0-0.2,0.1-0.5,0.2-0.7c0.1-0.2,0.2-0.5,0.3-0.7
		c0.1-0.2,0.1-0.4-0.1-0.5c-0.1-0.1-0.4-0.2-0.6-0.3c-0.2,0-0.4-0.1-0.6,0c-0.2,0-0.4,0-0.5,0.1c-0.2,0.1-0.3,0.2-0.4,0.3
		c-0.1,0.1-0.1,0.2-0.2,0.3c-0.1,0.2-0.1,0.3-0.1,0.3l0,0c0,0,0-0.1,0-0.4c0-0.1,0.1-0.3,0.2-0.4c0.1-0.1,0.2-0.3,0.4-0.4
		c0.2-0.1,0.4-0.2,0.6-0.2c0.2,0,0.5,0,0.7,0c0.3,0.1,0.5,0.2,0.7,0.4c0,0.1,0.1,0.1,0.1,0.2l0.1,0.2c0,0.2,0,0.3-0.1,0.4
		c-0.1,0.2-0.2,0.4-0.4,0.7c-0.1,0.2-0.2,0.5-0.2,0.7c-0.1,0.5-0.2,0.9-0.2,1.3C45.5,79.8,45.6,80.3,45.5,80.3L45.5,80.3z"/>
</g>
<g>
	<path fill="#2A3757" d="M42.6,73.8c0,0,1-0.1,2.1-0.1c0.5,0,1-0.1,1.4,0c0.4,0,0.7,0.1,0.7,0.1v0c0,0-0.3,0.1-0.7,0.1
		c-0.4,0.1-0.9,0-1.4,0C43.7,73.9,42.6,73.8,42.6,73.8L42.6,73.8z"/>
</g>
<g>
	<path fill="#2A3757" d="M44.2,72.8c0,0,0.4-0.1,0.7-0.1c0.2,0,0.4-0.1,0.5,0c0.1,0,0.2,0.1,0.2,0.1v0c0,0-0.1,0.1-0.2,0.1
		c-0.1,0.1-0.3,0-0.5,0C44.6,73,44.2,72.9,44.2,72.8L44.2,72.8z"/>
</g>
</svg>
