<?xml version="1.0" encoding="utf-8"?>
<!-- Generator: Adobe Illustrator 17.1.0, SVG Export Plug-In . SVG Version: 6.00 Build 0)  -->
<!DOCTYPE svg PUBLIC "-//W3C//DTD SVG 1.1//EN" "http://www.w3.org/Graphics/SVG/1.1/DTD/svg11.dtd">
<svg version="1.1" id="Layer_1" xmlns="http://www.w3.org/2000/svg" xmlns:xlink="http://www.w3.org/1999/xlink" x="0px" y="0px"
	 viewBox="0 0 75 100" enable-background="new 0 0 75 100" xml:space="preserve">
<rect fill="none" width="75" height="100"/>
<path fill="#c42b16" d="M56.7,18.4c-1.3,0-2.6,1.4-3.5,2.4c-0.8-1-2.2-2.4-3.5-2.4c-2.4,0-4.2,1.9-4.2,4.2c0,0,0,0,0,0c0,0,0,0,0,0
	c0,2.9,2.6,5.3,6.6,8.9l1.1,1.1v0l0,0l1.1-1.1c4-3.5,6.6-5.9,6.6-8.9C60.9,20.2,59.1,18.4,56.7,18.4z"/>
<path fill="#c42b16" d="M25.2,67.4c-1.3,0-2.6,1.4-3.5,2.4c-0.8-1-2.2-2.4-3.5-2.4c-2.4,0-4.2,1.9-4.2,4.2c0,0,0,0,0,0c0,0,0,0,0,0
	c0,2.9,2.6,5.3,6.6,8.9l1.1,1.1v0l0,0l1.1-1.1c4-3.5,6.6-5.9,6.6-8.9C29.5,69.3,27.6,67.4,25.2,67.4z"/>
<path fill="#c42b16" d="M25.2,18.4c-1.3,0-2.6,1.4-3.5,2.4c-0.8-1-2.2-2.4-3.5-2.4c-2.4,0-4.2,1.9-4.2,4.2c0,0,0,0,0,0c0,0,0,0,0,0
	c0,2.9,2.6,5.3,6.6,8.9l1.1,1.1v0l0,0l1.1-1.1c4-3.5,6.6-5.9,6.6-8.9C29.5,20.2,27.6,18.4,25.2,18.4z"/>
<path fill="#c42b16" d="M56.7,67.4c-1.3,0-2.6,1.4-3.5,2.4c-0.8-1-2.2-2.4-3.5-2.4c-2.4,0-4.2,1.9-4.2,4.2c0,0,0,0,0,0c0,0,0,0,0,0
	c0,2.9,2.6,5.3,6.6,8.9l1.1,1.1v0l0,0l1.1-1.1c4-3.5,6.6-5.9,6.6-8.9C60.9,69.3,59.1,67.4,56.7,67.4z"/>
</svg>
