<?xml version="1.0" encoding="utf-8"?>
<!-- Generator: Adobe Illustrator 17.1.0, SVG Export Plug-In . SVG Version: 6.00 Build 0)  -->
<!DOCTYPE svg PUBLIC "-//W3C//DTD SVG 1.1//EN" "http://www.w3.org/Graphics/SVG/1.1/DTD/svg11.dtd">
<svg version="1.1" id="Layer_1" xmlns="http://www.w3.org/2000/svg" xmlns:xlink="http://www.w3.org/1999/xlink" x="0px" y="0px"
	 viewBox="0 0 75 100" enable-background="new 0 0 75 100" xml:space="preserve">
<rect fill="none" width="75" height="100"/>
<path fill="#c42b16" d="M56.7,13.5c-1.3,0-2.6,1.4-3.5,2.4c-0.8-1-2.2-2.4-3.5-2.4c-2.4,0-4.2,1.9-4.2,4.2c0,0,0,0,0,0c0,0,0,0,0,0
	c0,2.9,2.6,5.3,6.6,8.9l1.1,1.1v0l0,0l1.1-1.1c4-3.5,6.6-5.9,6.6-8.9C60.9,15.3,59.1,13.5,56.7,13.5z"/>
<path fill="#c42b16" d="M25.2,13.5c-1.3,0-2.6,1.4-3.5,2.4c-0.8-1-2.2-2.4-3.5-2.4c-2.4,0-4.2,1.9-4.2,4.2c0,0,0,0,0,0c0,0,0,0,0,0
	c0,2.9,2.6,5.3,6.6,8.9l1.1,1.1v0l0,0l1.1-1.1c4-3.5,6.6-5.9,6.6-8.9C29.5,15.3,27.6,13.5,25.2,13.5z"/>
<path fill="#c42b16" d="M56.7,33.1c-1.3,0-2.6,1.4-3.5,2.4c-0.8-1-2.2-2.4-3.5-2.4c-2.4,0-4.2,1.9-4.2,4.2c0,0,0,0,0,0c0,0,0,0,0,0
	c0,2.9,2.6,5.3,6.6,8.9l1.1,1.1v0l0,0l1.1-1.1c4-3.5,6.6-5.9,6.6-8.9C60.9,35,59.1,33.1,56.7,33.1z"/>
<path fill="#c42b16" d="M25.2,33.1c-1.3,0-2.6,1.4-3.5,2.4c-0.8-1-2.2-2.4-3.5-2.4c-2.4,0-4.2,1.9-4.2,4.2c0,0,0,0,0,0c0,0,0,0,0,0
	c0,2.9,2.6,5.3,6.6,8.9l1.1,1.1v0l0,0l1.1-1.1c4-3.5,6.6-5.9,6.6-8.9C29.5,35,27.6,33.1,25.2,33.1z"/>
<path fill="#c42b16" d="M25.2,52.7c-1.3,0-2.6,1.4-3.5,2.4c-0.8-1-2.2-2.4-3.5-2.4c-2.4,0-4.2,1.9-4.2,4.2c0,0,0,0,0,0c0,0,0,0,0,0
	c0,2.9,2.6,5.3,6.6,8.9l1.1,1.1v0l0,0l1.1-1.1c4-3.5,6.6-5.9,6.6-8.9C29.5,54.6,27.6,52.7,25.2,52.7z"/>
<path fill="#c42b16" d="M56.7,52.7c-1.3,0-2.6,1.4-3.5,2.4c-0.8-1-2.2-2.4-3.5-2.4c-2.4,0-4.2,1.9-4.2,4.2c0,0,0,0,0,0c0,0,0,0,0,0
	c0,2.9,2.6,5.3,6.6,8.9l1.1,1.1v0l0,0l1.1-1.1c4-3.5,6.6-5.9,6.6-8.9C60.9,54.6,59.1,52.7,56.7,52.7z"/>
<path fill="#c42b16" d="M25.2,72.3c-1.3,0-2.6,1.4-3.5,2.4c-0.8-1-2.2-2.4-3.5-2.4c-2.4,0-4.2,1.9-4.2,4.2c0,0,0,0,0,0c0,0,0,0,0,0
	c0,2.9,2.6,5.3,6.6,8.9l1.1,1.1v0l0,0l1.1-1.1c4-3.5,6.6-5.9,6.6-8.9C29.5,74.2,27.6,72.3,25.2,72.3z"/>
<path fill="#c42b16" d="M56.7,72.3c-1.3,0-2.6,1.4-3.5,2.4c-0.8-1-2.2-2.4-3.5-2.4c-2.4,0-4.2,1.9-4.2,4.2c0,0,0,0,0,0c0,0,0,0,0,0
	c0,2.9,2.6,5.3,6.6,8.9l1.1,1.1v0l0,0l1.1-1.1c4-3.5,6.6-5.9,6.6-8.9C60.9,74.2,59.1,72.3,56.7,72.3z"/>
<path fill="#c42b16" d="M41,42.9c-1.3,0-2.6,1.4-3.5,2.4c-0.8-1-2.2-2.4-3.5-2.4c-2.4,0-4.2,1.9-4.2,4.2c0,0,0,0,0,0c0,0,0,0,0,0
	c0,2.9,2.6,5.3,6.6,8.9l1.1,1.1v0l0,0l1.1-1.1c4-3.5,6.6-5.9,6.6-8.9C45.2,44.8,43.4,42.9,41,42.9z"/>
</svg>
