<?xml version="1.0" encoding="utf-8"?>
<!-- Generator: Adobe Illustrator 17.1.0, SVG Export Plug-In . SVG Version: 6.00 Build 0)  -->
<!DOCTYPE svg PUBLIC "-//W3C//DTD SVG 1.1//EN" "http://www.w3.org/Graphics/SVG/1.1/DTD/svg11.dtd">
<svg version="1.1" id="Layer_1" xmlns="http://www.w3.org/2000/svg" xmlns:xlink="http://www.w3.org/1999/xlink" x="0px" y="0px"
	 viewBox="0 0 10 17" enable-background="new 0 0 10 17" xml:space="preserve">
<rect fill="none" width="10" height="17"/>
<path fill="#c42b16" d="M6.9,8.4C6.2,8.4,5.5,9.2,5,9.7C4.5,9.2,3.8,8.4,3.1,8.4c-1.3,0-2.3,1-2.3,2.3c0,0,0,0,0,0c0,0,0,0,0,0
	c0,1.6,1.4,2.8,3.5,4.7L5,16v0l0,0l0.6-0.6c2.1-1.9,3.5-3.2,3.5-4.7C9.1,9.4,8.1,8.4,6.9,8.4z"/>
</svg>
