<?xml version="1.0" encoding="utf-8"?>
<!-- Generator: Adobe Illustrator 17.1.0, SVG Export Plug-In . SVG Version: 6.00 Build 0)  -->
<!DOCTYPE svg PUBLIC "-//W3C//DTD SVG 1.1//EN" "http://www.w3.org/Graphics/SVG/1.1/DTD/svg11.dtd">
<svg version="1.1" id="Layer_1" xmlns="http://www.w3.org/2000/svg" xmlns:xlink="http://www.w3.org/1999/xlink" x="0px" y="0px"
	 viewBox="0 0 75 100" enable-background="new 0 0 75 100" xml:space="preserve">
<rect fill="none" width="75" height="100"/>
<path fill="#c42b16" d="M46.1,32.5c-3.2,0-6.5,3.5-8.6,5.9c-2.1-2.5-5.3-5.9-8.6-5.9c-5.9,0-10.4,4.6-10.4,10.4c0,0,0,0,0,0
	c0,0,0,0,0,0c0,7.2,6.5,13.1,16.3,21.9l2.6,2.6v0l0,0l2.7-2.7C50,56.1,56.5,50.2,56.5,43C56.5,37.1,51.9,32.5,46.1,32.5z"/>
</svg>
