<?xml version="1.0" encoding="utf-8"?>
<!-- Generator: Adobe Illustrator 17.1.0, SVG Export Plug-In . SVG Version: 6.00 Build 0)  -->
<!DOCTYPE svg PUBLIC "-//W3C//DTD SVG 1.1//EN" "http://www.w3.org/Graphics/SVG/1.1/DTD/svg11.dtd">
<svg version="1.1" id="Layer_1" xmlns="http://www.w3.org/2000/svg" xmlns:xlink="http://www.w3.org/1999/xlink" x="0px" y="0px"
	 viewBox="0 0 75 100" enable-background="new 0 0 75 100" xml:space="preserve">
<rect fill="none" width="75" height="100"/>
<path fill="#AA292E" d="M53,71.7c0,0,3.7-1.3,7.2-5.1v-4.6H53V71.7z"/>
<path fill="#AA292E" d="M50.1,14.8l3.9-5c0,0-7.5-5-9-5.1C43.4,4.7,26.2,10,26.2,10l3.9,6.2L50.1,14.8z"/>
<path fill="#1F2D6C" d="M30.1,8.8c0,0,2.1,6.8,2.7,7.3c0.6,0.5,3.3-0.8,3.3-0.8s-2.2-2.1-3.2-7.3L30.1,8.8z"/>
<path fill="#AA292E" d="M60.2,59.7V33.8c0,0-3.3-4.1-9.8-4.8C50.5,29,50.3,55.2,60.2,59.7z"/>
<rect x="37.8" y="30.4" fill="#0B050F" width="3.3" height="6.1"/>
<rect x="44.5" y="28.3" fill="#0B050F" width="3.3" height="6.1"/>
<rect x="34.5" y="28" fill="#AA292E" width="3.3" height="6.1"/>
<rect x="41.1" y="30" fill="#AA292E" width="3.3" height="6.1"/>
<rect x="31.2" y="26.2" fill="#0B050F" width="3.3" height="6.1"/>
<rect x="27.9" y="26.1" fill="#AA292E" width="3.3" height="3.8"/>
<polygon fill="#AD6E2D" points="47.8,26.2 47,28.9 49.6,29 "/>
<path fill="#0B050F" d="M51.3,29.1c0,0-1.2,17.1,8.9,30.5c0,1.2,0,1.8,0,1.8s-5.9-2.8-9.3-14.5c-3.4-11.7-1.8-17.8-1.8-17.8H51.3z"
	/>
<path fill="#1F2D6C" d="M49.8,29.5c0,0-0.3,11.3,2.5,18c2.8,6.7,4.7,11.3,8,13.9v5.2c0,0-9.1-8.8-12.1-18.8
	c-3-9.9-2.4-18.6-2.4-18.6L49.8,29.5z"/>
<ellipse fill="#AA292E" cx="48.1" cy="29.2" rx="1.9" ry="0.8"/>
<ellipse transform="matrix(0.9986 -5.260941e-002 5.260941e-002 0.9986 -1.5639 2.5664)" fill="#AA292E" cx="48" cy="31" rx="1.9" ry="0.8"/>
<ellipse transform="matrix(0.9942 -0.1072 0.1072 0.9942 -3.2633 5.3329)" fill="#AA292E" cx="48" cy="33" rx="1.8" ry="0.7"/>
<ellipse transform="matrix(0.9866 -0.1633 0.1633 0.9866 -5.1129 8.3275)" fill="#AA292E" cx="48.1" cy="35.3" rx="1.8" ry="0.7"/>
<ellipse transform="matrix(0.9754 -0.2204 0.2204 0.9754 -7.1181 11.5858)" fill="#AA292E" cx="48.4" cy="37.7" rx="1.8" ry="0.7"/>
<ellipse transform="matrix(0.9606 -0.278 0.278 0.9606 -9.2664 15.1354)" fill="#AA292E" cx="48.7" cy="40.2" rx="1.8" ry="0.7"/>
<ellipse transform="matrix(0.9421 -0.3354 0.3354 0.9421 -11.5332 19.0061)" fill="#AA292E" cx="49.3" cy="42.9" rx="1.8" ry="0.7"/>
<ellipse transform="matrix(0.9199 -0.3921 0.3921 0.9199 -13.8787 23.2163)" fill="#AA292E" cx="49.9" cy="45.6" rx="1.8" ry="0.7"/>
<ellipse transform="matrix(0.8946 -0.4468 0.4468 0.8946 -16.2402 27.7424)" fill="#AA292E" cx="50.7" cy="48.3" rx="1.8" ry="0.7"/>
<ellipse transform="matrix(0.8661 -0.4999 0.4999 0.8661 -18.5758 32.6492)" fill="#AA292E" cx="51.6" cy="51" rx="1.8" ry="0.7"/>
<ellipse transform="matrix(0.8346 -0.5509 0.5509 0.8346 -20.8108 37.9286)" fill="#AA292E" cx="52.7" cy="53.6" rx="1.8" ry="0.7"/>
<ellipse transform="matrix(0.8012 -0.5984 0.5984 0.8012 -22.8529 43.4784)" fill="#AA292E" cx="54" cy="56.1" rx="1.8" ry="0.7"/>
<ellipse transform="matrix(0.766 -0.6429 0.6429 0.766 -24.6372 49.3288)" fill="#AA292E" cx="55.4" cy="58.5" rx="1.8" ry="0.7"/>
<ellipse transform="matrix(0.7299 -0.6835 0.6835 0.7299 -26.0802 55.3718)" fill="#AA292E" cx="57" cy="60.7" rx="1.9" ry="0.7"/>
<ellipse transform="matrix(0.6929 -0.721 0.721 0.6929 -27.1142 61.6312)" fill="#AA292E" cx="58.8" cy="62.6" rx="1.9" ry="0.8"/>
<rect x="35.6" y="38.2" fill="#3856C8" width="5.3" height="5.9"/>
<polygon fill="#BF9B4D" points="35.9,43.9 40.9,43.9 40.9,49.2 "/>
<rect x="35.7" y="39.1" fill="#BF9B4D" width="5.3" height="4.3"/>
<polygon fill="#BF9B4D" points="35.7,38.7 40.9,38.7 40.9,37.3 35.7,34.1 "/>
<path fill="#AA292E" d="M41.9,49.7l-0.2-12.3l4.3-2.5c0,0,0.9,10.2,1.9,12C49,48.8,41.9,49.7,41.9,49.7z"/>
<polygon fill="#E8EFFF" points="42,49.7 40.7,49.1 40.7,36.5 42,36.5 "/>
<polygon fill="#0B050F" points="42.4,50.2 41.1,49.5 41.1,36.9 42.4,36.9 "/>
<path fill="#0B050F" d="M50.9,54.5c-0.4-1.1-1.2-2.1-1.7-3.2c-0.9-1.7-1.5-3.5-1.8-5.4c0,0-0.1,0-0.1,0c-2.7,0-4.9,1.7-5.9,4
	c0.2,0.2,0.4,0.5,0.6,0.7c0.4,0.4,1,0.7,1.4,1c1.1,0.9,2,2,3.2,2.7c0.9,0.5,2,0.9,3,1.2c0.4,0.2,0.9,0.3,1.3,0.4
	c0.1,0,0.3,0,0.4-0.1C51.2,55.4,51,54.9,50.9,54.5z"/>
<path fill="#BF9B4D" d="M50.9,54.5c-0.4-1.1-1.2-2.1-1.7-3.2c-0.8-1.6-1.4-3.2-1.7-4.9c-0.1,0-0.1,0-0.2,0c-2.5,0-4.7,1.6-5.5,3.9
	c0.1,0.1,0.2,0.2,0.3,0.2c0.4,0.4,1,0.7,1.4,1c1.1,0.9,2,2,3.2,2.7c0.9,0.5,2,0.9,3,1.2c0.4,0.2,0.9,0.3,1.3,0.4
	c0.1,0,0.3,0,0.4-0.1C51.2,55.4,51,54.9,50.9,54.5z"/>
<path fill="#3856C8" d="M49.1,51.3c-0.4-0.7-0.7-1.4-0.9-2.1c-0.3-0.1-0.6-0.1-1-0.1c-1.7,0-3.1,1.4-3.2,3.1
	c0.8,0.8,1.6,1.6,2.6,2.2c0.6,0.3,1.2,0.6,1.9,0.8c0.8-0.4,1.4-1,1.7-1.9C49.9,52.5,49.5,51.9,49.1,51.3z"/>
<polygon fill="#AA292E" points="29.4,39.7 34.6,42.7 34.8,33.1 29.4,30.1 "/>
<rect x="34.6" y="33.5" fill="#E8EFFF" width="1.3" height="9.8"/>
<path fill="#C9D8F7" d="M24.5,27.1c0,0,2.2-1.3,4.5-1.6l0.3,14c0,0-3.5-1.3-5.1-1.2L24.5,27.1z"/>
<polygon fill="#715C57" points="24.5,27.1 23.7,27.4 23.7,38.2 24.5,38.2 "/>
<path fill="#0B050F" d="M23.7,27.4c0,0-1.2,0.5-1.7,0.9v9.7h1.7V27.4z"/>
<path fill="#AA292E" d="M22,28.3c0,0-3.7,1.3-7.2,5.1v4.6H22V28.3z"/>
<rect x="34.1" y="33.1" fill="#0B050F" width="1.3" height="9.8"/>
<rect x="29" y="25.6" fill="#715C57" width="0.8" height="13.7"/>
<path fill="#AA7941" d="M50.3,56.1c-0.5,0-1.1-0.1-1.9-0.4c-2.6-1-5.8-3.7-9.5-8.1c-4.5-5.3-8.8-7.4-11.7-8.2
	c-3.1-0.9-6.7-0.7-6.7-0.7l-0.2-0.9c0.1,0,3.7-0.2,7,0.7c3,0.9,7.6,3,12.2,8.5C47.8,56.9,51,55.1,51,55l0.5,0.7
	C51.5,55.8,51.1,56.1,50.3,56.1z"/>
<path fill="#E8EFFF" d="M29.8,29.5c0,0,10.7,7,11.7,7c1,0,4-2.1,4-2.1v1.2c0,0-3.7,2.4-4.1,2.4c-0.5,0-11.6-7.2-11.6-7.2V29.5z"/>
<path fill="#BF9B4D" d="M31,26.2c0,0,9.1,6.7,10.3,6.7c1.3,0,5-3.3,5-3.3L31,26.2z"/>
<path fill="#BF9B4D" d="M29.8,28.7c0,0,10.7,7.1,11.7,7.1c1,0,4-2.4,4-2.4v1.2c0,0-3.7,2.4-4.1,2.4c-0.5,0-11.6-7-11.6-7V28.7z"/>
<path fill="#AA7941" d="M45.3,30c0,0,0,11.3,2.6,18.8c2.6,7.5,9.3,17.9,11.3,18.9l1.1-1.1c0,0-4.7-3.9-11.4-18.4
	c-1.7-7.2-1.8-4.1-2.6-18.7C45.4,14.9,45.3,30,45.3,30z"/>
<path fill="#DCE3F2" d="M36.9,28.7c0,0,3.7,2.7,4.5,2.7c0.8,0,2.5-1.5,2.5-1.5s-5.1-3.4-6.5-2.9C36,27.4,36.9,28.7,36.9,28.7z"/>
<path fill="#D28537" d="M47.3,15.3c0,0,1.7,1.7,1.3,6.3c-0.4,4.5-0.8,9.1,2.5,7.7c3.3-1.4,0.4-4.9-1.5-3.1c0,0,0-2.2,0.3-5.2
	C50.1,18.1,49.9,15.3,47.3,15.3z"/>
<path fill="#E8EFFF" d="M49,16c0,0,0.5,2.7,0,3.3c-0.5,0.6,0,1.4,0,2.1c0,0.7,0.7,6.3-3.1,8.3c-3.8,2-3.5-0.8-8.2-2.5
	c0,0-0.7-10.9,2.5-11.8C40.2,15.3,46.5,14.8,49,16z"/>
<path fill="#A86B2C" d="M33.4,16.7c0,0-1.2,1-1.2,4c0,3-1.5,6-3.6,4.9c-2.1-1.1,0-3.2,1.2-1.9c0,0,0.1-1.4,0.1-3.4
	C29.9,18.5,31,16.3,33.4,16.7z"/>
<path fill="#AD6E2D" d="M34.6,16.1c0,0-1.4,1.2-1.4,4.6c0,3.4-0.8,7-3.1,5.7c-2.4-1.3,0-3.7,1.4-2.2c0,0,0.2-1.7,0.2-3.9
	C31.5,18.1,32.6,15.8,34.6,16.1z"/>
<path fill="#B3712E" d="M36.1,15.7c0,0-1.4,2.4-1.4,6.1c0,3.7-1,6.4-3.6,5s0-4,1.5-2.3c0,0,0.2-1.8,0.2-4.2
	C32.8,17.9,34,15.5,36.1,15.7z"/>
<path fill="#B87530" d="M37.4,15.5c0,0-1,1.6-1,5.7c0,4.1-0.8,8-3.7,6.4c-2.8-1.5,0-4.4,1.7-2.6c0,0,0.2-2,0.2-4.7
	C34.6,17.8,35,15.3,37.4,15.5z"/>
<path fill="#BD7831" d="M39,15.3c0,0-1.8,1.5-1.8,5.9s-0.1,8.8-3.1,7.1c-3-1.6,0-4.7,1.8-2.8c0,0,0.2-2.1,0.2-5
	C36,17.7,36.5,15.1,39,15.3z"/>
<path fill="#D28537" d="M40.2,15.3c0,0-1.9,1.6-1.9,6.1c0,4.6-0.1,9.1-3.2,7.4c-3.2-1.7,0-4.9,1.8-2.9c0,0,0.2-2.2,0.2-5.2
	C37.1,17.8,37.6,15,40.2,15.3z"/>
<path fill="#333333" d="M30.6,18c0,0,7.2-4,18.8-1.4l0.7-1.7c0,0-9-3.5-20,1.3L30.6,18z"/>
<g>
	<path fill="#D28537" d="M46.1,18.9c0,0,0.7-0.3,1.5-0.3c0.2,0,0.4,0,0.6,0c0.2,0.1,0.3,0.2,0.5,0.2c0.2,0.2,0.3,0.4,0.3,0.4l0,0
		c0,0-0.2-0.1-0.4-0.2c-0.1,0-0.3-0.1-0.4-0.1c-0.2,0-0.3-0.1-0.5-0.1c-0.2,0-0.4,0-0.5,0c-0.2,0-0.3,0-0.5,0
		C46.3,18.9,46.1,19,46.1,18.9L46.1,18.9z"/>
</g>
<g>
	<path fill="#D28537" d="M42.9,19c0,0-0.2,0-0.5-0.1c-0.1,0-0.3,0-0.5,0c-0.2,0-0.4,0-0.5,0c-0.2,0-0.4,0.1-0.5,0.1
		c-0.2,0.1-0.3,0.1-0.4,0.1c-0.2,0.1-0.4,0.2-0.4,0.2l0,0c0,0,0.1-0.2,0.3-0.4c0.1-0.1,0.3-0.2,0.5-0.2c0.2,0,0.4-0.1,0.6,0
		C42.2,18.6,42.9,18.9,42.9,19L42.9,19z"/>
</g>
<g>
	<path fill="#2A3757" d="M43.9,20.3c0,0-0.2,0.2-0.5,0.4c-0.2,0.1-0.4,0.2-0.6,0.3c-0.2,0.1-0.5,0.1-0.7,0.1c-0.3,0-0.5,0-0.8,0
		c-0.2,0-0.5-0.1-0.6-0.2c-0.3-0.2-0.5-0.3-0.5-0.3l0,0c0,0,0.3,0,0.6,0.1c0.2,0.1,0.4,0.1,0.6,0.1c0.2,0.1,0.4,0.1,0.7,0.1
		c0.2,0,0.5,0,0.7-0.1c0.1,0,0.2-0.1,0.3-0.1c0.1,0,0.2-0.1,0.3-0.1C43.7,20.4,43.9,20.2,43.9,20.3L43.9,20.3z"/>
</g>
<g>
	<path fill="#2A3757" d="M46.2,20.2c0,0,0.1,0.1,0.4,0.2c0.1,0.1,0.3,0.1,0.4,0.1c0.2,0,0.3,0.1,0.5,0.1c0.2,0,0.3,0,0.5-0.1
		c0.2,0,0.3,0,0.4,0c0.3,0,0.5,0,0.5,0l0,0c0,0-0.1,0.1-0.4,0.3c-0.1,0.1-0.3,0.1-0.5,0.1c-0.2,0-0.4,0-0.6,0
		c-0.2,0-0.4-0.1-0.5-0.1c-0.2-0.1-0.3-0.1-0.4-0.2C46.3,20.4,46.2,20.3,46.2,20.2L46.2,20.2z"/>
</g>
<g>
	<path fill="#2A3757" d="M45.6,19.7c0,0,0,0.5,0,1.3c0,0.4,0.1,0.8,0.2,1.3c0.1,0.2,0.2,0.5,0.2,0.7c0.1,0.2,0.2,0.4,0.4,0.7
		c0.1,0.1,0.1,0.3,0.1,0.4l-0.1,0.2c0,0.1-0.1,0.1-0.1,0.2c-0.2,0.2-0.5,0.3-0.7,0.4c-0.3,0-0.5,0.1-0.7,0c-0.2,0-0.5-0.1-0.6-0.2
		c-0.2-0.1-0.3-0.2-0.4-0.4c-0.1-0.1-0.1-0.3-0.2-0.4c0-0.2,0-0.4,0-0.4l0,0c0,0,0,0.1,0.1,0.3c0.1,0.1,0.1,0.2,0.2,0.3
		c0.1,0.1,0.2,0.2,0.4,0.3c0.2,0.1,0.3,0.1,0.5,0.1c0.2,0,0.4,0,0.6,0c0.2,0,0.4-0.1,0.6-0.3c0.1-0.2,0.2-0.3,0.1-0.5
		c-0.1-0.2-0.2-0.5-0.3-0.7c-0.1-0.3-0.2-0.5-0.2-0.7c-0.1-0.5-0.1-0.9-0.1-1.3C45.4,20.2,45.5,19.7,45.6,19.7L45.6,19.7z"/>
</g>
<g>
	<path fill="#2A3757" d="M42.6,26.2c0,0,1-0.1,2.1-0.1c0.5,0,1-0.1,1.4,0c0.4,0,0.7,0.1,0.7,0.1v0c0,0-0.3,0.1-0.7,0.1
		c-0.4,0.1-0.9,0-1.4,0C43.7,26.3,42.6,26.2,42.6,26.2L42.6,26.2z"/>
</g>
<g>
	<path fill="#2A3757" d="M44.2,27.1c0,0,0.4-0.1,0.7-0.1c0.2,0,0.4-0.1,0.5,0c0.1,0,0.2,0.1,0.2,0.1v0c0,0-0.1,0.1-0.2,0.1
		c-0.1,0.1-0.3,0-0.5,0C44.6,27.2,44.2,27.2,44.2,27.1L44.2,27.1z"/>
</g>
<path fill="#AA292E" d="M24.9,85.2l-3.9,5c0,0,7.5,5,9,5.1c1.5,0.1,18.7-5.2,18.7-5.2l-3.9-6.2L24.9,85.2z"/>
<path fill="#1F2D6C" d="M44.9,91.2c0,0-2.1-6.8-2.7-7.3c-0.6-0.5-3.3,0.8-3.3,0.8s2.2,2.1,3.2,7.3L44.9,91.2z"/>
<path fill="#AA292E" d="M14.8,40.3v25.9c0,0,3.3,4.1,9.8,4.8C24.5,71,24.7,44.8,14.8,40.3z"/>
<rect x="33.9" y="63.4" fill="#0B050F" width="3.3" height="6.1"/>
<rect x="27.2" y="65.6" fill="#0B050F" width="3.3" height="6.1"/>
<rect x="37.2" y="65.9" fill="#AA292E" width="3.3" height="6.1"/>
<rect x="30.5" y="63.9" fill="#AA292E" width="3.3" height="6.1"/>
<rect x="40.4" y="67.7" fill="#0B050F" width="3.3" height="6.1"/>
<rect x="43.8" y="70.1" fill="#AA292E" width="3.3" height="3.8"/>
<polygon fill="#AD6E2D" points="27.2,73.8 28,71.1 25.4,71 "/>
<path fill="#0B050F" d="M23.7,70.9c0,0,1.2-17.1-8.9-30.5c0-1.2,0-1.8,0-1.8s5.9,2.8,9.3,14.5c3.4,11.7,1.8,17.8,1.8,17.8H23.7z"/>
<path fill="#1F2D6C" d="M25.2,70.5c0,0,0.3-11.3-2.5-18c-2.8-6.7-4.7-11.3-8-13.9v-5.1c0,0,5,1,12.1,18.8c3,9.9,2.4,18.6,2.4,18.6
	L25.2,70.5z"/>
<ellipse fill="#AA292E" cx="26.9" cy="70.8" rx="1.9" ry="0.8"/>
<ellipse transform="matrix(-0.9986 5.259652e-002 -5.259652e-002 -0.9986 57.6617 136.504)" fill="#AA292E" cx="27" cy="69" rx="1.9" ry="0.7"/>
<ellipse transform="matrix(-0.9942 0.1071 -0.1071 -0.9942 61.0629 130.6728)" fill="#AA292E" cx="27" cy="67" rx="1.8" ry="0.7"/>
<ellipse transform="matrix(-0.9866 0.1632 -0.1632 -0.9866 63.986 124.2028)" fill="#AA292E" cx="26.9" cy="64.7" rx="1.8" ry="0.7"/>
<ellipse transform="matrix(-0.9754 0.2204 -0.2204 -0.9754 66.3551 117.2185)" fill="#AA292E" cx="26.6" cy="62.3" rx="1.8" ry="0.7"/>
<ellipse transform="matrix(-0.9606 0.278 -0.278 -0.9606 68.0965 109.8576)" fill="#AA292E" cx="26.3" cy="59.8" rx="1.8" ry="0.7"/>
<ellipse transform="matrix(-0.942 0.3355 -0.3355 -0.942 69.1591 102.2704)" fill="#AA292E" cx="25.7" cy="57.1" rx="1.8" ry="0.7"/>
<ellipse transform="matrix(-0.9199 0.3921 -0.3921 -0.9199 69.5122 94.6202)" fill="#AA292E" cx="25.1" cy="54.4" rx="1.8" ry="0.7"/>
<ellipse transform="matrix(-0.8944 0.4472 -0.4472 -0.8944 69.1481 87.0674)" fill="#AA292E" cx="24.3" cy="51.7" rx="1.8" ry="0.7"/>
<ellipse transform="matrix(-0.8658 0.5005 -0.5005 -0.8658 68.0944 79.7485)" fill="#AA292E" cx="23.4" cy="49" rx="1.8" ry="0.7"/>
<ellipse transform="matrix(-0.8346 0.5509 -0.5509 -0.8346 66.3761 72.8366)" fill="#AA292E" cx="22.3" cy="46.4" rx="1.8" ry="0.7"/>
<ellipse transform="matrix(-0.8014 0.5982 -0.5982 -0.8014 64.0574 66.4661)" fill="#AA292E" cx="21" cy="43.9" rx="1.8" ry="0.7"/>
<ellipse transform="matrix(-0.766 0.6429 -0.6429 -0.766 61.2349 60.7035)" fill="#AA292E" cx="19.6" cy="41.5" rx="1.8" ry="0.7"/>
<ellipse transform="matrix(-0.7296 0.6838 -0.6838 -0.7296 57.9709 55.7076)" fill="#AA292E" cx="18" cy="39.3" rx="1.9" ry="0.7"/>
<ellipse transform="matrix(-0.693 0.721 -0.721 -0.693 54.3623 51.5575)" fill="#AA292E" cx="16.2" cy="37.4" rx="1.9" ry="0.8"/>
<rect x="34.1" y="55.9" fill="#3856C8" width="5.3" height="5.9"/>
<polygon fill="#BF9B4D" points="39.1,56.1 34.1,56.1 34.1,50.8 "/>
<rect x="34" y="56.6" fill="#BF9B4D" width="5.3" height="4.3"/>
<polygon fill="#BF9B4D" points="39.3,61.3 34.1,61.3 34.1,62.7 39.3,65.9 "/>
<path fill="#AA292E" d="M33.1,50.3l0.2,12.3l-4.3,2.5c0,0-0.9-10.2-1.9-12C26,51.2,33.1,50.3,33.1,50.3z"/>
<polygon fill="#E8EFFF" points="33,50.3 34.3,50.9 34.3,63.5 33,63.5 "/>
<polygon fill="#0B050F" points="32.6,49.8 33.9,50.5 33.9,63.1 32.6,63.1 "/>
<path fill="#0B050F" d="M24.1,45.5c0.4,1.1,1.2,2.1,1.7,3.2c0.9,1.7,1.5,3.5,1.8,5.4c0,0,0.1,0,0.1,0c2.7,0,4.9-1.7,5.9-4
	c-0.2-0.2-0.4-0.5-0.6-0.7c-0.4-0.4-1-0.7-1.4-1c-1.1-0.9-2-2-3.2-2.7c-0.9-0.5-2-0.9-3-1.2c-0.4-0.2-0.9-0.3-1.3-0.4
	c-0.1,0-0.3,0-0.4,0.1C23.8,44.6,24,45.1,24.1,45.5z"/>
<path fill="#BF9B4D" d="M24.1,45.5c0.4,1.1,1.2,2.1,1.7,3.2c0.8,1.6,1.4,3.2,1.7,4.9c0.1,0,0.1,0,0.2,0c2.5,0,4.7-1.6,5.5-3.9
	c-0.1-0.1-0.2-0.2-0.3-0.2c-0.4-0.4-1-0.7-1.4-1c-1.1-0.9-2-2-3.2-2.7c-0.9-0.5-2-0.9-3-1.2c-0.4-0.2-0.9-0.3-1.3-0.4
	c-0.1,0-0.3,0-0.4,0.1C23.8,44.6,24,45.1,24.1,45.5z"/>
<path fill="#3856C8" d="M25.9,48.7c0.4,0.7,0.7,1.4,0.9,2.1c0.3,0.1,0.6,0.1,1,0.1c1.7,0,3.1-1.4,3.2-3.1c-0.8-0.8-1.6-1.6-2.6-2.2
	c-0.6-0.3-1.2-0.6-1.9-0.8c-0.8,0.4-1.4,1-1.7,1.9C25.1,47.5,25.5,48.1,25.9,48.7z"/>
<polygon fill="#AA292E" points="45.6,60.3 40.4,57.3 40.2,66.9 45.6,69.9 "/>
<rect x="39.1" y="56.7" fill="#E8EFFF" width="1.3" height="9.8"/>
<path fill="#C9D8F7" d="M50.5,72.9c0,0-2.2,1.3-4.5,1.6l-0.3-14c0,0,3.5,1.3,5.1,1.2L50.5,72.9z"/>
<polygon fill="#715C57" points="50.5,72.9 51.3,72.6 51.3,61.8 50.5,61.8 "/>
<path fill="#0B050F" d="M51.3,72.6c0,0,1.2-0.5,1.7-0.9v-9.7h-1.7V72.6z"/>
<rect x="39.6" y="57.2" fill="#0B050F" width="1.3" height="9.8"/>
<rect x="45.2" y="60.7" fill="#715C57" width="0.8" height="13.7"/>
<path fill="#AA7941" d="M24.7,43.9c0.5,0,1.1,0.1,1.9,0.4c2.6,1,5.8,3.7,9.5,8.1c4.5,5.3,8.8,7.4,11.7,8.2c3.1,0.9,6.5,0.5,6.5,0.5
	l0.2,0.9c-0.1,0-3.6,0.5-6.9-0.5c-3-0.9-7.6-3-12.2-8.5C27.2,43.1,24,44.9,24,45l-0.5-0.7C23.5,44.2,23.9,43.9,24.7,43.9z"/>
<path fill="#E8EFFF" d="M45.2,70.5c0,0-10.7-7-11.7-7c-1,0-4,2.1-4,2.1v-1.2c0,0,3.7-2.4,4.1-2.4c0.5,0,11.6,7.2,11.6,7.2V70.5z"/>
<path fill="#BF9B4D" d="M44,73.8c0,0-9.1-6.7-10.3-6.7c-1.3,0-5,3.3-5,3.3L44,73.8z"/>
<path fill="#BF9B4D" d="M45.2,71.3c0,0-10.7-7.1-11.7-7.1c-1,0-4,2.4-4,2.4v-1.2c0,0,3.7-2.4,4.1-2.4c0.5,0,11.6,7,11.6,7V71.3z"/>
<path fill="#AA7941" d="M29.7,70c0,0,0-11.3-2.6-18.8c-2.6-7.5-8.7-17.8-11.4-18.8l-0.9,1c2.3,1.2,10,12.7,11.4,18.4
	c1.7,7.2,1.8,4.1,2.6,18.7C29.6,85.1,29.7,70,29.7,70z"/>
<path fill="#DCE3F2" d="M38.1,71.3c0,0-3.7-2.7-4.5-2.7c-0.8,0-2.5,1.5-2.5,1.5s5.1,3.4,6.5,2.9C39,72.6,38.1,71.3,38.1,71.3z"/>
<path fill="#D28537" d="M27.7,84.7c0,0-1.7-1.7-1.3-6.3c0.4-4.5,0.8-9.1-2.5-7.7c-3.3,1.4-0.4,4.9,1.5,3.1c0,0,0,2.2-0.3,5.2
	C24.9,81.9,25.1,84.7,27.7,84.7z"/>
<path fill="#E8EFFF" d="M26,84c0,0-0.5-2.7,0-3.3c0.5-0.6,0-1.4,0-2.1c0-0.7-0.7-6.3,3.1-8.3c3.8-2,3.5,0.8,8.2,2.5
	c0,0,0.7,10.9-2.5,11.8C34.8,84.7,28.5,85.2,26,84z"/>
<path fill="#A86B2C" d="M41.6,83.3c0,0,1.2-1,1.2-4c0-3,1.5-6,3.6-4.9c2.1,1.1,0,3.2-1.2,1.9c0,0-0.1,1.4-0.1,3.4
	C45.1,81.5,44,83.7,41.6,83.3z"/>
<path fill="#AD6E2D" d="M40.4,83.9c0,0,1.4-1.2,1.4-4.6c0-3.4,0.8-7,3.1-5.7c2.4,1.3,0,3.7-1.4,2.2c0,0-0.2,1.7-0.2,3.9
	C43.5,81.9,42.4,84.2,40.4,83.9z"/>
<path fill="#B3712E" d="M38.9,84.3c0,0,1.4-2.4,1.4-6.1c0-3.7,1-6.4,3.6-5c2.6,1.4,0,4-1.5,2.3c0,0-0.2,1.8-0.2,4.2
	C42.2,82.1,41,84.5,38.9,84.3z"/>
<path fill="#B87530" d="M37.6,84.5c0,0,1-1.6,1-5.7c0-4.1,0.8-8,3.7-6.4c2.8,1.5,0,4.4-1.7,2.6c0,0-0.2,2-0.2,4.7
	C40.4,82.2,40,84.8,37.6,84.5z"/>
<path fill="#BD7831" d="M36,84.7c0,0,1.8-1.5,1.8-5.9c0-4.4,0.1-8.8,3.1-7.1c3,1.6,0,4.7-1.8,2.8c0,0-0.2,2.1-0.2,5
	C39,82.3,38.5,84.9,36,84.7z"/>
<path fill="#D28537" d="M34.8,84.7c0,0,1.9-1.6,1.9-6.1c0-4.6,0.1-9.1,3.2-7.4c3.2,1.7,0,4.9-1.8,2.9c0,0-0.2,2.2-0.2,5.2
	S37.4,85,34.8,84.7z"/>
<path fill="#333333" d="M44.4,82c0,0-7.2,4-18.8,1.4l-0.7,1.7c0,0,9,3.5,20-1.3L44.4,82z"/>
<g>
	<path fill="#D28537" d="M28.9,81.1c0,0-0.7,0.3-1.5,0.3c-0.2,0-0.4,0-0.6,0c-0.2-0.1-0.3-0.2-0.5-0.2c-0.2-0.2-0.3-0.4-0.3-0.4l0,0
		c0,0,0.2,0.1,0.4,0.2c0.1,0,0.3,0.1,0.4,0.1c0.2,0,0.3,0.1,0.5,0.1c0.2,0,0.4,0,0.5,0c0.2,0,0.3,0,0.5,0
		C28.7,81.1,28.9,81,28.9,81.1L28.9,81.1z"/>
</g>
<g>
	<path fill="#D28537" d="M32.1,81c0,0,0.2,0,0.5,0.1c0.1,0,0.3,0,0.5,0c0.2,0,0.4,0,0.5,0c0.2,0,0.4-0.1,0.5-0.1
		c0.2-0.1,0.3-0.1,0.4-0.1c0.2-0.1,0.4-0.2,0.4-0.2l0,0c0,0-0.1,0.2-0.3,0.4c-0.1,0.1-0.3,0.2-0.5,0.2c-0.2,0-0.4,0.1-0.6,0
		C32.8,81.4,32.1,81.1,32.1,81L32.1,81z"/>
</g>
<g>
	<path fill="#2A3757" d="M31.1,79.7c0,0,0.2-0.2,0.5-0.4c0.2-0.1,0.4-0.2,0.6-0.3c0.2-0.1,0.5-0.1,0.7-0.1c0.3,0,0.5,0,0.8,0
		c0.2,0,0.5,0.1,0.6,0.2c0.3,0.2,0.5,0.3,0.5,0.3l0,0c0,0-0.3,0-0.6-0.1c-0.2-0.1-0.4-0.1-0.6-0.1c-0.2-0.1-0.4-0.1-0.7-0.1
		c-0.2,0-0.5,0-0.7,0.1c-0.1,0-0.2,0.1-0.3,0.1c-0.1,0-0.2,0.1-0.3,0.1C31.3,79.6,31.1,79.8,31.1,79.7L31.1,79.7z"/>
</g>
<g>
	<path fill="#2A3757" d="M28.8,79.8c0,0-0.1-0.1-0.4-0.2c-0.1-0.1-0.3-0.1-0.4-0.1c-0.2,0-0.3-0.1-0.5-0.1c-0.2,0-0.3,0-0.5,0.1
		c-0.2,0-0.3,0-0.4,0c-0.3,0-0.5,0-0.5,0l0,0c0,0,0.1-0.1,0.4-0.3c0.1-0.1,0.3-0.1,0.5-0.1c0.2,0,0.4,0,0.6,0c0.2,0,0.4,0.1,0.5,0.1
		c0.2,0.1,0.3,0.1,0.4,0.2C28.7,79.6,28.8,79.7,28.8,79.8L28.8,79.8z"/>
</g>
<g>
	<path fill="#2A3757" d="M29.4,80.3c0,0,0-0.5,0-1.3c0-0.4-0.1-0.8-0.2-1.3c-0.1-0.2-0.2-0.5-0.2-0.7c-0.1-0.2-0.2-0.4-0.4-0.7
		c-0.1-0.1-0.1-0.3-0.1-0.4l0.1-0.2c0-0.1,0.1-0.1,0.1-0.2c0.2-0.2,0.5-0.3,0.7-0.4c0.3,0,0.5-0.1,0.7,0c0.2,0,0.5,0.1,0.6,0.2
		c0.2,0.1,0.3,0.2,0.4,0.4c0.1,0.1,0.1,0.3,0.2,0.4c0,0.2,0,0.4,0,0.4l0,0c0,0,0-0.1-0.1-0.3c-0.1-0.1-0.1-0.2-0.2-0.3
		c-0.1-0.1-0.2-0.2-0.4-0.3c-0.2-0.1-0.3-0.1-0.5-0.1c-0.2,0-0.4,0-0.6,0c-0.2,0-0.4,0.1-0.6,0.3c-0.1,0.2-0.2,0.3-0.1,0.5
		c0.1,0.2,0.2,0.5,0.3,0.7c0.1,0.3,0.2,0.5,0.2,0.7c0.1,0.5,0.1,0.9,0.1,1.3C29.6,79.8,29.5,80.3,29.4,80.3L29.4,80.3z"/>
</g>
<g>
	<path fill="#2A3757" d="M32.4,73.9c0,0-1,0.1-2.1,0.1c-0.5,0-1,0.1-1.4,0c-0.4,0-0.7-0.1-0.7-0.1v0c0,0,0.3-0.1,0.7-0.1
		c0.4-0.1,0.9,0,1.4,0C31.3,73.7,32.4,73.8,32.4,73.9L32.4,73.9z"/>
</g>
<g>
	<path fill="#2A3757" d="M30.8,72.9c0,0-0.4,0.1-0.7,0.1c-0.2,0-0.4,0.1-0.5,0c-0.1,0-0.2-0.1-0.2-0.1v0c0,0,0.1-0.1,0.2-0.1
		c0.1-0.1,0.3,0,0.5,0C30.4,72.8,30.8,72.8,30.8,72.9L30.8,72.9z"/>
</g>
</svg>
