<?xml version="1.0" encoding="utf-8"?>
<!-- Generator: Adobe Illustrator 17.1.0, SVG Export Plug-In . SVG Version: 6.00 Build 0)  -->
<!DOCTYPE svg PUBLIC "-//W3C//DTD SVG 1.1//EN" "http://www.w3.org/Graphics/SVG/1.1/DTD/svg11.dtd">
<svg version="1.1" id="Layer_1" xmlns="http://www.w3.org/2000/svg" xmlns:xlink="http://www.w3.org/1999/xlink" x="0px" y="0px"
	 viewBox="0 0 75 100" enable-background="new 0 0 75 100" xml:space="preserve">
<rect fill="none" width="75" height="100"/>
<path fill="#AA292E" d="M20.6,73.6c0,0-4.1-1.5-7.8-5.6v-5h7.8V73.6z"/>
<path fill="#AA292E" d="M12.8,60.5V32.3c0,0,3.5-4.5,10.6-5.2C23.4,27.2,23.5,55.7,12.8,60.5z"/>
<rect x="33.5" y="28.7" fill="#0B050F" width="3.6" height="6.6"/>
<rect x="26.3" y="26.4" fill="#0B050F" width="3.6" height="6.6"/>
<rect x="37.2" y="26.1" fill="#AA292E" width="3.6" height="6.6"/>
<rect x="29.9" y="28.2" fill="#AA292E" width="3.6" height="6.6"/>
<rect x="40.7" y="24.1" fill="#0B050F" width="3.6" height="6.6"/>
<rect x="44.3" y="23.9" fill="#AA292E" width="3.6" height="4.1"/>
<path fill="#0B050F" d="M22.4,27.3c0,0,1.3,18.6-9.7,33.2c0,1.3,0,1.9,0,1.9s6.4-3,10.1-15.8c3.7-12.8,2-19.4,2-19.4H22.4z"/>
<path fill="#F2F2F2" d="M24.1,27.7c0,0,0.3,12.3-2.7,19.6c-3,7.3-5.1,12.4-8.7,15.1V68c0,0,9.9-9.6,13.2-20.4s2.6-20.3,2.6-20.3
	L24.1,27.7z"/>
<ellipse fill="#AA292E" cx="26" cy="27.4" rx="2.1" ry="0.8"/>
<ellipse transform="matrix(-0.9986 -5.267342e-002 5.267342e-002 -0.9986 50.6395 59.9245)" fill="#AA292E" cx="26.1" cy="29.3" rx="2" ry="0.8"/>
<ellipse transform="matrix(-0.9943 -0.1068 0.1068 -0.9943 48.6786 65.624)" fill="#AA292E" cx="26.1" cy="31.5" rx="2" ry="0.8"/>
<ellipse transform="matrix(-0.9866 -0.1629 0.1629 -0.9866 46.0332 71.6823)" fill="#AA292E" cx="26" cy="34" rx="2" ry="0.8"/>
<ellipse transform="matrix(-0.9754 -0.2205 0.2205 -0.9754 42.6579 77.9384)" fill="#AA292E" cx="25.7" cy="36.6" rx="1.9" ry="0.8"/>
<ellipse transform="matrix(-0.9607 -0.2777 0.2777 -0.9607 38.6081 84.2)" fill="#AA292E" cx="25.3" cy="39.4" rx="1.9" ry="0.8"/>
<ellipse transform="matrix(-0.9421 -0.3352 0.3352 -0.9421 33.8215 90.3321)" fill="#AA292E" cx="24.7" cy="42.2" rx="1.9" ry="0.8"/>
<ellipse transform="matrix(-0.92 -0.3918 0.3918 -0.92 28.3682 96.1625)" fill="#AA292E" cx="24" cy="45.2" rx="1.9" ry="0.8"/>
<ellipse transform="matrix(-0.8945 -0.4471 0.4471 -0.8945 22.2975 101.5419)" fill="#AA292E" cx="23.1" cy="48.1" rx="1.9" ry="0.8"/>
<ellipse transform="matrix(-0.8659 -0.5002 0.5002 -0.8659 15.6961 106.339)" fill="#AA292E" cx="22.1" cy="51.1" rx="1.9" ry="0.8"/>
<ellipse transform="matrix(-0.8346 -0.5509 0.5509 -0.8346 8.6492 110.4351)" fill="#AA292E" cx="20.9" cy="53.9" rx="1.9" ry="0.8"/>
<ellipse transform="matrix(-0.8012 -0.5985 0.5985 -0.8012 1.2782 113.7392)" fill="#AA292E" cx="19.5" cy="56.7" rx="2" ry="0.8"/>
<ellipse transform="matrix(-0.7661 -0.6428 0.6428 -0.7661 -6.3149 116.1762)" fill="#AA292E" cx="18" cy="59.2" rx="2" ry="0.8"/>
<ellipse transform="matrix(-0.7299 -0.6835 0.6835 -0.7299 -14.0071 117.6961)" fill="#AA292E" cx="16.2" cy="61.6" rx="2" ry="0.8"/>
<ellipse transform="matrix(-0.6929 -0.721 0.721 -0.6929 -21.72 118.2452)" fill="#AA292E" cx="14.3" cy="63.7" rx="2.1" ry="0.8"/>
<rect x="33.8" y="37.2" fill="#3856C8" width="5.8" height="6.4"/>
<polygon fill="#BF9B4D" points="39.3,43.3 33.8,43.3 33.8,49.1 "/>
<rect x="33.7" y="38.1" fill="#BF9B4D" width="5.8" height="4.7"/>
<polygon fill="#BF9B4D" points="39.5,37.7 33.8,37.7 33.8,36.1 39.5,32.7 "/>
<path fill="#AA292E" d="M32.7,49.6l0.2-13.4l-4.7-2.7c0,0-0.9,11.1-2,13.1C25,48.6,32.7,49.6,32.7,49.6z"/>
<polygon fill="#E8EFFF" points="32.6,49.7 34,49 34,35.3 32.6,35.3 "/>
<polygon fill="#0B050F" points="32.1,50.2 33.5,49.5 33.5,35.8 32.1,35.8 "/>
<path fill="#0B050F" d="M23,54.8c0.5-1.2,1.3-2.3,1.9-3.5c1-1.9,1.7-3.8,2-5.9c0,0,0.1,0,0.1,0c2.9,0,5.4,1.8,6.4,4.3
	c-0.2,0.2-0.4,0.5-0.7,0.7c-0.5,0.4-1,0.7-1.6,1.1c-1.2,0.9-2.2,2.2-3.5,3c-1,0.6-2.1,0.9-3.2,1.3c-0.5,0.2-0.9,0.3-1.4,0.5
	c-0.1,0-0.3,0-0.4-0.1C22.6,55.8,22.8,55.3,23,54.8z"/>
<path fill="#BF9B4D" d="M23,54.8c0.5-1.2,1.3-2.3,1.9-3.5c0.9-1.7,1.5-3.5,1.9-5.4c0.1,0,0.1,0,0.2,0c2.8,0,5.1,1.8,6,4.2
	c-0.1,0.1-0.2,0.2-0.3,0.3c-0.5,0.4-1,0.7-1.6,1.1c-1.2,0.9-2.2,2.2-3.5,3c-1,0.6-2.1,0.9-3.2,1.3c-0.5,0.2-0.9,0.3-1.4,0.5
	c-0.1,0-0.3,0-0.4-0.1C22.6,55.8,22.8,55.3,23,54.8z"/>
<path fill="#3856C8" d="M24.8,51.4c0.4-0.7,0.7-1.5,1-2.3c0.3-0.1,0.7-0.2,1-0.2c1.9,0,3.4,1.5,3.4,3.3c-0.9,0.8-1.7,1.8-2.8,2.3
	c-0.7,0.4-1.3,0.6-2,0.9c-0.9-0.4-1.6-1.1-1.9-2C24,52.8,24.5,52.1,24.8,51.4z"/>
<polygon fill="#AA292E" points="46.3,38.8 40.7,42.1 40.4,31.6 46.3,28.3 "/>
<rect x="39.3" y="32" fill="#E8EFFF" width="1.4" height="10.6"/>
<path fill="#C9D8F7" d="M51.7,25.1c0,0-2.4-1.4-4.9-1.7l-0.3,15.2c0,0,3.8-1.4,5.6-1.4L51.7,25.1z"/>
<polygon fill="#715C57" points="51.7,25.1 52.6,25.4 52.6,37.1 51.7,37.1 "/>
<path fill="#0B050F" d="M52.6,25.4c0,0,1.3,0.5,1.9,1V37h-1.9V25.4z"/>
<path fill="#AA292E" d="M54.4,26.4c0,0,4.1,1.5,7.8,5.6v5h-7.8V26.4z"/>
<rect x="39.8" y="31.6" fill="#0B050F" width="1.4" height="10.6"/>
<rect x="45.9" y="23.4" fill="#715C57" width="0.9" height="14.9"/>
<path fill="#AA7941" d="M23.6,56.6c0.5,0,1.2-0.1,2.1-0.4c2.9-1.1,6.3-4.1,10.4-8.8c4.9-5.8,9.6-8.1,12.8-9c3.4-1,7.3-0.8,7.3-0.8
	l0.2-0.9c-0.1,0-4.1-0.2-7.7,0.8c-3.3,0.9-8.3,3.3-13.3,9.3c-9,10.8-12.5,8.8-12.5,8.8l-0.5,0.8C22.3,56.3,22.7,56.6,23.6,56.6z"/>
<path fill="#E8EFFF" d="M45.9,27.7c0,0-11.7,7.6-12.8,7.6S28.7,33,28.7,33v1.3c0,0,4,2.7,4.5,2.7c0.5,0,12.7-7.9,12.7-7.9V27.7z"/>
<path fill="#BF9B4D" d="M44.6,24c0,0-9.9,7.2-11.3,7.2c-1.4,0-5.5-3.6-5.5-3.6L44.6,24z"/>
<path fill="#BF9B4D" d="M45.9,26.8c0,0-11.7,7.7-12.8,7.7s-4.4-2.6-4.4-2.6v1.3c0,0,4,2.6,4.5,2.6c0.5,0,12.7-7.6,12.7-7.6V26.8z"/>
<path fill="#AA7941" d="M29,28.2c0,0,0,12.3-2.9,20.4c-2.9,8.1-10.1,19.5-12.3,20.6L12.8,68c0,0,5.1-4.2,12.4-20
	c1.9-7.8,2-4.4,2.9-20.3C29,11.8,29,28.2,29,28.2z"/>
<path fill="#AA292E" d="M62.2,39.5v28.2c0,0-3.5,4.5-10.6,5.2C51.6,72.8,51.5,44.3,62.2,39.5z"/>
<rect x="37.8" y="64.6" fill="#0B050F" width="3.6" height="6.6"/>
<rect x="45.1" y="66.9" fill="#0B050F" width="3.6" height="6.6"/>
<rect x="34.2" y="67.3" fill="#AA292E" width="3.6" height="6.6"/>
<rect x="41.5" y="65.1" fill="#AA292E" width="3.6" height="6.7"/>
<rect x="30.7" y="69.3" fill="#0B050F" width="3.6" height="6.7"/>
<rect x="27" y="71.9" fill="#AA292E" width="3.6" height="4.1"/>
<path fill="#0B050F" d="M52.6,72.7c0,0-1.3-18.6,9.7-33.2c0-1.3,0-1.9,0-1.9s-6.4,3-10.1,15.8c-3.7,12.8-2,19.4-2,19.4H52.6z"/>
<path fill="#F2F2F2" d="M50.9,72.3c0,0-0.3-12.3,2.7-19.6c3-7.3,5.1-12.4,8.7-15.1V32c0,0-5.4,1.1-13.2,20.4
	c-3.3,10.8-2.7,20.3-2.7,20.3L50.9,72.3z"/>
<ellipse fill="#AA292E" cx="49" cy="72.6" rx="2.1" ry="0.8"/>
<ellipse transform="matrix(0.9986 5.266029e-002 -5.266029e-002 0.9986 3.7895 -2.4765)" fill="#AA292E" cx="48.9" cy="70.7" rx="2" ry="0.8"/>
<ellipse transform="matrix(0.9942 0.1072 -0.1072 0.9942 7.6226 -4.849)" fill="#AA292E" cx="48.9" cy="68.5" rx="2" ry="0.8"/>
<ellipse transform="matrix(0.9866 0.1633 -0.1633 0.9866 11.4392 -7.1232)" fill="#AA292E" cx="49" cy="66" rx="2" ry="0.8"/>
<ellipse transform="matrix(0.9754 0.2205 -0.2205 0.9754 15.1926 -9.3166)" fill="#AA292E" cx="49.3" cy="63.4" rx="1.9" ry="0.8"/>
<ellipse transform="matrix(0.9607 0.2777 -0.2777 0.9607 18.7828 -11.4263)" fill="#AA292E" cx="49.7" cy="60.6" rx="1.9" ry="0.8"/>
<ellipse transform="matrix(0.9421 0.3352 -0.3352 0.9421 22.2607 -13.52)" fill="#AA292E" cx="50.3" cy="57.7" rx="1.9" ry="0.8"/>
<ellipse transform="matrix(0.92 0.3918 -0.3918 0.92 25.5447 -15.6045)" fill="#AA292E" cx="51" cy="54.8" rx="1.9" ry="0.8"/>
<ellipse transform="matrix(0.8945 0.447 -0.447 0.8945 28.6393 -17.7197)" fill="#AA292E" cx="51.9" cy="51.8" rx="1.9" ry="0.8"/>
<ellipse transform="matrix(0.8658 0.5003 -0.5003 0.8658 31.5663 -19.9057)" fill="#AA292E" cx="52.9" cy="48.9" rx="1.9" ry="0.8"/>
<ellipse transform="matrix(0.8347 0.5508 -0.5508 0.8347 34.306 -22.1797)" fill="#AA292E" cx="54.1" cy="46" rx="1.9" ry="0.8"/>
<ellipse transform="matrix(0.8012 0.5985 -0.5985 0.8012 36.9489 -24.5813)" fill="#AA292E" cx="55.5" cy="43.3" rx="2" ry="0.8"/>
<ellipse transform="matrix(0.7662 0.6426 -0.6426 0.7662 39.5042 -27.1152)" fill="#AA292E" cx="57" cy="40.7" rx="2" ry="0.8"/>
<ellipse transform="matrix(0.7299 0.6835 -0.6835 0.7299 42.0824 -29.8)" fill="#AA292E" cx="58.8" cy="38.4" rx="2" ry="0.8"/>
<ellipse transform="matrix(0.6929 0.721 -0.721 0.6929 44.7495 -32.6277)" fill="#AA292E" cx="60.7" cy="36.2" rx="2.1" ry="0.8"/>
<rect x="35.5" y="56.4" fill="#3856C8" width="5.8" height="6.4"/>
<polygon fill="#BF9B4D" points="35.7,56.7 41.2,56.7 41.2,50.9 "/>
<rect x="35.5" y="57.2" fill="#BF9B4D" width="5.8" height="4.7"/>
<polygon fill="#BF9B4D" points="35.5,62.3 41.2,62.3 41.2,63.9 35.5,67.3 "/>
<path fill="#AA292E" d="M42.3,50.3l-0.2,13.4l4.7,2.7c0,0,0.9-11.1,2-13.1C50,51.3,42.3,50.3,42.3,50.3z"/>
<polygon fill="#E8EFFF" points="42.4,50.3 41,51 41,64.7 42.4,64.7 "/>
<polygon fill="#0B050F" points="42.9,49.8 41.5,50.5 41.5,64.2 42.9,64.2 "/>
<path fill="#0B050F" d="M52,45.1c-0.5,1.2-1.3,2.3-1.9,3.5c-1,1.9-1.7,3.8-2,5.9c0,0-0.1,0-0.1,0c-2.9,0-5.4-1.8-6.4-4.3
	c0.2-0.2,0.4-0.5,0.7-0.7c0.5-0.4,1.1-0.7,1.6-1.1c1.2-0.9,2.2-2.2,3.5-3c1-0.6,2.1-0.9,3.2-1.3c0.5-0.2,0.9-0.3,1.4-0.5
	c0.1,0,0.3,0,0.4,0.1C52.4,44.1,52.2,44.7,52,45.1z"/>
<path fill="#BF9B4D" d="M52,45.1c-0.5,1.2-1.3,2.3-1.9,3.5c-0.9,1.7-1.5,3.5-1.9,5.4c-0.1,0-0.1,0-0.2,0c-2.8,0-5.1-1.8-6-4.3
	c0.1-0.1,0.2-0.2,0.3-0.3c0.5-0.4,1.1-0.7,1.6-1.1c1.2-0.9,2.2-2.2,3.5-3c1-0.6,2.1-0.9,3.2-1.3c0.5-0.2,0.9-0.3,1.4-0.5
	c0.1,0,0.3,0,0.4,0.1C52.4,44.1,52.2,44.7,52,45.1z"/>
<path fill="#3856C8" d="M50.2,48.6c-0.4,0.8-0.7,1.5-1,2.3c-0.3,0.1-0.7,0.2-1,0.2c-1.9,0-3.4-1.5-3.4-3.3c0.9-0.8,1.7-1.8,2.8-2.3
	c0.7-0.4,1.3-0.6,2-0.9c0.9,0.4,1.6,1.1,1.9,2C51,47.2,50.5,47.9,50.2,48.6z"/>
<polygon fill="#AA292E" points="28.7,61.2 34.3,57.9 34.6,68.4 28.7,71.7 "/>
<rect x="34.3" y="57.3" fill="#E8EFFF" width="1.4" height="10.6"/>
<path fill="#C9D8F7" d="M23.3,74.9c0,0,2.4,1.4,4.9,1.7l0.3-15.2c0,0-3.8,1.4-5.6,1.4L23.3,74.9z"/>
<polygon fill="#715C57" points="23.3,74.9 22.4,74.5 22.4,62.8 23.3,62.8 "/>
<path fill="#0B050F" d="M22.4,74.5c0,0-1.3-0.5-1.9-1V63h1.9V74.5z"/>
<rect x="33.8" y="57.8" fill="#0B050F" width="1.4" height="10.6"/>
<rect x="28.2" y="61.7" fill="#715C57" width="0.9" height="14.9"/>
<path fill="#AA7941" d="M51.4,43.4c-0.5,0-1.2,0.1-2.1,0.4c-2.9,1.1-6.3,4.1-10.4,8.8c-4.9,5.8-9.6,8.1-12.8,9
	c-3.4,1-7.1,0.5-7.1,0.5l-0.2,0.9c0.1,0,3.9,0.5,7.5-0.5c3.3-0.9,8.3-3.3,13.3-9.3c9-10.8,12.5-8.8,12.5-8.8l0.5-0.8
	C52.7,43.7,52.3,43.4,51.4,43.4z"/>
<path fill="#E8EFFF" d="M29.1,72.3c0,0,11.7-7.6,12.8-7.6s4.4,2.3,4.4,2.3v-1.3c0,0-4-2.7-4.5-2.7c-0.5,0-12.7,7.9-12.7,7.9V72.3z"
	/>
<path fill="#BF9B4D" d="M30.4,75.9c0,0,9.9-7.2,11.3-7.2c1.4,0,5.5,3.6,5.5,3.6L30.4,75.9z"/>
<path fill="#BF9B4D" d="M29.1,73.2c0,0,11.7-7.7,12.8-7.7s4.4,2.6,4.4,2.6v-1.3c0,0-4-2.6-4.5-2.6c-0.5,0-12.7,7.6-12.7,7.6V73.2z"
	/>
<path fill="#AA7941" d="M46,71.8c0,0,0-12.3,2.9-20.4c2.9-8.1,9.5-19.4,12.4-20.4l1,1c-2.6,1.3-10.8,13.8-12.4,20
	c-1.9,7.8-2,4.4-2.9,20.3C46,88.2,46,71.8,46,71.8z"/>
<path fill="#E6E6E6" d="M27.6,11.1c0,0,0.6,5.8,0,7C27,19.4,25.8,22,25.8,22s2.6-0.9,2.6,1.7c0.1,2.7-2.1,2.5-2.9,2.5
	c-0.8,0-3.1-0.9-1.6-4.6c1.5-3.7,1.8-2.2,2-4.9c0.2-2.7,0-5.4,0-5.4L27.6,11.1z"/>
<path fill="#F2F2F2" d="M26.8,9.4c0,0,0.6,5.8,0,7c-0.6,1.2-1.8,3.8-1.8,3.8s2.6-0.9,2.6,1.7c0.1,2.7-2.1,2.5-2.9,2.5
	c-0.8,0-3.1-0.9-1.6-4.6c1.5-3.7,1.8-2.2,2-4.9c0.2-2.7,0-5.4,0-5.4L26.8,9.4z"/>
<path fill="#E6E6E6" d="M25.7,17.8c0,0-4.5,17,5.7,17s9-13,5.8-17.6C34,12.7,25.7,17.8,25.7,17.8z"/>
<path fill="#E8EFFF" d="M25.9,10.7c0,0-0.7,2.8-0.3,3.7c0.5,0.9,0,2.5,0.1,3.4c0.1,0.9,1.3,2.4,4,0.6c0,0,6.9,3.7,6.9-1.1
	c0.1-4.7-0.3-7.2-0.3-7.2S28,9.2,25.9,10.7z"/>
<path fill="#666666" d="M44.5,8.6c0,0-0.6,5.8,0,7c0.6,1.2,1.8,3.8,1.8,3.8s-2.6-0.9-2.6,1.7c-0.1,2.7,2.1,2.5,2.9,2.5
	c0.8,0,3.1-0.9,1.6-4.6c-1.5-3.7-1.8-2.2-2-4.9c-0.2-2.7,0-5.4,0-5.4L44.5,8.6z"/>
<path fill="#808080" d="M43.7,9.4c0,0-0.6,5.8,0,7c0.6,1.2,1.8,3.8,1.8,3.8s-2.6-0.9-2.6,1.7c-0.1,2.7,2.1,2.5,2.9,2.5
	c0.8,0,3.1-0.9,1.6-4.6c-1.5-3.7-1.8-2.2-2-4.9c-0.2-2.7,0-5.4,0-5.4L43.7,9.4z"/>
<path fill="#999999" d="M42.5,10.3c0,0-0.6,5.8,0,7c0.6,1.2,1.8,3.8,1.8,3.8s-2.6-0.9-2.6,1.7c-0.1,2.7,2.1,2.5,2.9,2.5
	c0.8,0,3.1-0.9,1.6-4.6c-1.5-3.7-1.8-2.2-2-4.9c-0.2-2.7,0-5.4,0-5.4L42.5,10.3z"/>
<path fill="#B3B3B3" d="M40.8,10.5c0,0-0.6,5.8,0,7c0.6,1.2,1.8,3.8,1.8,3.8s-2.6-0.9-2.6,1.7c-0.1,2.7,2.1,2.5,2.9,2.5
	c0.8,0,3.1-0.9,1.6-4.6c-1.5-3.7-1.8-2.2-2-4.9c-0.2-2.7,0-5.4,0-5.4L40.8,10.5z"/>
<path fill="#CCCCCC" d="M39.2,10.3c0,0-0.6,5.8,0,7c0.6,1.2,1.8,3.8,1.8,3.8s-2.6-0.9-2.6,1.7c-0.1,2.7,2.1,2.5,2.9,2.5
	c0.8,0,3.1-0.9,1.6-4.6c-1.5-3.7-1.8-2.2-2-4.9c-0.2-2.7,0-5.4,0-5.4L39.2,10.3z"/>
<path fill="#E6E6E6" d="M37.5,10c0,0-0.6,5.8,0,7c0.6,1.2,1.8,3.8,1.8,3.8s-2.6-0.9-2.6,1.7c-0.1,2.7,2.1,2.5,2.9,2.5
	c0.8,0,3.1-0.9,1.6-4.6s-1.8-2.2-2-4.9c-0.2-2.7,0-5.4,0-5.4L37.5,10z"/>
<path fill="#F2F2F2" d="M36,9.7c0,0-0.6,5.8,0,7c0.6,1.2,1.8,3.8,1.8,3.8s-2.6-0.9-2.6,1.7c-0.1,2.7,2.1,2.5,2.9,2.5
	c0.8,0,3.1-0.9,1.6-4.6c-1.5-3.7-1.8-2.2-2-4.9c-0.2-2.7,0-5.4,0-5.4L36,9.7z"/>
<path fill="#F2F2F2" d="M29.7,18.4c0,0-2.7,0.2-3.7,1.9c0,0,1.5,1.4,3.6,0.4c0,0,2.4,0.9,4.6,0.3C34.1,21,32.6,18.7,29.7,18.4z"/>
<path fill="#BF9B4D" d="M47.7,2.8l-3.3-0.7l-0.7,3.2C42.9,5.1,42,5,41.1,4.8l0.4-3.1l-3.5-0.4l-0.4,3.2c-1-0.1-2-0.1-3-0.1V1.1h-3.6
	v3.2c-1.1,0-2.1,0.1-2.9,0.1l-0.5-3.3l-3.9,0.7l1.3,7.8l0.7-0.1l0,0.3L45,10.6l0-0.3l1,0.2L47.7,2.8z"/>
<path fill="#0B050F" d="M25.1,11c0,0,10-1.5,21,1.1l0.1-1.8c0,0-13.8-3.2-21.4-0.8L25.1,11z"/>
<g>
	<path fill="#808080" d="M28.5,13.4c0,0-0.2,0-0.4-0.1c-0.3,0-0.6,0-0.9,0c-0.2,0-0.3,0.1-0.5,0.1c-0.1,0.1-0.3,0.1-0.4,0.1
		c-0.2,0.1-0.4,0.2-0.4,0.2l0,0c0,0,0.1-0.2,0.3-0.4c0.1-0.1,0.3-0.2,0.4-0.2c0.2,0,0.4-0.1,0.5,0C27.9,13.1,28.6,13.4,28.5,13.4
		L28.5,13.4z"/>
</g>
<g>
	<path fill="#808080" d="M31.5,13.4c0,0,0.7-0.3,1.4-0.3c0.2,0,0.4,0,0.5,0c0.2,0,0.3,0.1,0.4,0.2c0.2,0.2,0.3,0.4,0.3,0.4l0,0
		c0,0-0.2-0.1-0.4-0.2c-0.1,0-0.3-0.1-0.4-0.1c-0.2,0-0.3-0.1-0.5-0.1c-0.3,0-0.7,0-0.9,0C31.6,13.4,31.5,13.4,31.5,13.4L31.5,13.4z
		"/>
</g>
<g>
	<path fill="#2A3757" d="M30.6,14.6c0,0,0.2,0.1,0.5,0.3c0.2,0.1,0.3,0.1,0.5,0.2c0.2,0,0.4,0.1,0.6,0.1c0.2,0,0.4,0,0.6-0.1
		c0.2,0,0.4,0,0.5-0.1c0.3-0.1,0.6-0.1,0.6-0.1l0,0c0,0-0.2,0.1-0.5,0.3c-0.2,0.1-0.3,0.2-0.6,0.2c-0.2,0-0.5,0.1-0.7,0
		c-0.2,0-0.5-0.1-0.7-0.1c-0.2-0.1-0.4-0.2-0.5-0.3C30.7,14.8,30.5,14.6,30.6,14.6L30.6,14.6z"/>
</g>
<g>
	<path fill="#2A3757" d="M28.5,14.6c0,0-0.1,0.1-0.3,0.3c-0.1,0.1-0.2,0.1-0.4,0.2c-0.2,0-0.3,0.1-0.5,0.1c-0.2,0-0.3,0.1-0.5,0
		c-0.2,0-0.3-0.1-0.4-0.1C26.1,15,26,14.9,26,14.9l0,0c0,0,0.2,0,0.4,0c0.1,0,0.2,0,0.4,0c0.1,0,0.3,0,0.4,0c0.3,0,0.6-0.1,0.8-0.2
		C28.3,14.7,28.4,14.6,28.5,14.6L28.5,14.6z"/>
</g>
<g>
	<path fill="#2A3757" d="M29.1,14.1c0,0,0.1,0.5,0.1,1.2c0,0.4,0,0.8-0.1,1.2c0,0.2-0.1,0.4-0.2,0.7c-0.1,0.2-0.2,0.4-0.3,0.6
		c-0.1,0.2-0.1,0.3,0.1,0.5c0.1,0.1,0.3,0.2,0.5,0.3c0.2,0,0.4,0,0.6,0c0.2,0,0.4,0,0.5-0.1c0.1-0.1,0.3-0.1,0.4-0.2
		c0.1-0.1,0.1-0.2,0.2-0.3c0.1-0.2,0.1-0.3,0.1-0.3l0,0c0,0,0,0.1,0,0.3c0,0.1,0,0.2-0.1,0.4c-0.1,0.1-0.2,0.3-0.4,0.4
		c-0.2,0.1-0.4,0.2-0.6,0.2c-0.2,0-0.4,0-0.7,0c-0.2-0.1-0.5-0.2-0.7-0.4c-0.1-0.1-0.2-0.2-0.2-0.4c0-0.2,0-0.3,0.1-0.4
		c0.1-0.2,0.2-0.4,0.3-0.6c0.1-0.2,0.2-0.4,0.2-0.6c0.1-0.4,0.2-0.8,0.2-1.2C29.1,14.6,29,14.1,29.1,14.1L29.1,14.1z"/>
</g>
<path fill="#E6E6E6" d="M47.4,88.9c0,0-0.6-5.8,0-7c0.6-1.2,1.8-3.8,1.8-3.8s-2.6,0.9-2.6-1.7c-0.1-2.7,2.1-2.5,2.9-2.5
	c0.8,0,3.1,0.9,1.6,4.6c-1.5,3.7-1.8,2.2-2,4.9c-0.2,2.7,0,5.4,0,5.4L47.4,88.9z"/>
<path fill="#F2F2F2" d="M48.2,90.6c0,0-0.6-5.8,0-7c0.6-1.2,1.8-3.8,1.8-3.8s-2.6,0.9-2.6-1.7c-0.1-2.7,2.1-2.5,2.9-2.5
	c0.8,0,3.1,0.9,1.6,4.6c-1.5,3.7-1.8,2.2-2,4.9c-0.2,2.7,0,5.4,0,5.4L48.2,90.6z"/>
<path fill="#E6E6E6" d="M49.3,82.2c0,0,4.5-17-5.7-17c-10.2,0-9,13-5.8,17.6C41,87.3,49.3,82.2,49.3,82.2z"/>
<path fill="#E8EFFF" d="M49.1,89.3c0,0,0.7-2.8,0.3-3.7c-0.5-0.9,0-2.5-0.1-3.4c-0.1-0.9-1.3-2.4-4-0.6c0,0-6.9-3.7-6.9,1.1
	c-0.1,4.7,0.3,7.2,0.3,7.2S47,90.8,49.1,89.3z"/>
<path fill="#666666" d="M30.5,91.4c0,0,0.6-5.8,0-7c-0.6-1.2-1.8-3.8-1.8-3.8s2.6,0.9,2.6-1.7c0.1-2.7-2.1-2.5-2.9-2.5
	c-0.8,0-3.1,0.9-1.6,4.6c1.5,3.7,1.8,2.2,2,4.9c0.2,2.7,0,5.4,0,5.4L30.5,91.4z"/>
<path fill="#808080" d="M31.3,90.6c0,0,0.6-5.8,0-7c-0.6-1.2-1.8-3.8-1.8-3.8s2.6,0.9,2.6-1.7c0.1-2.7-2.1-2.5-2.9-2.5
	c-0.8,0-3.1,0.9-1.6,4.6c1.5,3.7,1.8,2.2,2,4.9c0.2,2.7,0,5.4,0,5.4L31.3,90.6z"/>
<path fill="#999999" d="M32.5,89.7c0,0,0.6-5.8,0-7c-0.6-1.2-1.8-3.8-1.8-3.8s2.6,0.9,2.6-1.7c0.1-2.7-2.1-2.5-2.9-2.5
	c-0.8,0-3.1,0.9-1.6,4.6c1.5,3.7,1.8,2.2,2,4.9c0.2,2.7,0,5.4,0,5.4L32.5,89.7z"/>
<path fill="#B3B3B3" d="M34.2,89.5c0,0,0.6-5.8,0-7c-0.6-1.2-1.8-3.8-1.8-3.8s2.6,0.9,2.6-1.7c0.1-2.7-2.1-2.5-2.9-2.5
	c-0.8,0-3.1,0.9-1.6,4.6c1.5,3.7,1.8,2.2,2,4.9c0.2,2.7,0,5.4,0,5.4L34.2,89.5z"/>
<path fill="#CCCCCC" d="M35.8,89.7c0,0,0.6-5.8,0-7c-0.6-1.2-1.8-3.8-1.8-3.8s2.6,0.9,2.6-1.7c0.1-2.7-2.1-2.5-2.9-2.5
	c-0.8,0-3.1,0.9-1.6,4.6c1.5,3.7,1.8,2.2,2,4.9c0.2,2.7,0,5.4,0,5.4L35.8,89.7z"/>
<path fill="#E6E6E6" d="M37.5,90c0,0,0.6-5.8,0-7c-0.6-1.2-1.8-3.8-1.8-3.8s2.6,0.9,2.6-1.7c0.1-2.7-2.1-2.5-2.9-2.5
	c-0.8,0-3.1,0.9-1.6,4.6c1.5,3.7,1.8,2.2,2,4.9c0.2,2.7,0,5.4,0,5.4L37.5,90z"/>
<path fill="#F2F2F2" d="M39,90.3c0,0,0.6-5.8,0-7c-0.6-1.2-1.8-3.8-1.8-3.8s2.6,0.9,2.6-1.7c0.1-2.7-2.1-2.5-2.9-2.5
	c-0.8,0-3.1,0.9-1.6,4.6c1.5,3.7,1.8,2.2,2,4.9c0.2,2.7,0,5.4,0,5.4L39,90.3z"/>
<path fill="#F2F2F2" d="M45.3,81.6c0,0,2.7-0.2,3.7-1.9c0,0-1.5-1.4-3.6-0.4c0,0-2.4-0.9-4.6-0.3C40.9,79,42.4,81.3,45.3,81.6z"/>
<path fill="#BF9B4D" d="M27.3,97.2l3.3,0.7l0.7-3.2c0.8,0.2,1.7,0.4,2.6,0.5l-0.4,3.1l3.5,0.4l0.4-3.2c1,0.1,2,0.1,3,0.1v3.2h3.6
	v-3.2c1.1,0,2.1-0.1,2.9-0.1l0.5,3.3l3.9-0.7l-1.3-7.8l-0.7,0.1l0-0.3L30,89.4l0,0.3l-1-0.2L27.3,97.2z"/>
<path fill="#0B050F" d="M49.9,89c0,0-10,1.5-21-1.1l-0.1,1.8c0,0,13.8,3.2,21.4,0.8L49.9,89z"/>
<g>
	<path fill="#808080" d="M46.5,86.6c0,0,0.2,0,0.4,0.1c0.3,0,0.6,0,0.9,0c0.2,0,0.3-0.1,0.5-0.1c0.1-0.1,0.3-0.1,0.4-0.1
		c0.2-0.1,0.4-0.2,0.4-0.2l0,0c0,0-0.1,0.2-0.3,0.4c-0.1,0.1-0.3,0.2-0.4,0.2c-0.2,0-0.4,0.1-0.5,0C47.1,86.9,46.4,86.6,46.5,86.6
		L46.5,86.6z"/>
</g>
<g>
	<path fill="#808080" d="M43.5,86.6c0,0-0.7,0.3-1.4,0.3c-0.2,0-0.4,0-0.5,0c-0.2,0-0.3-0.1-0.4-0.2c-0.2-0.2-0.3-0.4-0.3-0.4l0,0
		c0,0,0.2,0.1,0.4,0.2c0.1,0,0.3,0.1,0.4,0.1c0.2,0,0.3,0.1,0.5,0.1c0.3,0,0.7,0,0.9,0C43.4,86.6,43.5,86.6,43.5,86.6L43.5,86.6z"/>
</g>
<g>
	<path fill="#2A3757" d="M44.4,85.4c0,0-0.2-0.1-0.5-0.3c-0.2-0.1-0.3-0.1-0.5-0.2c-0.2,0-0.4-0.1-0.6-0.1c-0.2,0-0.4,0-0.6,0.1
		c-0.2,0-0.4,0-0.5,0.1c-0.3,0.1-0.6,0.1-0.6,0.1l0,0c0,0,0.2-0.1,0.5-0.3c0.2-0.1,0.3-0.2,0.6-0.2c0.2,0,0.5-0.1,0.7,0
		c0.2,0,0.5,0.1,0.7,0.1c0.2,0.1,0.4,0.2,0.5,0.3C44.3,85.2,44.5,85.4,44.4,85.4L44.4,85.4z"/>
</g>
<g>
	<path fill="#2A3757" d="M46.5,85.4c0,0,0.1-0.1,0.3-0.3c0.1-0.1,0.2-0.1,0.4-0.2c0.2,0,0.3-0.1,0.5-0.1c0.2,0,0.3-0.1,0.5,0
		c0.2,0,0.3,0.1,0.4,0.1c0.2,0.1,0.4,0.2,0.4,0.2l0,0c0,0-0.2,0-0.4,0c-0.1,0-0.2,0-0.4,0c-0.1,0-0.3,0-0.4,0
		c-0.3,0-0.6,0.1-0.8,0.2C46.7,85.3,46.6,85.4,46.5,85.4L46.5,85.4z"/>
</g>
<g>
	<path fill="#2A3757" d="M45.9,85.9c0,0-0.1-0.5-0.1-1.2c0-0.4,0-0.8,0.1-1.2c0-0.2,0.1-0.4,0.2-0.7c0.1-0.2,0.2-0.4,0.3-0.6
		c0.1-0.2,0.1-0.3-0.1-0.5c-0.1-0.1-0.3-0.2-0.5-0.3c-0.2,0-0.4,0-0.6,0c-0.2,0-0.4,0-0.5,0.1c-0.1,0.1-0.3,0.1-0.4,0.2
		c-0.1,0.1-0.1,0.2-0.2,0.3c-0.1,0.2-0.1,0.3-0.1,0.3l0,0c0,0,0-0.1,0-0.3c0-0.1,0-0.2,0.1-0.4c0.1-0.1,0.2-0.3,0.4-0.4
		c0.2-0.1,0.4-0.2,0.6-0.2c0.2,0,0.4,0,0.7,0c0.2,0.1,0.5,0.2,0.7,0.4c0.1,0.1,0.2,0.2,0.2,0.4c0,0.2,0,0.3-0.1,0.4
		c-0.1,0.2-0.2,0.4-0.3,0.6c-0.1,0.2-0.2,0.4-0.2,0.6C46.1,84,46,84.4,46,84.7C45.9,85.4,46,85.9,45.9,85.9L45.9,85.9z"/>
</g>
</svg>
