<?xml version="1.0" encoding="utf-8"?>
<!-- Generator: Adobe Illustrator 17.1.0, SVG Export Plug-In . SVG Version: 6.00 Build 0)  -->
<!DOCTYPE svg PUBLIC "-//W3C//DTD SVG 1.1//EN" "http://www.w3.org/Graphics/SVG/1.1/DTD/svg11.dtd">
<svg version="1.1" id="Layer_1" xmlns="http://www.w3.org/2000/svg" xmlns:xlink="http://www.w3.org/1999/xlink" x="0px" y="0px"
	 viewBox="0 0 10 17" enable-background="new 0 0 10 17" xml:space="preserve">
<rect fill="none" width="10" height="17"/>
<path d="M6.5,9.7C6.1,9.4,5.6,9,5.3,8.6C5.2,8.5,5.1,8.5,5,8.5h0c-0.1,0-0.2,0-0.2,0.1C4.4,9,3.9,9.4,3.5,9.7
	c-1,0.8-1.9,1.6-1.9,2.9c0,1.1,0.8,1.9,1.9,1.9c0.6,0,1-0.3,1.4-0.6c-0.2,0.7-0.5,1.5-1,2.1H5h1.2c-0.6-0.6-0.8-1.4-1-2.1
	c0.3,0.3,0.8,0.6,1.4,0.6c1.1,0,1.9-0.8,1.9-1.9C8.5,11.3,7.5,10.5,6.5,9.7z"/>
</svg>
