<?xml version="1.0" encoding="utf-8"?>
<!-- Generator: Adobe Illustrator 17.1.0, SVG Export Plug-In . SVG Version: 6.00 Build 0)  -->
<!DOCTYPE svg PUBLIC "-//W3C//DTD SVG 1.1//EN" "http://www.w3.org/Graphics/SVG/1.1/DTD/svg11.dtd">
<svg version="1.1" id="Layer_1" xmlns="http://www.w3.org/2000/svg" xmlns:xlink="http://www.w3.org/1999/xlink" x="0px" y="0px"
	 viewBox="0 0 75 100" enable-background="new 0 0 75 100" xml:space="preserve">
<rect fill="none" width="75" height="100"/>
<path d="M24.7,16.4c-0.9-0.7-1.8-1.5-2.5-2.3c-0.1-0.1-0.3-0.2-0.5-0.2h0h0c-0.2,0-0.4,0.1-0.5,0.2
	c-0.7,0.8-1.6,1.6-2.5,2.3c-1.9,1.5-3.8,3.1-3.8,5.5c0,2.2,1.5,3.7,3.7,3.7c1.1,0,2-0.6,2.6-1.2c-0.3,1.3-0.9,2.8-1.9,4h2.3h2.3
	c-1.1-1.2-1.6-2.7-1.9-4c0.6,0.6,1.6,1.2,2.6,1.2c2.2,0,3.7-1.5,3.7-3.7C28.5,19.5,26.6,17.9,24.7,16.4z"/>
<path d="M50.3,25.7c1.1,0,2-0.6,2.6-1.2c-0.3,1.3-0.9,2.8-1.9,4h2.3h2.3c-1.1-1.2-1.6-2.7-1.9-4
	c0.6,0.6,1.6,1.2,2.6,1.2c2.2,0,3.7-1.5,3.7-3.7c0-2.4-1.9-4-3.8-5.5c-0.9-0.7-1.8-1.5-2.5-2.3c-0.1-0.1-0.3-0.2-0.5-0.2h0
	c-0.2,0-0.4,0.1-0.5,0.2c-0.7,0.8-1.6,1.6-2.5,2.3c-1.9,1.5-3.8,3.1-3.8,5.5C46.5,24.1,48,25.7,50.3,25.7z"/>
<path d="M24.7,35.6c-0.9-0.7-1.8-1.5-2.5-2.3c-0.1-0.1-0.3-0.2-0.5-0.2h0h0c-0.2,0-0.4,0.1-0.5,0.2
	c-0.7,0.8-1.6,1.6-2.5,2.3c-1.9,1.5-3.8,3.1-3.8,5.5c0,2.2,1.5,3.7,3.7,3.7c1.1,0,2-0.6,2.6-1.2c-0.3,1.3-0.9,2.8-1.9,4h2.3h2.3
	c-1.1-1.2-1.6-2.7-1.9-4c0.6,0.6,1.6,1.2,2.6,1.2c2.2,0,3.7-1.5,3.7-3.7C28.5,38.7,26.6,37.1,24.7,35.6z"/>
<path d="M56.2,35.6c-0.9-0.7-1.8-1.5-2.5-2.3c-0.1-0.1-0.3-0.2-0.5-0.2h0c-0.2,0-0.4,0.1-0.5,0.2
	c-0.7,0.8-1.6,1.6-2.5,2.3c-1.9,1.5-3.8,3.1-3.8,5.5c0,2.2,1.5,3.7,3.7,3.7c1.1,0,2-0.6,2.6-1.2c-0.3,1.3-0.9,2.8-1.9,4h2.3h2.3
	c-1.1-1.2-1.6-2.7-1.9-4c0.6,0.6,1.6,1.2,2.6,1.2c2.2,0,3.7-1.5,3.7-3.7C59.9,38.7,58,37.1,56.2,35.6z"/>
<path d="M24.7,54.8c-0.9-0.7-1.8-1.5-2.5-2.3c-0.1-0.1-0.3-0.2-0.5-0.2h0h0c-0.2,0-0.4,0.1-0.5,0.2
	c-0.7,0.8-1.6,1.6-2.5,2.3c-1.9,1.5-3.8,3.1-3.8,5.5c0,2.2,1.5,3.7,3.7,3.7c1.1,0,2-0.6,2.6-1.2c-0.3,1.3-0.9,2.8-1.9,4h2.3h2.3
	c-1.1-1.2-1.6-2.7-1.9-4c0.6,0.6,1.6,1.2,2.6,1.2c2.2,0,3.7-1.5,3.7-3.7C28.5,57.9,26.6,56.3,24.7,54.8z"/>
<path d="M56.2,54.8c-0.9-0.7-1.8-1.5-2.5-2.3c-0.1-0.1-0.3-0.2-0.5-0.2h0c-0.2,0-0.4,0.1-0.5,0.2
	c-0.7,0.8-1.6,1.6-2.5,2.3c-1.9,1.5-3.8,3.1-3.8,5.5c0,2.2,1.5,3.7,3.7,3.7c1.1,0,2-0.6,2.6-1.2c-0.3,1.3-0.9,2.8-1.9,4h2.3h2.3
	c-1.1-1.2-1.6-2.7-1.9-4c0.6,0.6,1.6,1.2,2.6,1.2c2.2,0,3.7-1.5,3.7-3.7C59.9,57.9,58,56.3,56.2,54.8z"/>
<path d="M24.7,74c-0.9-0.7-1.8-1.5-2.5-2.3c-0.1-0.1-0.3-0.2-0.5-0.2h0h0c-0.2,0-0.4,0.1-0.5,0.2
	c-0.7,0.8-1.6,1.6-2.5,2.3c-1.9,1.5-3.8,3.1-3.8,5.5c0,2.2,1.5,3.7,3.7,3.7c1.1,0,2-0.6,2.6-1.2c-0.3,1.3-0.9,2.8-1.9,4h2.3h2.3
	c-1.1-1.2-1.6-2.7-1.9-4c0.6,0.6,1.6,1.2,2.6,1.2c2.2,0,3.7-1.5,3.7-3.7C28.5,77.1,26.6,75.5,24.7,74z"/>
<path d="M56.2,74c-0.9-0.7-1.8-1.5-2.5-2.3c-0.1-0.1-0.3-0.2-0.5-0.2h0c-0.2,0-0.4,0.1-0.5,0.2
	c-0.7,0.8-1.6,1.6-2.5,2.3c-1.9,1.5-3.8,3.1-3.8,5.5c0,2.2,1.5,3.7,3.7,3.7c1.1,0,2-0.6,2.6-1.2c-0.3,1.3-0.9,2.8-1.9,4h2.3h2.3
	c-1.1-1.2-1.6-2.7-1.9-4c0.6,0.6,1.6,1.2,2.6,1.2c2.2,0,3.7-1.5,3.7-3.7C59.9,77.1,58,75.5,56.2,74z"/>
<path d="M40.5,45.6c-0.9-0.7-1.8-1.5-2.5-2.3c-0.1-0.1-0.3-0.2-0.5-0.2h0h0c-0.2,0-0.4,0.1-0.5,0.2
	c-0.7,0.8-1.6,1.6-2.5,2.3c-1.9,1.5-3.8,3.1-3.8,5.5c0,2.2,1.5,3.7,3.7,3.7c1.1,0,2-0.6,2.6-1.2c-0.3,1.3-0.9,2.8-1.9,4h2.3h2.3
	c-1.1-1.2-1.6-2.7-1.9-4c0.6,0.6,1.6,1.2,2.6,1.2c2.2,0,3.7-1.5,3.7-3.7C44.3,48.7,42.3,47.1,40.5,45.6z"/>
</svg>
